  0
SECTION
  2
HEADER
  9
$ACADVER
  1
AC1009
  9
$INSBASE
 10
0.0
 20
0.0
 30
0.0
  9
$EXTMIN
 10
0.25
 20
-5.3416479133828743
 30
0.0
  9
$EXTMAX
 10
386.1244276000001037
 20
119.8180058238226025
 30
0.0
  9
$LIMMIN
 10
0.0
 20
0.0
  9
$LIMMAX
 10
12.0
 20
9.0
  9
$ORTHOMODE
 70
     0
  9
$REGENMODE
 70
     1
  9
$FILLMODE
 70
     0
  9
$QTEXTMODE
 70
     0
  9
$MIRRTEXT
 70
     0
  9
$DRAGMODE
 70
     2
  9
$LTSCALE
 40
1.0
  9
$OSMODE
 70
    39
  9
$ATTMODE
 70
     1
  9
$TEXTSIZE
 40
0.2
  9
$TRACEWID
 40
0.05
  9
$TEXTSTYLE
  7
STANDARD
  9
$CLAYER
  8
0
  9
$CELTYPE
  6
CONTINUOUS
  9
$CECOLOR
 62
   256
  9
$DIMSCALE
 40
1.0
  9
$DIMASZ
 40
0.18
  9
$DIMEXO
 40
0.0625
  9
$DIMDLI
 40
0.38
  9
$DIMRND
 40
0.0
  9
$DIMDLE
 40
0.0
  9
$DIMEXE
 40
0.18
  9
$DIMTP
 40
0.0
  9
$DIMTM
 40
0.0
  9
$DIMTXT
 40
0.18
  9
$DIMCEN
 40
0.09
  9
$DIMTSZ
 40
0.0
  9
$DIMTOL
 70
     0
  9
$DIMLIM
 70
     0
  9
$DIMTIH
 70
     1
  9
$DIMTOH
 70
     1
  9
$DIMSE1
 70
     0
  9
$DIMSE2
 70
     0
  9
$DIMTAD
 70
     0
  9
$DIMZIN
 70
     0
  9
$DIMBLK
  1

  9
$DIMASO
 70
     1
  9
$DIMSHO
 70
     1
  9
$DIMPOST
  1

  9
$DIMAPOST
  1

  9
$DIMALT
 70
     0
  9
$DIMALTD
 70
     2
  9
$DIMALTF
 40
25.3999999999999986
  9
$DIMLFAC
 40
1.0
  9
$DIMTOFL
 70
     0
  9
$DIMTVP
 40
0.0
  9
$DIMTIX
 70
     0
  9
$DIMSOXD
 70
     0
  9
$DIMSAH
 70
     0
  9
$DIMBLK1
  1

  9
$DIMBLK2
  1

  9
$DIMSTYLE
  2
STANDARD
  9
$DIMCLRD
 70
     0
  9
$DIMCLRE
 70
     0
  9
$DIMCLRT
 70
     0
  9
$DIMTFAC
 40
1.0
  9
$DIMGAP
 40
0.09
  9
$LUNITS
 70
     2
  9
$LUPREC
 70
     4
  9
$SKETCHINC
 40
0.1
  9
$FILLETRAD
 40
0.0
  9
$AUNITS
 70
     0
  9
$AUPREC
 70
     0
  9
$MENU
  1
.
  9
$ELEVATION
 40
0.0
  9
$PELEVATION
 40
0.0
  9
$THICKNESS
 40
0.0
  9
$LIMCHECK
 70
     0
  9
$BLIPMODE
 70
     0
  9
$CHAMFERA
 40
0.0
  9
$CHAMFERB
 40
0.0
  9
$SKPOLY
 70
     0
  9
$TDCREATE
 40
2458723.4946296298876405
  9
$TDUPDATE
 40
2458724.4703935189172626
  9
$TDINDWG
 40
0.2513541667
  9
$TDUSRTIMER
 40
0.2513541667
  9
$USRTIMER
 70
     1
  9
$ANGBASE
 50
0.0
  9
$ANGDIR
 70
     0
  9
$PDMODE
 70
     0
  9
$PDSIZE
 40
0.0
  9
$PLINEWID
 40
0.0
  9
$COORDS
 70
     1
  9
$SPLFRAME
 70
     1
  9
$SPLINETYPE
 70
     6
  9
$SPLINESEGS
 70
     8
  9
$ATTDIA
 70
     1
  9
$ATTREQ
 70
     1
  9
$HANDLING
 70
     1
  9
$HANDSEED
  5
B1E
  9
$SURFTAB1
 70
     6
  9
$SURFTAB2
 70
     6
  9
$SURFTYPE
 70
     6
  9
$SURFU
 70
     6
  9
$SURFV
 70
     6
  9
$UCSNAME
  2

  9
$UCSORG
 10
0.0
 20
0.0
 30
0.0
  9
$UCSXDIR
 10
1.0
 20
0.0
 30
0.0
  9
$UCSYDIR
 10
0.0
 20
1.0
 30
0.0
  9
$PUCSNAME
  2

  9
$PUCSORG
 10
0.0
 20
0.0
 30
0.0
  9
$PUCSXDIR
 10
1.0
 20
0.0
 30
0.0
  9
$PUCSYDIR
 10
0.0
 20
1.0
 30
0.0
  9
$USERI1
 70
     0
  9
$USERI2
 70
     0
  9
$USERI3
 70
     0
  9
$USERI4
 70
     0
  9
$USERI5
 70
     0
  9
$USERR1
 40
0.0
  9
$USERR2
 40
0.0
  9
$USERR3
 40
0.0
  9
$USERR4
 40
0.0
  9
$USERR5
 40
0.0
  9
$WORLDVIEW
 70
     1
  9
$SHADEDGE
 70
     3
  9
$SHADEDIF
 70
    70
  9
$TILEMODE
 70
     1
  9
$MAXACTVP
 70
    64
  9
$PLIMCHECK
 70
     0
  9
$PEXTMIN
 10
1.0000000000000000E+20
 20
1.0000000000000000E+20
 30
1.0000000000000000E+20
  9
$PEXTMAX
 10
-1.0000000000000000E+20
 20
-1.0000000000000000E+20
 30
-1.0000000000000000E+20
  9
$PLIMMIN
 10
0.0
 20
0.0
  9
$PLIMMAX
 10
12.0
 20
9.0
  9
$UNITMODE
 70
     0
  9
$VISRETAIN
 70
     1
  9
$PLINEGEN
 70
     0
  9
$PSLTSCALE
 70
     1
  0
ENDSEC
  0
SECTION
  2
TABLES
  0
TABLE
  2
VPORT
 70
     1
  0
VPORT
  2
*ACTIVE
 70
     0
 10
0.0
 20
0.0
 11
1.0
 21
1.0
 12
287.3449074636039882
 22
79.0804133537226335
 13
0.0
 23
0.0
 14
1.0
 24
1.0
 15
0.0
 25
0.0
 16
0.0
 26
0.0
 36
1.0
 17
0.0
 27
0.0
 37
0.0
 40
397.5697913387639915
 41
2.4578947368421051
 42
50.0
 43
0.0
 44
0.0
 50
0.0
 51
0.0
 71
     0
 72
   100
 73
     1
 74
     0
 75
     0
 76
     0
 77
     0
 78
     0
  0
ENDTAB
  0
TABLE
  2
LTYPE
 70
     1
  0
LTYPE
  2
CONTINUOUS
 70
     0
  3
Solid line
 72
    65
 73
     0
 40
0.0
  0
ENDTAB
  0
TABLE
  2
LAYER
 70
     1
  0
LAYER
  2
0
 70
     0
 62
     7
  6
CONTINUOUS
  0
ENDTAB
  0
TABLE
  2
STYLE
 70
     2
  0
STYLE
  2
STANDARD
 70
     0
 40
0.0
 41
1.0
 50
0.0
 71
     0
 42
0.2
  3
txt
  4

  0
STYLE
  2
ANNOTATIVE
 70
     0
 40
0.0
 41
1.0
 50
0.0
 71
     0
 42
0.2
  3
txt
  4

  0
ENDTAB
  0
TABLE
  2
VIEW
 70
     0
  0
ENDTAB
  0
TABLE
  2
UCS
 70
     0
  0
ENDTAB
  0
TABLE
  2
APPID
 70
     5
  0
APPID
  2
ACAD
 70
     0
  0
APPID
  2
ACADANNOTATIVE
 70
     0
  0
APPID
  2
ACAD_NAV_VCDISPLAY
 70
     0
  0
APPID
  2
ACAD_DSTYLE_DIMRADIAL_EXTENSION
 70
     0
  0
APPID
  2
ACAD_MLEADERVER
 70
     0
  0
ENDTAB
  0
TABLE
  2
DIMSTYLE
 70
     2
  0
DIMSTYLE
  2
STANDARD
 70
     0
  3

  4

  5

  6

  7

 40
1.0
 41
0.18
 42
0.0625
 43
0.38
 44
0.18
 45
0.0
 46
0.0
 47
0.0
 48
0.0
140
0.18
141
0.09
142
0.0
143
25.3999999999999986
144
1.0
145
0.0
146
1.0
147
0.09
 71
     0
 72
     0
 73
     1
 74
     1
 75
     0
 76
     0
 77
     0
 78
     0
170
     0
171
     2
172
     0
173
     0
174
     0
175
     0
176
     0
177
     0
178
     0
  0
DIMSTYLE
  2
ANNOTATIVE
 70
     0
  3

  4

  5

  6

  7

 40
1.0
 41
0.18
 42
0.0625
 43
0.38
 44
0.18
 45
0.0
 46
0.0
 47
0.0
 48
0.0
140
0.18
141
0.09
142
0.0
143
25.3999999999999986
144
1.0
145
0.0
146
1.0
147
0.09
 71
     0
 72
     0
 73
     1
 74
     1
 75
     0
 76
     0
 77
     0
 78
     0
170
     0
171
     2
172
     0
173
     0
174
     0
175
     0
176
     0
177
     0
178
     0
  0
ENDTAB
  0
ENDSEC
  0
SECTION
  2
BLOCKS
  0
BLOCK
  8
0
  2
$MODEL_SPACE
 70
     0
 10
0.0
 20
0.0
 30
0.0
  3
$MODEL_SPACE
  1

  0
ENDBLK
  5
71
  8
0
  0
BLOCK
 67
     1
  8
0
  2
$PAPER_SPACE
 70
     0
 10
0.0
 20
0.0
 30
0.0
  3
$PAPER_SPACE
  1

  0
ENDBLK
  5
6D
 67
     1
  8
0
  0
ENDSEC
  0
SECTION
  2
ENTITIES
  0
POLYLINE
  5
380
  8
0
 62
     0
 66
     1
 10
0.0
 20
0.0
 30
0.0
 70
     1
 40
0.010869690909
 41
0.010869690909
  0
VERTEX
  5
84B
  8
0
 62
     0
 10
152.4261144699999875
 20
72.9251694290716159
 30
0.0
  0
VERTEX
  5
84C
  8
0
 62
     0
 10
162.7524326500000029
 20
72.9251694290716159
 30
0.0
  0
VERTEX
  5
84D
  8
0
 62
     0
 10
162.7524326500000029
 20
76.1860684190716313
 30
0.0
  0
VERTEX
  5
84E
  8
0
 62
     0
 10
165.9039999999999964
 20
76.1860684190716313
 30
0.0
  0
VERTEX
  5
84F
  8
0
 62
     0
 10
165.9039999999999964
 20
72.1642653890716304
 30
0.0
  0
VERTEX
  5
850
  8
0
 62
     0
 10
169.9258030299999973
 20
72.1642653890716304
 30
0.0
  0
VERTEX
  5
851
  8
0
 62
     0
 10
169.9258030299999973
 20
76.1860684190716313
 30
0.0
  0
VERTEX
  5
852
  8
0
 62
     0
 10
173.0773703799999907
 20
76.1860684190716313
 30
0.0
  0
VERTEX
  5
853
  8
0
 62
     0
 10
173.0773703799999907
 20
72.9251694290716159
 30
0.0
  0
VERTEX
  5
854
  8
0
 62
     0
 10
179.5991683599999931
 20
72.9251694290716159
 30
0.0
  0
VERTEX
  5
855
  8
0
 62
     0
 10
179.5991683599999931
 20
76.1860684190716313
 30
0.0
  0
VERTEX
  5
856
  8
0
 62
     0
 10
186.1209663399999954
 20
76.1860684190716313
 30
0.0
  0
VERTEX
  5
857
  8
0
 62
     0
 10
186.1209663399999954
 20
72.9251694290716159
 30
0.0
  0
VERTEX
  5
858
  8
0
 62
     0
 10
192.6424882299999979
 20
72.9251694290716159
 30
0.0
  0
VERTEX
  5
859
  8
0
 62
     0
 10
192.6424882299999979
 20
76.1860684190716313
 30
0.0
  0
VERTEX
  5
85A
  8
0
 62
     0
 10
199.1642862100000002
 20
76.1860684190716313
 30
0.0
  0
VERTEX
  5
85B
  8
0
 62
     0
 10
199.1642862100000002
 20
72.9251694290716159
 30
0.0
  0
VERTEX
  5
85C
  8
0
 62
     0
 10
205.6863602800000024
 20
72.9251694290716159
 30
0.0
  0
VERTEX
  5
85D
  8
0
 62
     0
 10
205.6863602800000024
 20
76.1860684190716313
 30
0.0
  0
VERTEX
  5
85E
  8
0
 62
     0
 10
212.2095387100000039
 20
76.1860684190716313
 30
0.0
  0
VERTEX
  5
85F
  8
0
 62
     0
 10
212.2095387100000039
 20
72.9251694290716159
 30
0.0
  0
VERTEX
  5
860
  8
0
 62
     0
 10
218.7316127800000061
 20
72.9251694290716159
 30
0.0
  0
VERTEX
  5
861
  8
0
 62
     0
 10
218.7316127800000061
 20
76.1860684190716313
 30
0.0
  0
VERTEX
  5
862
  8
0
 62
     0
 10
225.2531346700000086
 20
76.1860684190716313
 30
0.0
  0
VERTEX
  5
863
  8
0
 62
     0
 10
225.2531346700000086
 20
72.9251694290716159
 30
0.0
  0
VERTEX
  5
864
  8
0
 62
     0
 10
231.7749326500000109
 20
72.9251694290716159
 30
0.0
  0
VERTEX
  5
865
  8
0
 62
     0
 10
231.7749326500000109
 20
76.1860684190716313
 30
0.0
  0
VERTEX
  5
866
  8
0
 62
     0
 10
238.2967306300000132
 20
76.1860684190716313
 30
0.0
  0
VERTEX
  5
867
  8
0
 62
     0
 10
238.2967306300000132
 20
72.9251694290716159
 30
0.0
  0
VERTEX
  5
868
  8
0
 62
     0
 10
244.8185286099999871
 20
72.9251694290716159
 30
0.0
  0
VERTEX
  5
869
  8
0
 62
     0
 10
244.8185286099999871
 20
76.1860684190716313
 30
0.0
  0
VERTEX
  5
86A
  8
0
 62
     0
 10
251.3403265899999894
 20
76.1860684190716313
 30
0.0
  0
VERTEX
  5
86B
  8
0
 62
     0
 10
251.3403265899999894
 20
72.9251694290716159
 30
0.0
  0
VERTEX
  5
86C
  8
0
 62
     0
 10
257.8624006599999916
 20
72.9251694290716159
 30
0.0
  0
VERTEX
  5
86D
  8
0
 62
     0
 10
257.8624006599999916
 20
76.1860684190716313
 30
0.0
  0
VERTEX
  5
86E
  8
0
 62
     0
 10
264.3836464600000227
 20
76.1860684190716313
 30
0.0
  0
VERTEX
  5
86F
  8
0
 62
     0
 10
264.3836464600000227
 20
72.9251694290716159
 30
0.0
  0
VERTEX
  5
870
  8
0
 62
     0
 10
270.9065488000001096
 20
72.9251694290716159
 30
0.0
  0
VERTEX
  5
871
  8
0
 62
     0
 10
270.9065488000001096
 20
76.1860684190716313
 30
0.0
  0
VERTEX
  5
872
  8
0
 62
     0
 10
277.427794600000027
 20
76.1860684190716313
 30
0.0
  0
VERTEX
  5
873
  8
0
 62
     0
 10
277.427794600000027
 20
72.9251694290716159
 30
0.0
  0
VERTEX
  5
874
  8
0
 62
     0
 10
283.9490404000001149
 20
72.9251694290716159
 30
0.0
  0
VERTEX
  5
875
  8
0
 62
     0
 10
283.9490404000001149
 20
76.1860684190716313
 30
0.0
  0
VERTEX
  5
876
  8
0
 62
     0
 10
287.1019881999999939
 20
76.1860684190716313
 30
0.0
  0
VERTEX
  5
877
  8
0
 62
     0
 10
287.1019881999999939
 20
72.1642653890716304
 30
0.0
  0
VERTEX
  5
878
  8
0
 62
     0
 10
291.1218585999999959
 20
72.1642653890716304
 30
0.0
  0
VERTEX
  5
879
  8
0
 62
     0
 10
291.1218585999999959
 20
76.1860684190716313
 30
0.0
  0
VERTEX
  5
87A
  8
0
 62
     0
 10
294.2748063999999886
 20
76.1860684190716313
 30
0.0
  0
VERTEX
  5
87B
  8
0
 62
     0
 10
294.2748063999999886
 20
72.9251694290716159
 30
0.0
  0
VERTEX
  5
87C
  8
0
 62
     0
 10
304.6005723999999759
 20
72.9251694290716159
 30
0.0
  0
VERTEX
  5
87D
  8
0
 62
     0
 10
304.6005723999999759
 20
67.2183891290716247
 30
0.0
  0
VERTEX
  5
87E
  8
0
 62
     0
 10
301.3399495000001025
 20
67.2183891290716247
 30
0.0
  0
VERTEX
  5
87F
  8
0
 62
     0
 10
301.3399495000001025
 20
64.4204930690716253
 30
0.0
  0
VERTEX
  5
880
  8
0
 62
     0
 10
299.056685200000004
 20
64.4204930690716253
 30
0.0
  0
VERTEX
  5
881
  8
0
 62
     0
 10
299.056685200000004
 20
65.7788558690716059
 30
0.0
  0
VERTEX
  5
882
  8
0
 62
     0
 10
296.339959599999986
 20
65.7788558690716059
 30
0.0
  0
VERTEX
  5
883
  8
0
 62
     0
 10
296.339959599999986
 20
64.4204930690716253
 30
0.0
  0
VERTEX
  5
884
  8
0
 62
     0
 10
293.6232340000000249
 20
64.4204930690716253
 30
0.0
  0
VERTEX
  5
885
  8
0
 62
     0
 10
293.6232340000000249
 20
61.0502624390716377
 30
0.0
  0
VERTEX
  5
886
  8
0
 62
     0
 10
296.339959599999986
 20
61.0502624390716377
 30
0.0
  0
VERTEX
  5
887
  8
0
 62
     0
 10
296.339959599999986
 20
59.6916235490716289
 30
0.0
  0
VERTEX
  5
888
  8
0
 62
     0
 10
299.056685200000004
 20
59.6916235490716289
 30
0.0
  0
VERTEX
  5
889
  8
0
 62
     0
 10
299.056685200000004
 20
61.0502624390716377
 30
0.0
  0
VERTEX
  5
88A
  8
0
 62
     0
 10
301.3399495000001025
 20
61.0502624390716377
 30
0.0
  0
VERTEX
  5
88B
  8
0
 62
     0
 10
301.3399495000001025
 20
58.2520902890716314
 30
0.0
  0
VERTEX
  5
88C
  8
0
 62
     0
 10
304.6005723999999759
 20
58.2520902890716314
 30
0.0
  0
VERTEX
  5
88D
  8
0
 62
     0
 10
304.6005723999999759
 20
51.730292309071622
 30
0.0
  0
VERTEX
  5
88E
  8
0
 62
     0
 10
301.3399495000001025
 20
51.730292309071622
 30
0.0
  0
VERTEX
  5
88F
  8
0
 62
     0
 10
301.3399495000001025
 20
45.2082182390716127
 30
0.0
  0
VERTEX
  5
890
  8
0
 62
     0
 10
304.6005723999999759
 20
45.2082182390716127
 30
0.0
  0
VERTEX
  5
891
  8
0
 62
     0
 10
304.6005723999999759
 20
38.6864202590716317
 30
0.0
  0
VERTEX
  5
892
  8
0
 62
     0
 10
301.3399495000001025
 20
38.6864202590716317
 30
0.0
  0
VERTEX
  5
893
  8
0
 62
     0
 10
301.3399495000001025
 20
32.1648983690716435
 30
0.0
  0
VERTEX
  5
894
  8
0
 62
     0
 10
304.6005723999999759
 20
32.1648983690716435
 30
0.0
  0
VERTEX
  5
895
  8
0
 62
     0
 10
304.6005723999999759
 20
25.6431003890716305
 30
0.0
  0
VERTEX
  5
896
  8
0
 62
     0
 10
301.3399495000001025
 20
25.6431003890716305
 30
0.0
  0
VERTEX
  5
897
  8
0
 62
     0
 10
301.3399495000001025
 20
19.121302409071621
 30
0.0
  0
VERTEX
  5
898
  8
0
 62
     0
 10
304.6005723999999759
 20
19.121302409071621
 30
0.0
  0
VERTEX
  5
899
  8
0
 62
     0
 10
304.6005723999999759
 20
12.5994768200716294
 30
0.0
  0
VERTEX
  5
89A
  8
0
 62
     0
 10
301.3399495000001025
 20
12.5994768200716294
 30
0.0
  0
VERTEX
  5
89B
  8
0
 62
     0
 10
301.3399495000001025
 20
9.7999242200716274
 30
0.0
  0
VERTEX
  5
89C
  8
0
 62
     0
 10
299.056685200000004
 20
9.7999242200716274
 30
0.0
  0
VERTEX
  5
89D
  8
0
 62
     0
 10
299.056685200000004
 20
11.1585078920716203
 30
0.0
  0
VERTEX
  5
89E
  8
0
 62
     0
 10
296.339959599999986
 20
11.1585078920716203
 30
0.0
  0
VERTEX
  5
89F
  8
0
 62
     0
 10
296.339959599999986
 20
9.7999242200716274
 30
0.0
  0
VERTEX
  5
8A0
  8
0
 62
     0
 10
293.6232340000000249
 20
9.7999242200716274
 30
0.0
  0
VERTEX
  5
8A1
  8
0
 62
     0
 10
293.6232340000000249
 20
6.4296659810716248
 30
0.0
  0
VERTEX
  5
8A2
  8
0
 62
     0
 10
296.339959599999986
 20
6.4296659810716248
 30
0.0
  0
VERTEX
  5
8A3
  8
0
 62
     0
 10
296.339959599999986
 20
5.0711099180716266
 30
0.0
  0
VERTEX
  5
8A4
  8
0
 62
     0
 10
299.056685200000004
 20
5.0711099180716266
 30
0.0
  0
VERTEX
  5
8A5
  8
0
 62
     0
 10
299.056685200000004
 20
6.4296659810716248
 30
0.0
  0
VERTEX
  5
8A6
  8
0
 62
     0
 10
301.3399495000001025
 20
6.4296659810716248
 30
0.0
  0
VERTEX
  5
8A7
  8
0
 62
     0
 10
301.3399495000001025
 20
3.631604267071626
 30
0.0
  0
VERTEX
  5
8A8
  8
0
 62
     0
 10
304.6005723999999759
 20
3.631604267071626
 30
0.0
  0
VERTEX
  5
8A9
  8
0
 62
     0
 10
304.6005723999999759
 20
-2.075341686928371
 30
0.0
  0
VERTEX
  5
8AA
  8
0
 62
     0
 10
294.2748063999999886
 20
-2.075341686928371
 30
0.0
  0
VERTEX
  5
8AB
  8
0
 62
     0
 10
294.2748063999999886
 20
-5.336213067928373
 30
0.0
  0
VERTEX
  5
8AC
  8
0
 62
     0
 10
291.1218585999999959
 20
-5.336213067928373
 30
0.0
  0
VERTEX
  5
8AD
  8
0
 62
     0
 10
291.1218585999999959
 20
-1.3143824289283721
 30
0.0
  0
VERTEX
  5
8AE
  8
0
 62
     0
 10
287.1019881999999939
 20
-1.3143824289283721
 30
0.0
  0
VERTEX
  5
8AF
  8
0
 62
     0
 10
287.1019881999999939
 20
-5.336213067928373
 30
0.0
  0
VERTEX
  5
8B0
  8
0
 62
     0
 10
283.9490404000001149
 20
-5.336213067928373
 30
0.0
  0
VERTEX
  5
8B1
  8
0
 62
     0
 10
283.9490404000001149
 20
-2.075341686928371
 30
0.0
  0
VERTEX
  5
8B2
  8
0
 62
     0
 10
277.427794600000027
 20
-2.075341686928371
 30
0.0
  0
VERTEX
  5
8B3
  8
0
 62
     0
 10
277.427794600000027
 20
-5.336213067928373
 30
0.0
  0
VERTEX
  5
8B4
  8
0
 62
     0
 10
270.9065488000001096
 20
-5.336213067928373
 30
0.0
  0
VERTEX
  5
8B5
  8
0
 62
     0
 10
270.9065488000001096
 20
-2.075341686928371
 30
0.0
  0
VERTEX
  5
8B6
  8
0
 62
     0
 10
264.3836464600000227
 20
-2.075341686928371
 30
0.0
  0
VERTEX
  5
8B7
  8
0
 62
     0
 10
264.3836464600000227
 20
-5.336213067928373
 30
0.0
  0
VERTEX
  5
8B8
  8
0
 62
     0
 10
257.8624006599999916
 20
-5.336213067928373
 30
0.0
  0
VERTEX
  5
8B9
  8
0
 62
     0
 10
257.8624006599999916
 20
-2.075341686928371
 30
0.0
  0
VERTEX
  5
8BA
  8
0
 62
     0
 10
251.3403265899999894
 20
-2.075341686928371
 30
0.0
  0
VERTEX
  5
8BB
  8
0
 62
     0
 10
251.3403265899999894
 20
-5.336213067928373
 30
0.0
  0
VERTEX
  5
8BC
  8
0
 62
     0
 10
244.8185286099999871
 20
-5.336213067928373
 30
0.0
  0
VERTEX
  5
8BD
  8
0
 62
     0
 10
244.8185286099999871
 20
-2.075341686928371
 30
0.0
  0
VERTEX
  5
8BE
  8
0
 62
     0
 10
238.2967306300000132
 20
-2.075341686928371
 30
0.0
  0
VERTEX
  5
8BF
  8
0
 62
     0
 10
238.2967306300000132
 20
-5.336213067928373
 30
0.0
  0
VERTEX
  5
8C0
  8
0
 62
     0
 10
231.7749326500000109
 20
-5.336213067928373
 30
0.0
  0
VERTEX
  5
8C1
  8
0
 62
     0
 10
231.7749326500000109
 20
-2.075341686928371
 30
0.0
  0
VERTEX
  5
8C2
  8
0
 62
     0
 10
225.2531346700000086
 20
-2.075341686928371
 30
0.0
  0
VERTEX
  5
8C3
  8
0
 62
     0
 10
225.2531346700000086
 20
-5.336213067928373
 30
0.0
  0
VERTEX
  5
8C4
  8
0
 62
     0
 10
218.7316127800000061
 20
-5.336213067928373
 30
0.0
  0
VERTEX
  5
8C5
  8
0
 62
     0
 10
218.7316127800000061
 20
-2.075341686928371
 30
0.0
  0
VERTEX
  5
8C6
  8
0
 62
     0
 10
212.2095387100000039
 20
-2.075341686928371
 30
0.0
  0
VERTEX
  5
8C7
  8
0
 62
     0
 10
212.2095387100000039
 20
-5.336213067928373
 30
0.0
  0
VERTEX
  5
8C8
  8
0
 62
     0
 10
205.6863602800000024
 20
-5.336213067928373
 30
0.0
  0
VERTEX
  5
8C9
  8
0
 62
     0
 10
205.6863602800000024
 20
-2.075341686928371
 30
0.0
  0
VERTEX
  5
8CA
  8
0
 62
     0
 10
199.1642862100000002
 20
-2.075341686928371
 30
0.0
  0
VERTEX
  5
8CB
  8
0
 62
     0
 10
199.1642862100000002
 20
-5.336213067928373
 30
0.0
  0
VERTEX
  5
8CC
  8
0
 62
     0
 10
192.6424882299999979
 20
-5.336213067928373
 30
0.0
  0
VERTEX
  5
8CD
  8
0
 62
     0
 10
192.6424882299999979
 20
-2.075341686928371
 30
0.0
  0
VERTEX
  5
8CE
  8
0
 62
     0
 10
186.1209663399999954
 20
-2.075341686928371
 30
0.0
  0
VERTEX
  5
8CF
  8
0
 62
     0
 10
186.1209663399999954
 20
-5.336213067928373
 30
0.0
  0
VERTEX
  5
8D0
  8
0
 62
     0
 10
179.5991683599999931
 20
-5.336213067928373
 30
0.0
  0
VERTEX
  5
8D1
  8
0
 62
     0
 10
179.5991683599999931
 20
-2.075341686928371
 30
0.0
  0
VERTEX
  5
8D2
  8
0
 62
     0
 10
173.0773703799999907
 20
-2.075341686928371
 30
0.0
  0
VERTEX
  5
8D3
  8
0
 62
     0
 10
173.0773703799999907
 20
-5.336213067928373
 30
0.0
  0
VERTEX
  5
8D4
  8
0
 62
     0
 10
169.9258030299999973
 20
-5.336213067928373
 30
0.0
  0
VERTEX
  5
8D5
  8
0
 62
     0
 10
169.9258030299999973
 20
-1.3143824289283721
 30
0.0
  0
VERTEX
  5
8D6
  8
0
 62
     0
 10
165.9039999999999964
 20
-1.3143824289283721
 30
0.0
  0
VERTEX
  5
8D7
  8
0
 62
     0
 10
165.9039999999999964
 20
-5.336213067928373
 30
0.0
  0
VERTEX
  5
8D8
  8
0
 62
     0
 10
162.7524326500000029
 20
-5.336213067928373
 30
0.0
  0
VERTEX
  5
8D9
  8
0
 62
     0
 10
162.7524326500000029
 20
-2.075341686928371
 30
0.0
  0
VERTEX
  5
8DA
  8
0
 62
     0
 10
152.4261144699999875
 20
-2.075341686928371
 30
0.0
  0
VERTEX
  5
8DB
  8
0
 62
     0
 10
152.4261144699999875
 20
3.631604267071626
 30
0.0
  0
VERTEX
  5
8DC
  8
0
 62
     0
 10
155.686737370000003
 20
3.631604267071626
 30
0.0
  0
VERTEX
  5
8DD
  8
0
 62
     0
 10
155.686737370000003
 20
6.4296659810716248
 30
0.0
  0
VERTEX
  5
8DE
  8
0
 62
     0
 10
157.969725579999988
 20
6.4296659810716248
 30
0.0
  0
VERTEX
  5
8DF
  8
0
 62
     0
 10
157.969725579999988
 20
5.0711099180716266
 30
0.0
  0
VERTEX
  5
8E0
  8
0
 62
     0
 10
160.6870033600000056
 20
5.0711099180716266
 30
0.0
  0
VERTEX
  5
8E1
  8
0
 62
     0
 10
160.6870033600000056
 20
6.4296659810716248
 30
0.0
  0
VERTEX
  5
8E2
  8
0
 62
     0
 10
163.4037289599999951
 20
6.4296659810716248
 30
0.0
  0
VERTEX
  5
8E3
  8
0
 62
     0
 10
163.4037289599999951
 20
9.7999242200716274
 30
0.0
  0
VERTEX
  5
8E4
  8
0
 62
     0
 10
160.6870033600000056
 20
9.7999242200716274
 30
0.0
  0
VERTEX
  5
8E5
  8
0
 62
     0
 10
160.6870033600000056
 20
11.1585078920716203
 30
0.0
  0
VERTEX
  5
8E6
  8
0
 62
     0
 10
157.969725579999988
 20
11.1585078920716203
 30
0.0
  0
VERTEX
  5
8E7
  8
0
 62
     0
 10
157.969725579999988
 20
9.7999242200716274
 30
0.0
  0
VERTEX
  5
8E8
  8
0
 62
     0
 10
155.686737370000003
 20
9.7999242200716274
 30
0.0
  0
VERTEX
  5
8E9
  8
0
 62
     0
 10
155.686737370000003
 20
12.5994768200716294
 30
0.0
  0
VERTEX
  5
8EA
  8
0
 62
     0
 10
152.4261144699999875
 20
12.5994768200716294
 30
0.0
  0
VERTEX
  5
8EB
  8
0
 62
     0
 10
152.4261144699999875
 20
19.121302409071621
 30
0.0
  0
VERTEX
  5
8EC
  8
0
 62
     0
 10
155.686737370000003
 20
19.121302409071621
 30
0.0
  0
VERTEX
  5
8ED
  8
0
 62
     0
 10
155.686737370000003
 20
25.6431003890716305
 30
0.0
  0
VERTEX
  5
8EE
  8
0
 62
     0
 10
152.4261144699999875
 20
25.6431003890716305
 30
0.0
  0
VERTEX
  5
8EF
  8
0
 62
     0
 10
152.4261144699999875
 20
32.1648983690716435
 30
0.0
  0
VERTEX
  5
8F0
  8
0
 62
     0
 10
155.686737370000003
 20
32.1648983690716435
 30
0.0
  0
VERTEX
  5
8F1
  8
0
 62
     0
 10
155.686737370000003
 20
38.6864202590716317
 30
0.0
  0
VERTEX
  5
8F2
  8
0
 62
     0
 10
152.4261144699999875
 20
38.6864202590716317
 30
0.0
  0
VERTEX
  5
8F3
  8
0
 62
     0
 10
152.4261144699999875
 20
45.2082182390716127
 30
0.0
  0
VERTEX
  5
8F4
  8
0
 62
     0
 10
155.686737370000003
 20
45.2082182390716127
 30
0.0
  0
VERTEX
  5
8F5
  8
0
 62
     0
 10
155.686737370000003
 20
51.730292309071622
 30
0.0
  0
VERTEX
  5
8F6
  8
0
 62
     0
 10
152.4261144699999875
 20
51.730292309071622
 30
0.0
  0
VERTEX
  5
8F7
  8
0
 62
     0
 10
152.4261144699999875
 20
58.2520902890716314
 30
0.0
  0
VERTEX
  5
8F8
  8
0
 62
     0
 10
155.686737370000003
 20
58.2520902890716314
 30
0.0
  0
VERTEX
  5
8F9
  8
0
 62
     0
 10
155.686737370000003
 20
61.0502624390716377
 30
0.0
  0
VERTEX
  5
8FA
  8
0
 62
     0
 10
157.969725579999988
 20
61.0502624390716377
 30
0.0
  0
VERTEX
  5
8FB
  8
0
 62
     0
 10
157.969725579999988
 20
59.6916235490716289
 30
0.0
  0
VERTEX
  5
8FC
  8
0
 62
     0
 10
160.6870033600000056
 20
59.6916235490716289
 30
0.0
  0
VERTEX
  5
8FD
  8
0
 62
     0
 10
160.6870033600000056
 20
61.0502624390716377
 30
0.0
  0
VERTEX
  5
8FE
  8
0
 62
     0
 10
163.4037289599999951
 20
61.0502624390716377
 30
0.0
  0
VERTEX
  5
8FF
  8
0
 62
     0
 10
163.4037289599999951
 20
64.4204930690716253
 30
0.0
  0
VERTEX
  5
900
  8
0
 62
     0
 10
160.6870033600000056
 20
64.4204930690716253
 30
0.0
  0
VERTEX
  5
901
  8
0
 62
     0
 10
160.6870033600000056
 20
65.7788558690716059
 30
0.0
  0
VERTEX
  5
902
  8
0
 62
     0
 10
157.969725579999988
 20
65.7788558690716059
 30
0.0
  0
VERTEX
  5
903
  8
0
 62
     0
 10
157.969725579999988
 20
64.4204930690716253
 30
0.0
  0
VERTEX
  5
904
  8
0
 62
     0
 10
155.686737370000003
 20
64.4204930690716253
 30
0.0
  0
VERTEX
  5
905
  8
0
 62
     0
 10
155.686737370000003
 20
67.2183891290716247
 30
0.0
  0
VERTEX
  5
906
  8
0
 62
     0
 10
152.4261144699999875
 20
67.2183891290716247
 30
0.0
  0
VERTEX
  5
907
  8
0
 62
     0
 10
152.4261144699999875
 20
72.9251694290716159
 30
0.0
  0
SEQEND
  5
908
  8
0
 62
     0
  0
POLYLINE
  5
6F8
  8
0
 62
     0
 66
     1
 10
0.0
 20
0.0
 30
0.0
 70
     1
  0
VERTEX
  5
909
  8
0
 62
     0
 10
3.5108989899999989
 20
119.8180058238226025
 30
0.0
  0
VERTEX
  5
90A
  8
0
 62
     0
 10
3.5108989899999989
 20
119.8180058238226025
 30
0.0
  0
VERTEX
  5
90B
  8
0
 62
     0
 10
3.5108989899999989
 20
110.5789300638225967
 30
0.0
  0
VERTEX
  5
90C
  8
0
 62
     0
 10
0.25
 20
110.5789300638225967
 30
0.0
  0
VERTEX
  5
90D
  8
0
 62
     0
 10
0.25
 20
101.3401303938225055
 30
0.0
  0
VERTEX
  5
90E
  8
0
 62
     0
 10
3.5108989899999989
 20
101.3401303938225055
 30
0.0
  0
VERTEX
  5
90F
  8
0
 62
     0
 10
3.5108989899999989
 20
94.8183324138225601
 30
0.0
  0
VERTEX
  5
910
  8
0
 62
     0
 10
0.25
 20
94.8183324138225601
 30
0.0
  0
VERTEX
  5
911
  8
0
 62
     0
 10
0.25
 20
85.5778762038225551
 30
0.0
  0
VERTEX
  5
912
  8
0
 62
     0
 10
3.5108989899999989
 20
85.5778762038225551
 30
0.0
  0
VERTEX
  5
913
  8
0
 62
     0
 10
3.5108989899999989
 20
76.3388004438225778
 30
0.0
  0
VERTEX
  5
914
  8
0
 62
     0
 10
10.5764286159999994
 20
76.3388004438225778
 30
0.0
  0
VERTEX
  5
915
  8
0
 62
     0
 10
10.5764286159999994
 20
79.5996994338225647
 30
0.0
  0
VERTEX
  5
916
  8
0
 62
     0
 10
20.9028296229999917
 20
79.5996994338225647
 30
0.0
  0
VERTEX
  5
917
  8
0
 62
     0
 10
20.9028296229999917
 20
76.3388004438225778
 30
0.0
  0
VERTEX
  5
918
  8
0
 62
     0
 10
27.4247104300000011
 20
76.3388004438225778
 30
0.0
  0
VERTEX
  5
919
  8
0
 62
     0
 10
27.4247104300000011
 20
79.5996994338225647
 30
0.0
  0
VERTEX
  5
91A
  8
0
 62
     0
 10
33.9465084099999999
 20
79.5996994338225647
 30
0.0
  0
VERTEX
  5
91B
  8
0
 62
     0
 10
33.9465084099999999
 20
76.3388004438225778
 30
0.0
  0
VERTEX
  5
91C
  8
0
 62
     0
 10
40.4683063900000022
 20
76.3388004438225778
 30
0.0
  0
VERTEX
  5
91D
  8
0
 62
     0
 10
40.4683063900000022
 20
79.5996994338225647
 30
0.0
  0
VERTEX
  5
91E
  8
0
 62
     0
 10
46.9901043699999974
 20
79.5996994338225647
 30
0.0
  0
VERTEX
  5
91F
  8
0
 62
     0
 10
46.9901043699999974
 20
76.3388004438225778
 30
0.0
  0
VERTEX
  5
920
  8
0
 62
     0
 10
53.5116262599999999
 20
76.3388004438225778
 30
0.0
  0
VERTEX
  5
921
  8
0
 62
     0
 10
53.5116262599999999
 20
79.5996994338225647
 30
0.0
  0
VERTEX
  5
922
  8
0
 62
     0
 10
60.033424239999988
 20
79.5996994338225647
 30
0.0
  0
VERTEX
  5
923
  8
0
 62
     0
 10
60.033424239999988
 20
76.3388004438225778
 30
0.0
  0
VERTEX
  5
924
  8
0
 62
     0
 10
66.5552222200000045
 20
76.3388004438225778
 30
0.0
  0
VERTEX
  5
925
  8
0
 62
     0
 10
66.5552222200000045
 20
79.5996994338225647
 30
0.0
  0
VERTEX
  5
926
  8
0
 62
     0
 10
73.0772962900000067
 20
79.5996994338225647
 30
0.0
  0
VERTEX
  5
927
  8
0
 62
     0
 10
73.0772962900000067
 20
76.3388004438225778
 30
0.0
  0
VERTEX
  5
928
  8
0
 62
     0
 10
79.599094270000009
 20
76.3388004438225778
 30
0.0
  0
VERTEX
  5
929
  8
0
 62
     0
 10
79.599094270000009
 20
79.5996994338225647
 30
0.0
  0
VERTEX
  5
92A
  8
0
 62
     0
 10
86.1208922500000114
 20
79.5996994338225647
 30
0.0
  0
VERTEX
  5
92B
  8
0
 62
     0
 10
86.1208922500000114
 20
76.3388004438225778
 30
0.0
  0
VERTEX
  5
92C
  8
0
 62
     0
 10
92.6424141400000138
 20
76.3388004438225778
 30
0.0
  0
VERTEX
  5
92D
  8
0
 62
     0
 10
92.6424141400000138
 20
79.5996994338225647
 30
0.0
  0
VERTEX
  5
92E
  8
0
 62
     0
 10
99.1642121200000304
 20
79.5996994338225647
 30
0.0
  0
VERTEX
  5
92F
  8
0
 62
     0
 10
99.1642121200000304
 20
76.3388004438225778
 30
0.0
  0
VERTEX
  5
930
  8
0
 62
     0
 10
105.6860101000000043
 20
76.3388004438225778
 30
0.0
  0
VERTEX
  5
931
  8
0
 62
     0
 10
105.6860101000000043
 20
79.5996994338225647
 30
0.0
  0
VERTEX
  5
932
  8
0
 62
     0
 10
112.2078080800000066
 20
79.5996994338225647
 30
0.0
  0
VERTEX
  5
933
  8
0
 62
     0
 10
112.2078080800000066
 20
76.3388004438225778
 30
0.0
  0
VERTEX
  5
934
  8
0
 62
     0
 10
118.7298821499999946
 20
76.3388004438225778
 30
0.0
  0
VERTEX
  5
935
  8
0
 62
     0
 10
118.7298821499999946
 20
79.5996994338225647
 30
0.0
  0
VERTEX
  5
936
  8
0
 62
     0
 10
125.2514040399999971
 20
79.5996994338225647
 30
0.0
  0
VERTEX
  5
937
  8
0
 62
     0
 10
125.2514040399999971
 20
76.3388004438225778
 30
0.0
  0
VERTEX
  5
938
  8
0
 62
     0
 10
131.7732020200000136
 20
76.3388004438225778
 30
0.0
  0
VERTEX
  5
939
  8
0
 62
     0
 10
131.7732020200000136
 20
79.5996994338225647
 30
0.0
  0
VERTEX
  5
93A
  8
0
 62
     0
 10
142.0997962900000005
 20
79.5996994338225647
 30
0.0
  0
VERTEX
  5
93B
  8
0
 62
     0
 10
142.0997962900000005
 20
76.3388004438225778
 30
0.0
  0
VERTEX
  5
93C
  8
0
 62
     0
 10
149.1652154800000005
 20
76.3388004438225778
 30
0.0
  0
VERTEX
  5
93D
  8
0
 62
     0
 10
149.1652154800000005
 20
85.5778762038225551
 30
0.0
  0
VERTEX
  5
93E
  8
0
 62
     0
 10
152.4261144699999875
 20
85.5778762038225551
 30
0.0
  0
VERTEX
  5
93F
  8
0
 62
     0
 10
152.4261144699999875
 20
94.8183324138225601
 30
0.0
  0
VERTEX
  5
940
  8
0
 62
     0
 10
149.1652154800000005
 20
94.8183324138225601
 30
0.0
  0
VERTEX
  5
941
  8
0
 62
     0
 10
149.1652154800000005
 20
101.3401303938225055
 30
0.0
  0
VERTEX
  5
942
  8
0
 62
     0
 10
152.4261144699999875
 20
101.3401303938225055
 30
0.0
  0
VERTEX
  5
943
  8
0
 62
     0
 10
152.4261144699999875
 20
110.5789300638225967
 30
0.0
  0
VERTEX
  5
944
  8
0
 62
     0
 10
149.1652154800000005
 20
110.5789300638225967
 30
0.0
  0
VERTEX
  5
945
  8
0
 62
     0
 10
149.1652154800000005
 20
119.8180058238226025
 30
0.0
  0
VERTEX
  5
946
  8
0
 62
     0
 10
142.0997962900000005
 20
119.8180058238226025
 30
0.0
  0
VERTEX
  5
947
  8
0
 62
     0
 10
142.0997962900000005
 20
116.5571068338225018
 30
0.0
  0
VERTEX
  5
948
  8
0
 62
     0
 10
138.6216144699999973
 20
116.5571068338225018
 30
0.0
  0
VERTEX
  5
949
  8
0
 62
     0
 10
138.6216144699999973
 20
114.2743947138225025
 30
0.0
  0
VERTEX
  5
94A
  8
0
 62
     0
 10
139.9802533600000061
 20
114.2743947138225025
 30
0.0
  0
VERTEX
  5
94B
  8
0
 62
     0
 10
139.9802533600000061
 20
111.557116933822499
 30
0.0
  0
VERTEX
  5
94C
  8
0
 62
     0
 10
138.6216144699999973
 20
111.557116933822499
 30
0.0
  0
VERTEX
  5
94D
  8
0
 62
     0
 10
138.6216144699999973
 20
108.8398391538225951
 30
0.0
  0
VERTEX
  5
94E
  8
0
 62
     0
 10
135.2513838399999884
 20
108.8398391538225951
 30
0.0
  0
VERTEX
  5
94F
  8
0
 62
     0
 10
135.2513838399999884
 20
111.557116933822499
 30
0.0
  0
VERTEX
  5
950
  8
0
 62
     0
 10
133.8930210400000078
 20
111.557116933822499
 30
0.0
  0
VERTEX
  5
951
  8
0
 62
     0
 10
133.8930210400000078
 20
114.2743947138225025
 30
0.0
  0
VERTEX
  5
952
  8
0
 62
     0
 10
135.2513838399999884
 20
114.2743947138225025
 30
0.0
  0
VERTEX
  5
953
  8
0
 62
     0
 10
135.2513838399999884
 20
116.5571068338225018
 30
0.0
  0
VERTEX
  5
954
  8
0
 62
     0
 10
131.7732020200000136
 20
116.5571068338225018
 30
0.0
  0
VERTEX
  5
955
  8
0
 62
     0
 10
131.7732020200000136
 20
119.8180058238226025
 30
0.0
  0
VERTEX
  5
956
  8
0
 62
     0
 10
125.2514040399999971
 20
119.8180058238226025
 30
0.0
  0
VERTEX
  5
957
  8
0
 62
     0
 10
125.2514040399999971
 20
116.5571068338225018
 30
0.0
  0
VERTEX
  5
958
  8
0
 62
     0
 10
118.7298821499999946
 20
116.5571068338225018
 30
0.0
  0
VERTEX
  5
959
  8
0
 62
     0
 10
118.7298821499999946
 20
119.8180058238226025
 30
0.0
  0
VERTEX
  5
95A
  8
0
 62
     0
 10
112.2078080800000066
 20
119.8180058238226025
 30
0.0
  0
VERTEX
  5
95B
  8
0
 62
     0
 10
112.2078080800000066
 20
116.5571068338225018
 30
0.0
  0
VERTEX
  5
95C
  8
0
 62
     0
 10
105.6860101000000043
 20
116.5571068338225018
 30
0.0
  0
VERTEX
  5
95D
  8
0
 62
     0
 10
105.6860101000000043
 20
119.8180058238226025
 30
0.0
  0
VERTEX
  5
95E
  8
0
 62
     0
 10
99.1642121200000304
 20
119.8180058238226025
 30
0.0
  0
VERTEX
  5
95F
  8
0
 62
     0
 10
99.1642121200000304
 20
116.5571068338225018
 30
0.0
  0
VERTEX
  5
960
  8
0
 62
     0
 10
92.6424141400000138
 20
116.5571068338225018
 30
0.0
  0
VERTEX
  5
961
  8
0
 62
     0
 10
92.6424141400000138
 20
119.8180058238226025
 30
0.0
  0
VERTEX
  5
962
  8
0
 62
     0
 10
86.1208922500000114
 20
119.8180058238226025
 30
0.0
  0
VERTEX
  5
963
  8
0
 62
     0
 10
86.1208922500000114
 20
116.5571068338225018
 30
0.0
  0
VERTEX
  5
964
  8
0
 62
     0
 10
79.599094270000009
 20
116.5571068338225018
 30
0.0
  0
VERTEX
  5
965
  8
0
 62
     0
 10
79.599094270000009
 20
119.8180058238226025
 30
0.0
  0
VERTEX
  5
966
  8
0
 62
     0
 10
73.0772962900000067
 20
119.8180058238226025
 30
0.0
  0
VERTEX
  5
967
  8
0
 62
     0
 10
73.0772962900000067
 20
116.5571068338225018
 30
0.0
  0
VERTEX
  5
968
  8
0
 62
     0
 10
66.5552222200000045
 20
116.5571068338225018
 30
0.0
  0
VERTEX
  5
969
  8
0
 62
     0
 10
66.5552222200000045
 20
119.8180058238226025
 30
0.0
  0
VERTEX
  5
96A
  8
0
 62
     0
 10
60.033424239999988
 20
119.8180058238226025
 30
0.0
  0
VERTEX
  5
96B
  8
0
 62
     0
 10
60.033424239999988
 20
116.5571068338225018
 30
0.0
  0
VERTEX
  5
96C
  8
0
 62
     0
 10
53.5116262599999999
 20
116.5571068338225018
 30
0.0
  0
VERTEX
  5
96D
  8
0
 62
     0
 10
53.5116262599999999
 20
119.8180058238226025
 30
0.0
  0
VERTEX
  5
96E
  8
0
 62
     0
 10
46.9901043699999974
 20
119.8180058238226025
 30
0.0
  0
VERTEX
  5
96F
  8
0
 62
     0
 10
46.9901043699999974
 20
116.5571068338225018
 30
0.0
  0
VERTEX
  5
970
  8
0
 62
     0
 10
40.4683063900000022
 20
116.5571068338225018
 30
0.0
  0
VERTEX
  5
971
  8
0
 62
     0
 10
40.4683063900000022
 20
119.8180058238226025
 30
0.0
  0
VERTEX
  5
972
  8
0
 62
     0
 10
33.9465084099999999
 20
119.8180058238226025
 30
0.0
  0
VERTEX
  5
973
  8
0
 62
     0
 10
33.9465084099999999
 20
116.5571068338225018
 30
0.0
  0
VERTEX
  5
974
  8
0
 62
     0
 10
27.4247104300000011
 20
116.5571068338225018
 30
0.0
  0
VERTEX
  5
975
  8
0
 62
     0
 10
27.4247104300000011
 20
119.8180058238226025
 30
0.0
  0
VERTEX
  5
976
  8
0
 62
     0
 10
20.9028296229999917
 20
119.8180058238226025
 30
0.0
  0
VERTEX
  5
977
  8
0
 62
     0
 10
20.9028296229999917
 20
116.5571068338225018
 30
0.0
  0
VERTEX
  5
978
  8
0
 62
     0
 10
17.4247582389999991
 20
116.5571068338225018
 30
0.0
  0
VERTEX
  5
979
  8
0
 62
     0
 10
17.4247582389999991
 20
114.2743947138225025
 30
0.0
  0
VERTEX
  5
97A
  8
0
 62
     0
 10
18.7833143020000009
 20
114.2743947138225025
 30
0.0
  0
VERTEX
  5
97B
  8
0
 62
     0
 10
18.7833143020000009
 20
111.557116933822499
 30
0.0
  0
VERTEX
  5
97C
  8
0
 62
     0
 10
17.4247582389999991
 20
111.557116933822499
 30
0.0
  0
VERTEX
  5
97D
  8
0
 62
     0
 10
17.4247582389999991
 20
108.8398391538225951
 30
0.0
  0
VERTEX
  5
97E
  8
0
 62
     0
 10
14.0545000000000009
 20
108.8398391538225951
 30
0.0
  0
VERTEX
  5
97F
  8
0
 62
     0
 10
14.0545000000000009
 20
111.557116933822499
 30
0.0
  0
VERTEX
  5
980
  8
0
 62
     0
 10
12.6959163279999991
 20
111.557116933822499
 30
0.0
  0
VERTEX
  5
981
  8
0
 62
     0
 10
12.6959163279999991
 20
114.2743947138225025
 30
0.0
  0
VERTEX
  5
982
  8
0
 62
     0
 10
14.0545000000000009
 20
114.2743947138225025
 30
0.0
  0
VERTEX
  5
983
  8
0
 62
     0
 10
14.0545000000000009
 20
116.5571068338225018
 30
0.0
  0
VERTEX
  5
984
  8
0
 62
     0
 10
10.5764286159999994
 20
116.5571068338225018
 30
0.0
  0
VERTEX
  5
985
  8
0
 62
     0
 10
10.5764286159999994
 20
119.8180058238226025
 30
0.0
  0
SEQEND
  5
986
  8
0
 62
     0
  0
POLYLINE
  5
6F9
  8
0
 62
     0
 66
     1
 10
0.0
 20
0.0
 30
0.0
 70
     1
  0
VERTEX
  5
987
  8
0
 62
     0
 10
386.1244276000001037
 20
116.5571068338225018
 30
0.0
  0
VERTEX
  5
988
  8
0
 62
     0
 10
386.1244276000001037
 20
116.5571068338225018
 30
0.0
  0
VERTEX
  5
989
  8
0
 62
     0
 10
386.1244276000001037
 20
110.5792061538224971
 30
0.0
  0
VERTEX
  5
98A
  8
0
 62
     0
 10
382.8638047000000029
 20
110.5792061538224971
 30
0.0
  0
VERTEX
  5
98B
  8
0
 62
     0
 10
382.8638047000000029
 20
101.3401303938225055
 30
0.0
  0
VERTEX
  5
98C
  8
0
 62
     0
 10
386.1244276000001037
 20
101.3401303938225055
 30
0.0
  0
VERTEX
  5
98D
  8
0
 62
     0
 10
386.1244276000001037
 20
94.8183324138225601
 30
0.0
  0
VERTEX
  5
98E
  8
0
 62
     0
 10
382.8638047000000029
 20
94.8183324138225601
 30
0.0
  0
VERTEX
  5
98F
  8
0
 62
     0
 10
382.8638047000000029
 20
85.5792566538225543
 30
0.0
  0
VERTEX
  5
990
  8
0
 62
     0
 10
386.1244276000001037
 20
85.5792566538225543
 30
0.0
  0
VERTEX
  5
991
  8
0
 62
     0
 10
386.1244276000001037
 20
79.5996994338225647
 30
0.0
  0
VERTEX
  5
992
  8
0
 62
     0
 10
377.1570244000001253
 20
79.5996994338225647
 30
0.0
  0
VERTEX
  5
993
  8
0
 62
     0
 10
377.1570244000001253
 20
76.3390765338225776
 30
0.0
  0
VERTEX
  5
994
  8
0
 62
     0
 10
368.1896211999999764
 20
76.3390765338225776
 30
0.0
  0
VERTEX
  5
995
  8
0
 62
     0
 10
368.1896211999999764
 20
79.5996994338225647
 30
0.0
  0
VERTEX
  5
996
  8
0
 62
     0
 10
361.6683754000001159
 20
79.5996994338225647
 30
0.0
  0
VERTEX
  5
997
  8
0
 62
     0
 10
361.6683754000001159
 20
76.3390765338225776
 30
0.0
  0
VERTEX
  5
998
  8
0
 62
     0
 10
355.1443686999999727
 20
76.3390765338225776
 30
0.0
  0
VERTEX
  5
999
  8
0
 62
     0
 10
355.1443686999999727
 20
79.5996994338225647
 30
0.0
  0
VERTEX
  5
99A
  8
0
 62
     0
 10
348.6231229000001122
 20
79.5996994338225647
 30
0.0
  0
VERTEX
  5
99B
  8
0
 62
     0
 10
348.6231229000001122
 20
76.3390765338225776
 30
0.0
  0
VERTEX
  5
99C
  8
0
 62
     0
 10
342.1018771000000243
 20
76.3390765338225776
 30
0.0
  0
VERTEX
  5
99D
  8
0
 62
     0
 10
342.1018771000000243
 20
79.5996994338225647
 30
0.0
  0
VERTEX
  5
99E
  8
0
 62
     0
 10
335.5806312999999932
 20
79.5996994338225647
 30
0.0
  0
VERTEX
  5
99F
  8
0
 62
     0
 10
335.5806312999999932
 20
76.3390765338225776
 30
0.0
  0
VERTEX
  5
9A0
  8
0
 62
     0
 10
329.0566246000000206
 20
76.3390765338225776
 30
0.0
  0
VERTEX
  5
9A1
  8
0
 62
     0
 10
329.0566246000000206
 20
79.5996994338225647
 30
0.0
  0
VERTEX
  5
9A2
  8
0
 62
     0
 10
322.5353787999999895
 20
79.5996994338225647
 30
0.0
  0
VERTEX
  5
9A3
  8
0
 62
     0
 10
322.5353787999999895
 20
76.3390765338225776
 30
0.0
  0
VERTEX
  5
9A4
  8
0
 62
     0
 10
313.5707365000000095
 20
76.3390765338225776
 30
0.0
  0
VERTEX
  5
9A5
  8
0
 62
     0
 10
313.5707365000000095
 20
79.5996994338225647
 30
0.0
  0
VERTEX
  5
9A6
  8
0
 62
     0
 10
304.6005723999999759
 20
79.5996994338225647
 30
0.0
  0
VERTEX
  5
9A7
  8
0
 62
     0
 10
304.6005723999999759
 20
85.5792566538225543
 30
0.0
  0
VERTEX
  5
9A8
  8
0
 62
     0
 10
307.8611953000000199
 20
85.5792566538225543
 30
0.0
  0
VERTEX
  5
9A9
  8
0
 62
     0
 10
307.8611953000000199
 20
94.8183324138225601
 30
0.0
  0
VERTEX
  5
9AA
  8
0
 62
     0
 10
304.6005723999999759
 20
94.8183324138225601
 30
0.0
  0
VERTEX
  5
9AB
  8
0
 62
     0
 10
304.6005723999999759
 20
101.3401303938225055
 30
0.0
  0
VERTEX
  5
9AC
  8
0
 62
     0
 10
307.8611953000000199
 20
101.3401303938225055
 30
0.0
  0
VERTEX
  5
9AD
  8
0
 62
     0
 10
307.8611953000000199
 20
110.5792061538224971
 30
0.0
  0
VERTEX
  5
9AE
  8
0
 62
     0
 10
304.6005723999999759
 20
110.5792061538224971
 30
0.0
  0
VERTEX
  5
9AF
  8
0
 62
     0
 10
304.6005723999999759
 20
116.5571068338225018
 30
0.0
  0
VERTEX
  5
9B0
  8
0
 62
     0
 10
313.5707365000000095
 20
116.5571068338225018
 30
0.0
  0
VERTEX
  5
9B1
  8
0
 62
     0
 10
313.5707365000000095
 20
119.8180058238226025
 30
0.0
  0
VERTEX
  5
9B2
  8
0
 62
     0
 10
316.0417419999999993
 20
119.8180058238226025
 30
0.0
  0
VERTEX
  5
9B3
  8
0
 62
     0
 10
316.0417419999999993
 20
115.796202793822502
 30
0.0
  0
VERTEX
  5
9B4
  8
0
 62
     0
 10
320.0643733000001134
 20
115.796202793822502
 30
0.0
  0
VERTEX
  5
9B5
  8
0
 62
     0
 10
320.0643733000001134
 20
119.8180058238226025
 30
0.0
  0
VERTEX
  5
9B6
  8
0
 62
     0
 10
322.5353787999999895
 20
119.8180058238226025
 30
0.0
  0
VERTEX
  5
9B7
  8
0
 62
     0
 10
322.5353787999999895
 20
116.5571068338225018
 30
0.0
  0
VERTEX
  5
9B8
  8
0
 62
     0
 10
329.0566246000000206
 20
116.5571068338225018
 30
0.0
  0
VERTEX
  5
9B9
  8
0
 62
     0
 10
329.0566246000000206
 20
119.8180058238226025
 30
0.0
  0
VERTEX
  5
9BA
  8
0
 62
     0
 10
335.5806312999999932
 20
119.8180058238226025
 30
0.0
  0
VERTEX
  5
9BB
  8
0
 62
     0
 10
335.5806312999999932
 20
116.5571068338225018
 30
0.0
  0
VERTEX
  5
9BC
  8
0
 62
     0
 10
342.1018771000000243
 20
116.5571068338225018
 30
0.0
  0
VERTEX
  5
9BD
  8
0
 62
     0
 10
342.1018771000000243
 20
119.8180058238226025
 30
0.0
  0
VERTEX
  5
9BE
  8
0
 62
     0
 10
348.6231229000001122
 20
119.8180058238226025
 30
0.0
  0
VERTEX
  5
9BF
  8
0
 62
     0
 10
348.6231229000001122
 20
116.5571068338225018
 30
0.0
  0
VERTEX
  5
9C0
  8
0
 62
     0
 10
355.1443686999999727
 20
116.5571068338225018
 30
0.0
  0
VERTEX
  5
9C1
  8
0
 62
     0
 10
355.1443686999999727
 20
119.8180058238226025
 30
0.0
  0
VERTEX
  5
9C2
  8
0
 62
     0
 10
361.6683754000001159
 20
119.8180058238226025
 30
0.0
  0
VERTEX
  5
9C3
  8
0
 62
     0
 10
361.6683754000001159
 20
116.5571068338225018
 30
0.0
  0
VERTEX
  5
9C4
  8
0
 62
     0
 10
368.1896211999999764
 20
116.5571068338225018
 30
0.0
  0
VERTEX
  5
9C5
  8
0
 62
     0
 10
368.1896211999999764
 20
119.8180058238226025
 30
0.0
  0
VERTEX
  5
9C6
  8
0
 62
     0
 10
370.660626700000023
 20
119.8180058238226025
 30
0.0
  0
VERTEX
  5
9C7
  8
0
 62
     0
 10
370.660626700000023
 20
115.796202793822502
 30
0.0
  0
VERTEX
  5
9C8
  8
0
 62
     0
 10
374.6832580000000803
 20
115.796202793822502
 30
0.0
  0
VERTEX
  5
9C9
  8
0
 62
     0
 10
374.6832580000000803
 20
119.8180058238226025
 30
0.0
  0
VERTEX
  5
9CA
  8
0
 62
     0
 10
377.1570244000001253
 20
119.8180058238226025
 30
0.0
  0
VERTEX
  5
9CB
  8
0
 62
     0
 10
377.1570244000001253
 20
116.5571068338225018
 30
0.0
  0
SEQEND
  5
9CC
  8
0
 62
     0
  0
POLYLINE
  5
6FB
  8
0
 62
     0
 66
     1
 10
0.0
 20
0.0
 30
0.0
 70
     1
  0
VERTEX
  5
9CD
  8
0
 62
     0
 10
0.25
 20
72.9251694290716159
 30
0.0
  0
VERTEX
  5
9CE
  8
0
 62
     0
 10
0.25
 20
72.9251694290716159
 30
0.0
  0
VERTEX
  5
9CF
  8
0
 62
     0
 10
0.25
 20
67.2183891290716247
 30
0.0
  0
VERTEX
  5
9D0
  8
0
 62
     0
 10
3.5108989899999989
 20
67.2183891290716247
 30
0.0
  0
VERTEX
  5
9D1
  8
0
 62
     0
 10
3.5108989899999989
 20
58.2520902890716314
 30
0.0
  0
VERTEX
  5
9D2
  8
0
 62
     0
 10
0.25
 20
58.2520902890716314
 30
0.0
  0
VERTEX
  5
9D3
  8
0
 62
     0
 10
0.25
 20
51.730292309071622
 30
0.0
  0
VERTEX
  5
9D4
  8
0
 62
     0
 10
3.5108989899999989
 20
51.730292309071622
 30
0.0
  0
VERTEX
  5
9D5
  8
0
 62
     0
 10
3.5108989899999989
 20
45.2082182390716127
 30
0.0
  0
VERTEX
  5
9D6
  8
0
 62
     0
 10
0.25
 20
45.2082182390716127
 30
0.0
  0
VERTEX
  5
9D7
  8
0
 62
     0
 10
0.25
 20
38.6864202590716317
 30
0.0
  0
VERTEX
  5
9D8
  8
0
 62
     0
 10
3.5108989899999989
 20
38.6864202590716317
 30
0.0
  0
VERTEX
  5
9D9
  8
0
 62
     0
 10
3.5108989899999989
 20
32.1648983690716292
 30
0.0
  0
VERTEX
  5
9DA
  8
0
 62
     0
 10
0.25
 20
32.1648983690716292
 30
0.0
  0
VERTEX
  5
9DB
  8
0
 62
     0
 10
0.25
 20
25.6431003890716305
 30
0.0
  0
VERTEX
  5
9DC
  8
0
 62
     0
 10
3.5108989899999989
 20
25.6431003890716305
 30
0.0
  0
VERTEX
  5
9DD
  8
0
 62
     0
 10
3.5108989899999989
 20
19.121302409071621
 30
0.0
  0
VERTEX
  5
9DE
  8
0
 62
     0
 10
0.25
 20
19.121302409071621
 30
0.0
  0
VERTEX
  5
9DF
  8
0
 62
     0
 10
0.25
 20
12.5994768200716294
 30
0.0
  0
VERTEX
  5
9E0
  8
0
 62
     0
 10
3.5108989899999989
 20
12.5994768200716294
 30
0.0
  0
VERTEX
  5
9E1
  8
0
 62
     0
 10
3.5108989899999989
 20
3.631604267071622
 30
0.0
  0
VERTEX
  5
9E2
  8
0
 62
     0
 10
0.25
 20
3.631604267071622
 30
0.0
  0
VERTEX
  5
9E3
  8
0
 62
     0
 10
0.25
 20
-2.075341686928375
 30
0.0
  0
VERTEX
  5
9E4
  8
0
 62
     0
 10
10.5764286159999994
 20
-2.075341686928375
 30
0.0
  0
VERTEX
  5
9E5
  8
0
 62
     0
 10
10.5764286159999994
 20
-5.3362130679283757
 30
0.0
  0
VERTEX
  5
9E6
  8
0
 62
     0
 10
20.9028296229999917
 20
-5.3362130679283757
 30
0.0
  0
VERTEX
  5
9E7
  8
0
 62
     0
 10
20.9028296229999917
 20
-2.075341686928375
 30
0.0
  0
VERTEX
  5
9E8
  8
0
 62
     0
 10
27.4247104300000011
 20
-2.075341686928375
 30
0.0
  0
VERTEX
  5
9E9
  8
0
 62
     0
 10
27.4247104300000011
 20
-5.3362130679283757
 30
0.0
  0
VERTEX
  5
9EA
  8
0
 62
     0
 10
33.9465084099999999
 20
-5.3362130679283757
 30
0.0
  0
VERTEX
  5
9EB
  8
0
 62
     0
 10
33.9465084099999999
 20
-2.075341686928375
 30
0.0
  0
VERTEX
  5
9EC
  8
0
 62
     0
 10
40.4683063900000022
 20
-2.075341686928375
 30
0.0
  0
VERTEX
  5
9ED
  8
0
 62
     0
 10
40.4683063900000022
 20
-5.3362130679283757
 30
0.0
  0
VERTEX
  5
9EE
  8
0
 62
     0
 10
46.9901043699999974
 20
-5.3362130679283757
 30
0.0
  0
VERTEX
  5
9EF
  8
0
 62
     0
 10
46.9901043699999974
 20
-2.075341686928375
 30
0.0
  0
VERTEX
  5
9F0
  8
0
 62
     0
 10
53.5116262599999999
 20
-2.075341686928375
 30
0.0
  0
VERTEX
  5
9F1
  8
0
 62
     0
 10
53.5116262599999999
 20
-5.3362130679283757
 30
0.0
  0
VERTEX
  5
9F2
  8
0
 62
     0
 10
60.033424239999988
 20
-5.3362130679283757
 30
0.0
  0
VERTEX
  5
9F3
  8
0
 62
     0
 10
60.033424239999988
 20
-2.075341686928375
 30
0.0
  0
VERTEX
  5
9F4
  8
0
 62
     0
 10
66.5552222200000045
 20
-2.075341686928375
 30
0.0
  0
VERTEX
  5
9F5
  8
0
 62
     0
 10
66.5552222200000045
 20
-5.3362130679283757
 30
0.0
  0
VERTEX
  5
9F6
  8
0
 62
     0
 10
73.0772962900000067
 20
-5.3362130679283757
 30
0.0
  0
VERTEX
  5
9F7
  8
0
 62
     0
 10
73.0772962900000067
 20
-2.075341686928375
 30
0.0
  0
VERTEX
  5
9F8
  8
0
 62
     0
 10
79.599094270000009
 20
-2.075341686928375
 30
0.0
  0
VERTEX
  5
9F9
  8
0
 62
     0
 10
79.599094270000009
 20
-5.3362130679283757
 30
0.0
  0
VERTEX
  5
9FA
  8
0
 62
     0
 10
86.1208922500000114
 20
-5.3362130679283757
 30
0.0
  0
VERTEX
  5
9FB
  8
0
 62
     0
 10
86.1208922500000114
 20
-2.075341686928375
 30
0.0
  0
VERTEX
  5
9FC
  8
0
 62
     0
 10
92.6424141400000138
 20
-2.075341686928375
 30
0.0
  0
VERTEX
  5
9FD
  8
0
 62
     0
 10
92.6424141400000138
 20
-5.3362130679283757
 30
0.0
  0
VERTEX
  5
9FE
  8
0
 62
     0
 10
99.1642121200000304
 20
-5.3362130679283757
 30
0.0
  0
VERTEX
  5
9FF
  8
0
 62
     0
 10
99.1642121200000304
 20
-2.075341686928375
 30
0.0
  0
VERTEX
  5
A00
  8
0
 62
     0
 10
105.6860101000000043
 20
-2.075341686928375
 30
0.0
  0
VERTEX
  5
A01
  8
0
 62
     0
 10
105.6860101000000043
 20
-5.3362130679283757
 30
0.0
  0
VERTEX
  5
A02
  8
0
 62
     0
 10
112.2078080800000066
 20
-5.3362130679283757
 30
0.0
  0
VERTEX
  5
A03
  8
0
 62
     0
 10
112.2078080800000066
 20
-2.075341686928375
 30
0.0
  0
VERTEX
  5
A04
  8
0
 62
     0
 10
118.7298821499999946
 20
-2.075341686928375
 30
0.0
  0
VERTEX
  5
A05
  8
0
 62
     0
 10
118.7298821499999946
 20
-5.3362130679283757
 30
0.0
  0
VERTEX
  5
A06
  8
0
 62
     0
 10
125.2514040399999971
 20
-5.3362130679283757
 30
0.0
  0
VERTEX
  5
A07
  8
0
 62
     0
 10
125.2514040399999971
 20
-2.075341686928375
 30
0.0
  0
VERTEX
  5
A08
  8
0
 62
     0
 10
131.7732020200000136
 20
-2.075341686928375
 30
0.0
  0
VERTEX
  5
A09
  8
0
 62
     0
 10
131.7732020200000136
 20
-5.3362130679283757
 30
0.0
  0
VERTEX
  5
A0A
  8
0
 62
     0
 10
142.0997962900000005
 20
-5.3362130679283757
 30
0.0
  0
VERTEX
  5
A0B
  8
0
 62
     0
 10
142.0997962900000005
 20
-2.075341686928375
 30
0.0
  0
VERTEX
  5
A0C
  8
0
 62
     0
 10
152.4261144699999875
 20
-2.075341686928375
 30
0.0
  0
VERTEX
  5
A0D
  8
0
 62
     0
 10
152.4261144699999875
 20
3.631604267071622
 30
0.0
  0
VERTEX
  5
A0E
  8
0
 62
     0
 10
149.1652154800000005
 20
3.631604267071622
 30
0.0
  0
VERTEX
  5
A0F
  8
0
 62
     0
 10
149.1652154800000005
 20
12.5994768200716294
 30
0.0
  0
VERTEX
  5
A10
  8
0
 62
     0
 10
152.4261144699999875
 20
12.5994768200716294
 30
0.0
  0
VERTEX
  5
A11
  8
0
 62
     0
 10
152.4261144699999875
 20
19.121302409071621
 30
0.0
  0
VERTEX
  5
A12
  8
0
 62
     0
 10
149.1652154800000005
 20
19.121302409071621
 30
0.0
  0
VERTEX
  5
A13
  8
0
 62
     0
 10
149.1652154800000005
 20
25.6431003890716305
 30
0.0
  0
VERTEX
  5
A14
  8
0
 62
     0
 10
152.4261144699999875
 20
25.6431003890716305
 30
0.0
  0
VERTEX
  5
A15
  8
0
 62
     0
 10
152.4261144699999875
 20
32.1648983690716292
 30
0.0
  0
VERTEX
  5
A16
  8
0
 62
     0
 10
149.1652154800000005
 20
32.1648983690716292
 30
0.0
  0
VERTEX
  5
A17
  8
0
 62
     0
 10
149.1652154800000005
 20
38.6864202590716317
 30
0.0
  0
VERTEX
  5
A18
  8
0
 62
     0
 10
152.4261144699999875
 20
38.6864202590716317
 30
0.0
  0
VERTEX
  5
A19
  8
0
 62
     0
 10
152.4261144699999875
 20
45.2082182390716127
 30
0.0
  0
VERTEX
  5
A1A
  8
0
 62
     0
 10
149.1652154800000005
 20
45.2082182390716127
 30
0.0
  0
VERTEX
  5
A1B
  8
0
 62
     0
 10
149.1652154800000005
 20
51.730292309071622
 30
0.0
  0
VERTEX
  5
A1C
  8
0
 62
     0
 10
152.4261144699999875
 20
51.730292309071622
 30
0.0
  0
VERTEX
  5
A1D
  8
0
 62
     0
 10
152.4261144699999875
 20
58.2520902890716314
 30
0.0
  0
VERTEX
  5
A1E
  8
0
 62
     0
 10
149.1652154800000005
 20
58.2520902890716314
 30
0.0
  0
VERTEX
  5
A1F
  8
0
 62
     0
 10
149.1652154800000005
 20
67.2183891290716247
 30
0.0
  0
VERTEX
  5
A20
  8
0
 62
     0
 10
152.4261144699999875
 20
67.2183891290716247
 30
0.0
  0
VERTEX
  5
A21
  8
0
 62
     0
 10
152.4261144699999875
 20
72.9251694290716159
 30
0.0
  0
VERTEX
  5
A22
  8
0
 62
     0
 10
142.0997962900000005
 20
72.9251694290716159
 30
0.0
  0
VERTEX
  5
A23
  8
0
 62
     0
 10
142.0997962900000005
 20
76.1860684190716313
 30
0.0
  0
VERTEX
  5
A24
  8
0
 62
     0
 10
131.7732020200000136
 20
76.1860684190716313
 30
0.0
  0
VERTEX
  5
A25
  8
0
 62
     0
 10
131.7732020200000136
 20
72.9251694290716159
 30
0.0
  0
VERTEX
  5
A26
  8
0
 62
     0
 10
125.2514040399999971
 20
72.9251694290716159
 30
0.0
  0
VERTEX
  5
A27
  8
0
 62
     0
 10
125.2514040399999971
 20
76.1860684190716313
 30
0.0
  0
VERTEX
  5
A28
  8
0
 62
     0
 10
118.7298821499999946
 20
76.1860684190716313
 30
0.0
  0
VERTEX
  5
A29
  8
0
 62
     0
 10
118.7298821499999946
 20
72.9251694290716159
 30
0.0
  0
VERTEX
  5
A2A
  8
0
 62
     0
 10
112.2078080800000066
 20
72.9251694290716159
 30
0.0
  0
VERTEX
  5
A2B
  8
0
 62
     0
 10
112.2078080800000066
 20
76.1860684190716313
 30
0.0
  0
VERTEX
  5
A2C
  8
0
 62
     0
 10
105.6860101000000043
 20
76.1860684190716313
 30
0.0
  0
VERTEX
  5
A2D
  8
0
 62
     0
 10
105.6860101000000043
 20
72.9251694290716159
 30
0.0
  0
VERTEX
  5
A2E
  8
0
 62
     0
 10
99.1642121200000304
 20
72.9251694290716159
 30
0.0
  0
VERTEX
  5
A2F
  8
0
 62
     0
 10
99.1642121200000304
 20
76.1860684190716313
 30
0.0
  0
VERTEX
  5
A30
  8
0
 62
     0
 10
92.6424141400000138
 20
76.1860684190716313
 30
0.0
  0
VERTEX
  5
A31
  8
0
 62
     0
 10
92.6424141400000138
 20
72.9251694290716159
 30
0.0
  0
VERTEX
  5
A32
  8
0
 62
     0
 10
86.1208922500000114
 20
72.9251694290716159
 30
0.0
  0
VERTEX
  5
A33
  8
0
 62
     0
 10
86.1208922500000114
 20
76.1860684190716313
 30
0.0
  0
VERTEX
  5
A34
  8
0
 62
     0
 10
79.599094270000009
 20
76.1860684190716313
 30
0.0
  0
VERTEX
  5
A35
  8
0
 62
     0
 10
79.599094270000009
 20
72.9251694290716159
 30
0.0
  0
VERTEX
  5
A36
  8
0
 62
     0
 10
73.0772962900000067
 20
72.9251694290716159
 30
0.0
  0
VERTEX
  5
A37
  8
0
 62
     0
 10
73.0772962900000067
 20
76.1860684190716313
 30
0.0
  0
VERTEX
  5
A38
  8
0
 62
     0
 10
66.5552222200000045
 20
76.1860684190716313
 30
0.0
  0
VERTEX
  5
A39
  8
0
 62
     0
 10
66.5552222200000045
 20
72.9251694290716159
 30
0.0
  0
VERTEX
  5
A3A
  8
0
 62
     0
 10
60.033424239999988
 20
72.9251694290716159
 30
0.0
  0
VERTEX
  5
A3B
  8
0
 62
     0
 10
60.033424239999988
 20
76.1860684190716313
 30
0.0
  0
VERTEX
  5
A3C
  8
0
 62
     0
 10
53.5116262599999999
 20
76.1860684190716313
 30
0.0
  0
VERTEX
  5
A3D
  8
0
 62
     0
 10
53.5116262599999999
 20
72.9251694290716159
 30
0.0
  0
VERTEX
  5
A3E
  8
0
 62
     0
 10
46.9901043699999974
 20
72.9251694290716159
 30
0.0
  0
VERTEX
  5
A3F
  8
0
 62
     0
 10
46.9901043699999974
 20
76.1860684190716313
 30
0.0
  0
VERTEX
  5
A40
  8
0
 62
     0
 10
40.4683063900000022
 20
76.1860684190716313
 30
0.0
  0
VERTEX
  5
A41
  8
0
 62
     0
 10
40.4683063900000022
 20
72.9251694290716159
 30
0.0
  0
VERTEX
  5
A42
  8
0
 62
     0
 10
33.9465084099999999
 20
72.9251694290716159
 30
0.0
  0
VERTEX
  5
A43
  8
0
 62
     0
 10
33.9465084099999999
 20
76.1860684190716313
 30
0.0
  0
VERTEX
  5
A44
  8
0
 62
     0
 10
27.4247104300000011
 20
76.1860684190716313
 30
0.0
  0
VERTEX
  5
A45
  8
0
 62
     0
 10
27.4247104300000011
 20
72.9251694290716159
 30
0.0
  0
VERTEX
  5
A46
  8
0
 62
     0
 10
20.9028296229999917
 20
72.9251694290716159
 30
0.0
  0
VERTEX
  5
A47
  8
0
 62
     0
 10
20.9028296229999917
 20
76.1860684190716313
 30
0.0
  0
VERTEX
  5
A48
  8
0
 62
     0
 10
10.5764286159999994
 20
76.1860684190716313
 30
0.0
  0
VERTEX
  5
A49
  8
0
 62
     0
 10
10.5764286159999994
 20
72.9251694290716159
 30
0.0
  0
SEQEND
  5
A4A
  8
0
 62
     0
  0
POLYLINE
  5
706
  8
0
 62
     0
 66
     1
 10
0.0
 20
0.0
 30
0.0
 70
     1
  0
VERTEX
  5
A4B
  8
0
 62
     0
 10
386.1244276000001037
 20
36.1210462338225966
 30
0.0
  0
VERTEX
  5
A4C
  8
0
 62
     0
 10
386.1244276000001037
 20
36.1210462338225966
 30
0.0
  0
VERTEX
  5
A4D
  8
0
 62
     0
 10
386.1244276000001037
 20
42.0989469138225871
 30
0.0
  0
VERTEX
  5
A4E
  8
0
 62
     0
 10
382.8638047000000029
 20
42.0989469138225871
 30
0.0
  0
VERTEX
  5
A4F
  8
0
 62
     0
 10
382.8638047000000029
 20
51.3380226738225787
 30
0.0
  0
VERTEX
  5
A50
  8
0
 62
     0
 10
386.1244276000001037
 20
51.3380226738225787
 30
0.0
  0
VERTEX
  5
A51
  8
0
 62
     0
 10
386.1244276000001037
 20
57.8598206538225881
 30
0.0
  0
VERTEX
  5
A52
  8
0
 62
     0
 10
382.8638047000000029
 20
57.8598206538225881
 30
0.0
  0
VERTEX
  5
A53
  8
0
 62
     0
 10
382.8638047000000029
 20
67.0988964138225867
 30
0.0
  0
VERTEX
  5
A54
  8
0
 62
     0
 10
386.1244276000001037
 20
67.0988964138225867
 30
0.0
  0
VERTEX
  5
A55
  8
0
 62
     0
 10
386.1244276000001037
 20
73.0784536338225905
 30
0.0
  0
VERTEX
  5
A56
  8
0
 62
     0
 10
377.1570244000001253
 20
73.0784536338225905
 30
0.0
  0
VERTEX
  5
A57
  8
0
 62
     0
 10
377.1570244000001253
 20
76.3390765338225776
 30
0.0
  0
VERTEX
  5
A58
  8
0
 62
     0
 10
368.1896211999999764
 20
76.3390765338225776
 30
0.0
  0
VERTEX
  5
A59
  8
0
 62
     0
 10
368.1896211999999764
 20
73.0784536338225905
 30
0.0
  0
VERTEX
  5
A5A
  8
0
 62
     0
 10
361.6683754000001159
 20
73.0784536338225905
 30
0.0
  0
VERTEX
  5
A5B
  8
0
 62
     0
 10
361.6683754000001159
 20
76.3390765338225776
 30
0.0
  0
VERTEX
  5
A5C
  8
0
 62
     0
 10
355.1443686999999727
 20
76.3390765338225776
 30
0.0
  0
VERTEX
  5
A5D
  8
0
 62
     0
 10
355.1443686999999727
 20
73.0784536338225905
 30
0.0
  0
VERTEX
  5
A5E
  8
0
 62
     0
 10
348.6231229000001122
 20
73.0784536338225905
 30
0.0
  0
VERTEX
  5
A5F
  8
0
 62
     0
 10
348.6231229000001122
 20
76.3390765338225776
 30
0.0
  0
VERTEX
  5
A60
  8
0
 62
     0
 10
342.1018771000000243
 20
76.3390765338225776
 30
0.0
  0
VERTEX
  5
A61
  8
0
 62
     0
 10
342.1018771000000243
 20
73.0784536338225905
 30
0.0
  0
VERTEX
  5
A62
  8
0
 62
     0
 10
335.5806312999999932
 20
73.0784536338225905
 30
0.0
  0
VERTEX
  5
A63
  8
0
 62
     0
 10
335.5806312999999932
 20
76.3390765338225776
 30
0.0
  0
VERTEX
  5
A64
  8
0
 62
     0
 10
329.0566246000000206
 20
76.3390765338225776
 30
0.0
  0
VERTEX
  5
A65
  8
0
 62
     0
 10
329.0566246000000206
 20
73.0784536338225905
 30
0.0
  0
VERTEX
  5
A66
  8
0
 62
     0
 10
322.5353787999999895
 20
73.0784536338225905
 30
0.0
  0
VERTEX
  5
A67
  8
0
 62
     0
 10
322.5353787999999895
 20
76.3390765338225776
 30
0.0
  0
VERTEX
  5
A68
  8
0
 62
     0
 10
313.5707365000000095
 20
76.3390765338225776
 30
0.0
  0
VERTEX
  5
A69
  8
0
 62
     0
 10
313.5707365000000095
 20
73.0784536338225905
 30
0.0
  0
VERTEX
  5
A6A
  8
0
 62
     0
 10
304.6005723999999759
 20
73.0784536338225905
 30
0.0
  0
VERTEX
  5
A6B
  8
0
 62
     0
 10
304.6005723999999759
 20
67.0988964138225867
 30
0.0
  0
VERTEX
  5
A6C
  8
0
 62
     0
 10
307.8611953000000199
 20
67.0988964138225867
 30
0.0
  0
VERTEX
  5
A6D
  8
0
 62
     0
 10
307.8611953000000199
 20
57.8598206538225881
 30
0.0
  0
VERTEX
  5
A6E
  8
0
 62
     0
 10
304.6005723999999759
 20
57.8598206538225881
 30
0.0
  0
VERTEX
  5
A6F
  8
0
 62
     0
 10
304.6005723999999759
 20
51.3380226738225787
 30
0.0
  0
VERTEX
  5
A70
  8
0
 62
     0
 10
307.8611953000000199
 20
51.3380226738225787
 30
0.0
  0
VERTEX
  5
A71
  8
0
 62
     0
 10
307.8611953000000199
 20
42.0989469138225871
 30
0.0
  0
VERTEX
  5
A72
  8
0
 62
     0
 10
304.6005723999999759
 20
42.0989469138225871
 30
0.0
  0
VERTEX
  5
A73
  8
0
 62
     0
 10
304.6005723999999759
 20
36.1210462338225966
 30
0.0
  0
VERTEX
  5
A74
  8
0
 62
     0
 10
313.5707365000000095
 20
36.1210462338225966
 30
0.0
  0
VERTEX
  5
A75
  8
0
 62
     0
 10
313.5707365000000095
 20
32.8601472438225812
 30
0.0
  0
VERTEX
  5
A76
  8
0
 62
     0
 10
316.0417419999999993
 20
32.8601472438225812
 30
0.0
  0
VERTEX
  5
A77
  8
0
 62
     0
 10
316.0417419999999993
 20
36.8819502738225822
 30
0.0
  0
VERTEX
  5
A78
  8
0
 62
     0
 10
320.0643733000001134
 20
36.8819502738225822
 30
0.0
  0
VERTEX
  5
A79
  8
0
 62
     0
 10
320.0643733000001134
 20
32.8601472438225812
 30
0.0
  0
VERTEX
  5
A7A
  8
0
 62
     0
 10
322.5353787999999895
 20
32.8601472438225812
 30
0.0
  0
VERTEX
  5
A7B
  8
0
 62
     0
 10
322.5353787999999895
 20
36.1210462338225966
 30
0.0
  0
VERTEX
  5
A7C
  8
0
 62
     0
 10
329.0566246000000206
 20
36.1210462338225966
 30
0.0
  0
VERTEX
  5
A7D
  8
0
 62
     0
 10
329.0566246000000206
 20
32.8601472438225812
 30
0.0
  0
VERTEX
  5
A7E
  8
0
 62
     0
 10
335.5806312999999932
 20
32.8601472438225812
 30
0.0
  0
VERTEX
  5
A7F
  8
0
 62
     0
 10
335.5806312999999932
 20
36.1210462338225966
 30
0.0
  0
VERTEX
  5
A80
  8
0
 62
     0
 10
342.1018771000000243
 20
36.1210462338225966
 30
0.0
  0
VERTEX
  5
A81
  8
0
 62
     0
 10
342.1018771000000243
 20
32.8601472438225812
 30
0.0
  0
VERTEX
  5
A82
  8
0
 62
     0
 10
348.6231229000001122
 20
32.8601472438225812
 30
0.0
  0
VERTEX
  5
A83
  8
0
 62
     0
 10
348.6231229000001122
 20
36.1210462338225966
 30
0.0
  0
VERTEX
  5
A84
  8
0
 62
     0
 10
355.1443686999999727
 20
36.1210462338225966
 30
0.0
  0
VERTEX
  5
A85
  8
0
 62
     0
 10
355.1443686999999727
 20
32.8601472438225812
 30
0.0
  0
VERTEX
  5
A86
  8
0
 62
     0
 10
361.6683754000001159
 20
32.8601472438225812
 30
0.0
  0
VERTEX
  5
A87
  8
0
 62
     0
 10
361.6683754000001159
 20
36.1210462338225966
 30
0.0
  0
VERTEX
  5
A88
  8
0
 62
     0
 10
368.1896211999999764
 20
36.1210462338225966
 30
0.0
  0
VERTEX
  5
A89
  8
0
 62
     0
 10
368.1896211999999764
 20
32.8601472438225812
 30
0.0
  0
VERTEX
  5
A8A
  8
0
 62
     0
 10
370.660626700000023
 20
32.8601472438225812
 30
0.0
  0
VERTEX
  5
A8B
  8
0
 62
     0
 10
370.660626700000023
 20
36.8819502738225822
 30
0.0
  0
VERTEX
  5
A8C
  8
0
 62
     0
 10
374.6832580000000803
 20
36.8819502738225822
 30
0.0
  0
VERTEX
  5
A8D
  8
0
 62
     0
 10
374.6832580000000803
 20
32.8601472438225812
 30
0.0
  0
VERTEX
  5
A8E
  8
0
 62
     0
 10
377.1570244000001253
 20
32.8601472438225812
 30
0.0
  0
VERTEX
  5
A8F
  8
0
 62
     0
 10
377.1570244000001253
 20
36.1210462338225966
 30
0.0
  0
SEQEND
  5
A90
  8
0
 62
     0
  0
POLYLINE
  5
717
  8
0
  6
CONTINUOUS
 66
     1
 10
0.0
 20
0.0
 30
0.0
 70
     1
  0
VERTEX
  5
A91
  8
0
  6
CONTINUOUS
 10
354.8625000000001251
 20
83.5996994338225647
 30
0.0
  0
VERTEX
  5
A92
  8
0
  6
CONTINUOUS
 10
370.8625000000001251
 20
83.5996994338225647
 30
0.0
  0
VERTEX
  5
A93
  8
0
  6
CONTINUOUS
 10
370.8625000000001251
 20
100.5996994338224937
 30
0.0
  0
VERTEX
  5
A94
  8
0
  6
CONTINUOUS
 10
354.8625000000001251
 20
100.5996994338224937
 30
0.0
  0
SEQEND
  5
A95
  8
0
  6
CONTINUOUS
  0
POLYLINE
  5
719
  8
0
  6
CONTINUOUS
 66
     1
 10
0.0
 20
0.0
 30
0.0
 70
     1
  0
VERTEX
  5
A96
  8
0
  6
CONTINUOUS
 10
334.8625000000001251
 20
100.5996994338224937
 30
0.0
  0
VERTEX
  5
A97
  8
0
  6
CONTINUOUS
 10
317.8625000000001251
 20
100.5996994338224937
 30
0.0
  0
VERTEX
  5
A98
  8
0
  6
CONTINUOUS
 10
317.8625000000001251
 20
83.5996994338225647
 30
0.0
  0
VERTEX
  5
A99
  8
0
  6
CONTINUOUS
 10
334.8625000000001251
 20
83.5996994338225647
 30
0.0
  0
SEQEND
  5
A9A
  8
0
  6
CONTINUOUS
  0
POLYLINE
  5
71A
  8
0
  6
CONTINUOUS
 66
     1
 10
0.0
 20
0.0
 30
0.0
 70
     1
  0
VERTEX
  5
A9B
  8
0
  6
CONTINUOUS
 10
336.8625000000001251
 20
100.5996994338224937
 30
0.0
  0
VERTEX
  5
A9C
  8
0
  6
CONTINUOUS
 10
336.8625000000001251
 20
83.5996994338225647
 30
0.0
  0
VERTEX
  5
A9D
  8
0
  6
CONTINUOUS
 10
352.8625000000001251
 20
83.5996994338225647
 30
0.0
  0
VERTEX
  5
A9E
  8
0
  6
CONTINUOUS
 10
352.8625000000001251
 20
100.5996994338224937
 30
0.0
  0
SEQEND
  5
A9F
  8
0
  6
CONTINUOUS
  0
CIRCLE
  5
765
  8
0
  6
CONTINUOUS
 10
28.75
 20
60.4256593140716234
 30
0.0
 40
1.55
  0
CIRCLE
  5
766
  8
0
  6
CONTINUOUS
 10
86.75
 20
60.4256593140716234
 30
0.0
 40
1.55
  0
CIRCLE
  5
767
  8
0
  6
CONTINUOUS
 10
28.75
 20
10.4256593140716802
 30
0.0
 40
1.55
  0
CIRCLE
  5
768
  8
0
  6
CONTINUOUS
 10
86.75
 20
10.4256593140716802
 30
0.0
 40
1.55
  0
CIRCLE
  5
769
  8
0
  6
CONTINUOUS
 10
106.75
 20
7.4256593140716234
 30
0.0
 40
1.55
  0
CIRCLE
  5
76A
  8
0
  6
CONTINUOUS
 10
141.75
 20
42.4256593140716234
 30
0.0
 40
1.55
  0
CIRCLE
  5
76B
  8
0
  6
CONTINUOUS
 10
35.75
 20
35.4256593140716305
 30
0.0
 40
2.5
  0
CIRCLE
  5
76C
  8
0
  6
CONTINUOUS
 10
100.75
 20
35.4256593140716305
 30
0.0
 40
2.5
  0
POLYLINE
  5
77E
  8
0
 62
     0
 66
     1
 10
0.0
 20
0.0
 30
0.0
 70
     1
  0
VERTEX
  5
AA0
  8
0
 62
     0
 10
155.6869030239998892
 20
119.8180058238226025
 30
0.0
  0
VERTEX
  5
AA1
  8
0
 62
     0
 10
155.6869030239998892
 20
119.8180058238226025
 30
0.0
  0
VERTEX
  5
AA2
  8
0
 62
     0
 10
155.6869030239998892
 20
110.5789300638225967
 30
0.0
  0
VERTEX
  5
AA3
  8
0
 62
     0
 10
152.4260040339999875
 20
110.5789300638225967
 30
0.0
  0
VERTEX
  5
AA4
  8
0
 62
     0
 10
152.4260040339999875
 20
101.3401303938225055
 30
0.0
  0
VERTEX
  5
AA5
  8
0
 62
     0
 10
155.6869030239998892
 20
101.3401303938225055
 30
0.0
  0
VERTEX
  5
AA6
  8
0
 62
     0
 10
155.6869030239998892
 20
94.8183324138225743
 30
0.0
  0
VERTEX
  5
AA7
  8
0
 62
     0
 10
152.4260040339999875
 20
94.8183324138225743
 30
0.0
  0
VERTEX
  5
AA8
  8
0
 62
     0
 10
152.4260040339999875
 20
85.5778762038225835
 30
0.0
  0
VERTEX
  5
AA9
  8
0
 62
     0
 10
155.6869030239998892
 20
85.5778762038225835
 30
0.0
  0
VERTEX
  5
AAA
  8
0
 62
     0
 10
155.6869030239998892
 20
76.338800443822592
 30
0.0
  0
VERTEX
  5
AAB
  8
0
 62
     0
 10
162.7524326500000029
 20
76.338800443822592
 30
0.0
  0
VERTEX
  5
AAC
  8
0
 62
     0
 10
162.7524326500000029
 20
79.599699433822579
 30
0.0
  0
VERTEX
  5
AAD
  8
0
 62
     0
 10
173.0788336569999899
 20
79.599699433822579
 30
0.0
  0
VERTEX
  5
AAE
  8
0
 62
     0
 10
173.0788336569999899
 20
76.338800443822592
 30
0.0
  0
VERTEX
  5
AAF
  8
0
 62
     0
 10
179.6007144639999922
 20
76.338800443822592
 30
0.0
  0
VERTEX
  5
AB0
  8
0
 62
     0
 10
179.6007144639999922
 20
79.599699433822579
 30
0.0
  0
VERTEX
  5
AB1
  8
0
 62
     0
 10
186.1225124439999945
 20
79.599699433822579
 30
0.0
  0
VERTEX
  5
AB2
  8
0
 62
     0
 10
186.1225124439999945
 20
76.338800443822592
 30
0.0
  0
VERTEX
  5
AB3
  8
0
 62
     0
 10
192.6443104239999968
 20
76.338800443822592
 30
0.0
  0
VERTEX
  5
AB4
  8
0
 62
     0
 10
192.6443104239999968
 20
79.599699433822579
 30
0.0
  0
VERTEX
  5
AB5
  8
0
 62
     0
 10
199.1661084039999992
 20
79.599699433822579
 30
0.0
  0
VERTEX
  5
AB6
  8
0
 62
     0
 10
199.1661084039999992
 20
76.338800443822592
 30
0.0
  0
VERTEX
  5
AB7
  8
0
 62
     0
 10
205.6876302940000016
 20
76.338800443822592
 30
0.0
  0
VERTEX
  5
AB8
  8
0
 62
     0
 10
205.6876302940000016
 20
79.599699433822579
 30
0.0
  0
VERTEX
  5
AB9
  8
0
 62
     0
 10
212.209428274000004
 20
79.599699433822579
 30
0.0
  0
VERTEX
  5
ABA
  8
0
 62
     0
 10
212.209428274000004
 20
76.338800443822592
 30
0.0
  0
VERTEX
  5
ABB
  8
0
 62
     0
 10
218.7312262540000063
 20
76.338800443822592
 30
0.0
  0
VERTEX
  5
ABC
  8
0
 62
     0
 10
218.7312262540000063
 20
79.599699433822579
 30
0.0
  0
VERTEX
  5
ABD
  8
0
 62
     0
 10
225.2533003240000085
 20
79.599699433822579
 30
0.0
  0
VERTEX
  5
ABE
  8
0
 62
     0
 10
225.2533003240000085
 20
76.338800443822592
 30
0.0
  0
VERTEX
  5
ABF
  8
0
 62
     0
 10
231.7750983040000108
 20
76.338800443822592
 30
0.0
  0
VERTEX
  5
AC0
  8
0
 62
     0
 10
231.7750983040000108
 20
79.599699433822579
 30
0.0
  0
VERTEX
  5
AC1
  8
0
 62
     0
 10
238.2968962840000131
 20
79.599699433822579
 30
0.0
  0
VERTEX
  5
AC2
  8
0
 62
     0
 10
238.2968962840000131
 20
76.338800443822592
 30
0.0
  0
VERTEX
  5
AC3
  8
0
 62
     0
 10
244.8184181739999872
 20
76.338800443822592
 30
0.0
  0
VERTEX
  5
AC4
  8
0
 62
     0
 10
244.8184181739999872
 20
79.599699433822579
 30
0.0
  0
VERTEX
  5
AC5
  8
0
 62
     0
 10
251.3402161539999895
 20
79.599699433822579
 30
0.0
  0
VERTEX
  5
AC6
  8
0
 62
     0
 10
251.3402161539999895
 20
76.338800443822592
 30
0.0
  0
VERTEX
  5
AC7
  8
0
 62
     0
 10
257.8620141339999918
 20
76.338800443822592
 30
0.0
  0
VERTEX
  5
AC8
  8
0
 62
     0
 10
257.8620141339999918
 20
79.599699433822579
 30
0.0
  0
VERTEX
  5
AC9
  8
0
 62
     0
 10
264.3838121139999089
 20
79.599699433822579
 30
0.0
  0
VERTEX
  5
ACA
  8
0
 62
     0
 10
264.3838121139999089
 20
76.338800443822592
 30
0.0
  0
VERTEX
  5
ACB
  8
0
 62
     0
 10
270.9058861839999963
 20
76.338800443822592
 30
0.0
  0
VERTEX
  5
ACC
  8
0
 62
     0
 10
270.9058861839999963
 20
79.599699433822579
 30
0.0
  0
VERTEX
  5
ACD
  8
0
 62
     0
 10
277.4274080740000272
 20
79.599699433822579
 30
0.0
  0
VERTEX
  5
ACE
  8
0
 62
     0
 10
277.4274080740000272
 20
76.338800443822592
 30
0.0
  0
VERTEX
  5
ACF
  8
0
 62
     0
 10
283.9492060540000011
 20
76.338800443822592
 30
0.0
  0
VERTEX
  5
AD0
  8
0
 62
     0
 10
283.9492060540000011
 20
79.599699433822579
 30
0.0
  0
VERTEX
  5
AD1
  8
0
 62
     0
 10
294.275800323999988
 20
79.599699433822579
 30
0.0
  0
VERTEX
  5
AD2
  8
0
 62
     0
 10
294.275800323999988
 20
76.338800443822592
 30
0.0
  0
VERTEX
  5
AD3
  8
0
 62
     0
 10
301.3412195139999881
 20
76.338800443822592
 30
0.0
  0
VERTEX
  5
AD4
  8
0
 62
     0
 10
301.3412195139999881
 20
85.5778762038225835
 30
0.0
  0
VERTEX
  5
AD5
  8
0
 62
     0
 10
304.602118503999975
 20
85.5778762038225835
 30
0.0
  0
VERTEX
  5
AD6
  8
0
 62
     0
 10
304.602118503999975
 20
94.8183324138225743
 30
0.0
  0
VERTEX
  5
AD7
  8
0
 62
     0
 10
301.3412195139999881
 20
94.8183324138225743
 30
0.0
  0
VERTEX
  5
AD8
  8
0
 62
     0
 10
301.3412195139999881
 20
101.3401303938225055
 30
0.0
  0
VERTEX
  5
AD9
  8
0
 62
     0
 10
304.602118503999975
 20
101.3401303938225055
 30
0.0
  0
VERTEX
  5
ADA
  8
0
 62
     0
 10
304.602118503999975
 20
110.5789300638225967
 30
0.0
  0
VERTEX
  5
ADB
  8
0
 62
     0
 10
301.3412195139999881
 20
110.5789300638225967
 30
0.0
  0
VERTEX
  5
ADC
  8
0
 62
     0
 10
301.3412195139999881
 20
119.8180058238226025
 30
0.0
  0
VERTEX
  5
ADD
  8
0
 62
     0
 10
294.275800323999988
 20
119.8180058238226025
 30
0.0
  0
VERTEX
  5
ADE
  8
0
 62
     0
 10
294.275800323999988
 20
116.5571068338225018
 30
0.0
  0
VERTEX
  5
ADF
  8
0
 62
     0
 10
290.7976185040000132
 20
116.5571068338225018
 30
0.0
  0
VERTEX
  5
AE0
  8
0
 62
     0
 10
290.7976185040000132
 20
114.2743947138226019
 30
0.0
  0
VERTEX
  5
AE1
  8
0
 62
     0
 10
292.156257394000022
 20
114.2743947138226019
 30
0.0
  0
VERTEX
  5
AE2
  8
0
 62
     0
 10
292.156257394000022
 20
111.557116933822499
 30
0.0
  0
VERTEX
  5
AE3
  8
0
 62
     0
 10
290.7976185040000132
 20
111.557116933822499
 30
0.0
  0
VERTEX
  5
AE4
  8
0
 62
     0
 10
290.7976185040000132
 20
108.8398391538225951
 30
0.0
  0
VERTEX
  5
AE5
  8
0
 62
     0
 10
287.4273878739999759
 20
108.8398391538225951
 30
0.0
  0
VERTEX
  5
AE6
  8
0
 62
     0
 10
287.4273878739999759
 20
111.557116933822499
 30
0.0
  0
VERTEX
  5
AE7
  8
0
 62
     0
 10
286.0690250740000238
 20
111.557116933822499
 30
0.0
  0
VERTEX
  5
AE8
  8
0
 62
     0
 10
286.0690250740000238
 20
114.2743947138226019
 30
0.0
  0
VERTEX
  5
AE9
  8
0
 62
     0
 10
287.4273878739999759
 20
114.2743947138226019
 30
0.0
  0
VERTEX
  5
AEA
  8
0
 62
     0
 10
287.4273878739999759
 20
116.5571068338225018
 30
0.0
  0
VERTEX
  5
AEB
  8
0
 62
     0
 10
283.9492060540000011
 20
116.5571068338225018
 30
0.0
  0
VERTEX
  5
AEC
  8
0
 62
     0
 10
283.9492060540000011
 20
119.8180058238226025
 30
0.0
  0
VERTEX
  5
AED
  8
0
 62
     0
 10
277.4274080740000272
 20
119.8180058238226025
 30
0.0
  0
VERTEX
  5
AEE
  8
0
 62
     0
 10
277.4274080740000272
 20
116.5571068338225018
 30
0.0
  0
VERTEX
  5
AEF
  8
0
 62
     0
 10
270.9058861839999963
 20
116.5571068338225018
 30
0.0
  0
VERTEX
  5
AF0
  8
0
 62
     0
 10
270.9058861839999963
 20
119.8180058238226025
 30
0.0
  0
VERTEX
  5
AF1
  8
0
 62
     0
 10
264.3838121139999089
 20
119.8180058238226025
 30
0.0
  0
VERTEX
  5
AF2
  8
0
 62
     0
 10
264.3838121139999089
 20
116.5571068338225018
 30
0.0
  0
VERTEX
  5
AF3
  8
0
 62
     0
 10
257.8620141339999918
 20
116.5571068338225018
 30
0.0
  0
VERTEX
  5
AF4
  8
0
 62
     0
 10
257.8620141339999918
 20
119.8180058238226025
 30
0.0
  0
VERTEX
  5
AF5
  8
0
 62
     0
 10
251.3402161539999895
 20
119.8180058238226025
 30
0.0
  0
VERTEX
  5
AF6
  8
0
 62
     0
 10
251.3402161539999895
 20
116.5571068338225018
 30
0.0
  0
VERTEX
  5
AF7
  8
0
 62
     0
 10
244.8184181739999872
 20
116.5571068338225018
 30
0.0
  0
VERTEX
  5
AF8
  8
0
 62
     0
 10
244.8184181739999872
 20
119.8180058238226025
 30
0.0
  0
VERTEX
  5
AF9
  8
0
 62
     0
 10
238.2968962840000131
 20
119.8180058238226025
 30
0.0
  0
VERTEX
  5
AFA
  8
0
 62
     0
 10
238.2968962840000131
 20
116.5571068338225018
 30
0.0
  0
VERTEX
  5
AFB
  8
0
 62
     0
 10
231.7750983040000108
 20
116.5571068338225018
 30
0.0
  0
VERTEX
  5
AFC
  8
0
 62
     0
 10
231.7750983040000108
 20
119.8180058238226025
 30
0.0
  0
VERTEX
  5
AFD
  8
0
 62
     0
 10
225.2533003240000085
 20
119.8180058238226025
 30
0.0
  0
VERTEX
  5
AFE
  8
0
 62
     0
 10
225.2533003240000085
 20
116.5571068338225018
 30
0.0
  0
VERTEX
  5
AFF
  8
0
 62
     0
 10
218.7312262540000063
 20
116.5571068338225018
 30
0.0
  0
VERTEX
  5
B00
  8
0
 62
     0
 10
218.7312262540000063
 20
119.8180058238226025
 30
0.0
  0
VERTEX
  5
B01
  8
0
 62
     0
 10
212.209428274000004
 20
119.8180058238226025
 30
0.0
  0
VERTEX
  5
B02
  8
0
 62
     0
 10
212.209428274000004
 20
116.5571068338225018
 30
0.0
  0
VERTEX
  5
B03
  8
0
 62
     0
 10
205.6876302940000016
 20
116.5571068338225018
 30
0.0
  0
VERTEX
  5
B04
  8
0
 62
     0
 10
205.6876302940000016
 20
119.8180058238226025
 30
0.0
  0
VERTEX
  5
B05
  8
0
 62
     0
 10
199.1661084039999992
 20
119.8180058238226025
 30
0.0
  0
VERTEX
  5
B06
  8
0
 62
     0
 10
199.1661084039999992
 20
116.5571068338225018
 30
0.0
  0
VERTEX
  5
B07
  8
0
 62
     0
 10
192.6443104239999968
 20
116.5571068338225018
 30
0.0
  0
VERTEX
  5
B08
  8
0
 62
     0
 10
192.6443104239999968
 20
119.8180058238226025
 30
0.0
  0
VERTEX
  5
B09
  8
0
 62
     0
 10
186.1225124439999945
 20
119.8180058238226025
 30
0.0
  0
VERTEX
  5
B0A
  8
0
 62
     0
 10
186.1225124439999945
 20
116.5571068338225018
 30
0.0
  0
VERTEX
  5
B0B
  8
0
 62
     0
 10
179.6007144639999922
 20
116.5571068338225018
 30
0.0
  0
VERTEX
  5
B0C
  8
0
 62
     0
 10
179.6007144639999922
 20
119.8180058238226025
 30
0.0
  0
VERTEX
  5
B0D
  8
0
 62
     0
 10
173.0788336569999899
 20
119.8180058238226025
 30
0.0
  0
VERTEX
  5
B0E
  8
0
 62
     0
 10
173.0788336569999899
 20
116.5571068338225018
 30
0.0
  0
VERTEX
  5
B0F
  8
0
 62
     0
 10
169.6007622729999866
 20
116.5571068338225018
 30
0.0
  0
VERTEX
  5
B10
  8
0
 62
     0
 10
169.6007622729999866
 20
114.2743947138226019
 30
0.0
  0
VERTEX
  5
B11
  8
0
 62
     0
 10
170.9593183359999955
 20
114.2743947138226019
 30
0.0
  0
VERTEX
  5
B12
  8
0
 62
     0
 10
170.9593183359999955
 20
111.557116933822499
 30
0.0
  0
VERTEX
  5
B13
  8
0
 62
     0
 10
169.6007622729999866
 20
111.557116933822499
 30
0.0
  0
VERTEX
  5
B14
  8
0
 62
     0
 10
169.6007622729999866
 20
108.8398391538225951
 30
0.0
  0
VERTEX
  5
B15
  8
0
 62
     0
 10
166.2305040339998925
 20
108.8398391538225951
 30
0.0
  0
VERTEX
  5
B16
  8
0
 62
     0
 10
166.2305040339998925
 20
111.557116933822499
 30
0.0
  0
VERTEX
  5
B17
  8
0
 62
     0
 10
164.8719203619999973
 20
111.557116933822499
 30
0.0
  0
VERTEX
  5
B18
  8
0
 62
     0
 10
164.8719203619999973
 20
114.2743947138226019
 30
0.0
  0
VERTEX
  5
B19
  8
0
 62
     0
 10
166.2305040339998925
 20
114.2743947138226019
 30
0.0
  0
VERTEX
  5
B1A
  8
0
 62
     0
 10
166.2305040339998925
 20
116.5571068338225018
 30
0.0
  0
VERTEX
  5
B1B
  8
0
 62
     0
 10
162.7524326500000029
 20
116.5571068338225018
 30
0.0
  0
VERTEX
  5
B1C
  8
0
 62
     0
 10
162.7524326500000029
 20
119.8180058238226025
 30
0.0
  0
SEQEND
  5
B1D
  8
0
 62
     0
  0
CIRCLE
  5
79D
  8
0
  6
CONTINUOUS
 10
106.75
 20
69.2950812241019634
 30
0.0
 40
1.5
  0
CIRCLE
  5
7A5
  8
0
  6
CONTINUOUS
 10
334.7868656261246088
 20
60.8390765338225776
 30
0.0
 40
5.0
  0
CIRCLE
  5
7B2
  8
0
  6
CONTINUOUS
 10
354.7868656261246088
 20
60.8390765338225776
 30
0.0
 40
5.0
  0
ENDSEC
  0
EOF
