  0
SECTION
  2
HEADER
  9
$ACADVER
  1
AC1009
  9
$INSBASE
 10
0.0
 20
0.0
 30
0.0
  9
$EXTMIN
 10
-491.6590930171836931
 20
-0.0000000000000293
 30
0.0
  9
$EXTMAX
 10
754.0
 20
197.0
 30
0.0
  9
$LIMMIN
 10
0.0
 20
0.0
  9
$LIMMAX
 10
12.0
 20
9.0
  9
$ORTHOMODE
 70
     0
  9
$REGENMODE
 70
     1
  9
$FILLMODE
 70
     1
  9
$QTEXTMODE
 70
     0
  9
$MIRRTEXT
 70
     0
  9
$DRAGMODE
 70
     2
  9
$LTSCALE
 40
1.0
  9
$OSMODE
 70
    39
  9
$ATTMODE
 70
     1
  9
$TEXTSIZE
 40
11.9497370457770504
  9
$TRACEWID
 40
0.05
  9
$TEXTSTYLE
  7
STANDARD
  9
$CLAYER
  8
0
  9
$CELTYPE
  6
BYLAYER
  9
$CECOLOR
 62
   256
  9
$DIMSCALE
 40
1.0
  9
$DIMASZ
 40
0.18
  9
$DIMEXO
 40
0.0625
  9
$DIMDLI
 40
0.38
  9
$DIMRND
 40
0.0
  9
$DIMDLE
 40
0.0
  9
$DIMEXE
 40
0.18
  9
$DIMTP
 40
0.0
  9
$DIMTM
 40
0.0
  9
$DIMTXT
 40
0.18
  9
$DIMCEN
 40
0.09
  9
$DIMTSZ
 40
0.0
  9
$DIMTOL
 70
     0
  9
$DIMLIM
 70
     0
  9
$DIMTIH
 70
     1
  9
$DIMTOH
 70
     1
  9
$DIMSE1
 70
     0
  9
$DIMSE2
 70
     0
  9
$DIMTAD
 70
     0
  9
$DIMZIN
 70
     0
  9
$DIMBLK
  1

  9
$DIMASO
 70
     1
  9
$DIMSHO
 70
     1
  9
$DIMPOST
  1

  9
$DIMAPOST
  1

  9
$DIMALT
 70
     0
  9
$DIMALTD
 70
     2
  9
$DIMALTF
 40
25.3999999999999986
  9
$DIMLFAC
 40
1.0
  9
$DIMTOFL
 70
     0
  9
$DIMTVP
 40
0.0
  9
$DIMTIX
 70
     0
  9
$DIMSOXD
 70
     0
  9
$DIMSAH
 70
     0
  9
$DIMBLK1
  1

  9
$DIMBLK2
  1

  9
$DIMSTYLE
  2
STANDARD
  9
$DIMCLRD
 70
     0
  9
$DIMCLRE
 70
     0
  9
$DIMCLRT
 70
     0
  9
$DIMTFAC
 40
1.0
  9
$DIMGAP
 40
0.09
  9
$LUNITS
 70
     2
  9
$LUPREC
 70
     4
  9
$SKETCHINC
 40
0.1
  9
$FILLETRAD
 40
0.0
  9
$AUNITS
 70
     0
  9
$AUPREC
 70
     0
  9
$MENU
  1
.
  9
$ELEVATION
 40
0.0
  9
$PELEVATION
 40
0.0
  9
$THICKNESS
 40
0.0
  9
$LIMCHECK
 70
     0
  9
$BLIPMODE
 70
     0
  9
$CHAMFERA
 40
0.0
  9
$CHAMFERB
 40
0.0
  9
$SKPOLY
 70
     0
  9
$TDCREATE
 40
2458722.5028819451108575
  9
$TDUPDATE
 40
2458724.4710185178555548
  9
$TDINDWG
 40
0.0399537037
  9
$TDUSRTIMER
 40
0.0399537037
  9
$USRTIMER
 70
     1
  9
$ANGBASE
 50
0.0
  9
$ANGDIR
 70
     0
  9
$PDMODE
 70
     0
  9
$PDSIZE
 40
0.0
  9
$PLINEWID
 40
0.0
  9
$COORDS
 70
     1
  9
$SPLFRAME
 70
     0
  9
$SPLINETYPE
 70
     6
  9
$SPLINESEGS
 70
     8
  9
$ATTDIA
 70
     1
  9
$ATTREQ
 70
     1
  9
$HANDLING
 70
     1
  9
$HANDSEED
  5
103D
  9
$SURFTAB1
 70
     6
  9
$SURFTAB2
 70
     6
  9
$SURFTYPE
 70
     6
  9
$SURFU
 70
     6
  9
$SURFV
 70
     6
  9
$UCSNAME
  2

  9
$UCSORG
 10
0.0
 20
0.0
 30
0.0
  9
$UCSXDIR
 10
1.0
 20
0.0
 30
0.0
  9
$UCSYDIR
 10
0.0
 20
1.0
 30
0.0
  9
$PUCSNAME
  2

  9
$PUCSORG
 10
0.0
 20
0.0
 30
0.0
  9
$PUCSXDIR
 10
1.0
 20
0.0
 30
0.0
  9
$PUCSYDIR
 10
0.0
 20
1.0
 30
0.0
  9
$USERI1
 70
     0
  9
$USERI2
 70
     0
  9
$USERI3
 70
     0
  9
$USERI4
 70
     0
  9
$USERI5
 70
     0
  9
$USERR1
 40
0.0
  9
$USERR2
 40
0.0
  9
$USERR3
 40
0.0
  9
$USERR4
 40
0.0
  9
$USERR5
 40
0.0
  9
$WORLDVIEW
 70
     1
  9
$SHADEDGE
 70
     3
  9
$SHADEDIF
 70
    70
  9
$TILEMODE
 70
     1
  9
$MAXACTVP
 70
    64
  9
$PLIMCHECK
 70
     0
  9
$PEXTMIN
 10
0.0
 20
0.0
 30
0.0
  9
$PEXTMAX
 10
0.0
 20
0.0
 30
0.0
  9
$PLIMMIN
 10
0.0
 20
0.0
  9
$PLIMMAX
 10
12.0
 20
9.0
  9
$UNITMODE
 70
     0
  9
$VISRETAIN
 70
     1
  9
$PLINEGEN
 70
     0
  9
$PSLTSCALE
 70
     1
  0
ENDSEC
  0
SECTION
  2
TABLES
  0
TABLE
  2
VPORT
 70
     1
  0
VPORT
  2
*ACTIVE
 70
     0
 10
0.0
 20
0.0
 11
1.0
 21
1.0
 12
776.462770547197124
 22
-159.0391311885935011
 13
0.0
 23
0.0
 14
0.5
 24
0.5
 15
0.5
 25
0.5
 16
0.0
 26
0.0
 36
1.0
 17
0.0
 27
0.0
 37
0.0
 40
2961.9321582464622225
 41
2.4578947368421051
 42
50.0
 43
0.0
 44
0.0
 50
0.0
 51
0.0
 71
     0
 72
  1000
 73
     1
 74
     3
 75
     0
 76
     1
 77
     0
 78
     0
  0
ENDTAB
  0
TABLE
  2
LTYPE
 70
     1
  0
LTYPE
  2
CONTINUOUS
 70
     0
  3
Solid line
 72
    65
 73
     0
 40
0.0
  0
ENDTAB
  0
TABLE
  2
LAYER
 70
     1
  0
LAYER
  2
0
 70
     0
 62
     7
  6
CONTINUOUS
  0
ENDTAB
  0
TABLE
  2
STYLE
 70
     2
  0
STYLE
  2
STANDARD
 70
     0
 40
0.0
 41
1.0
 50
0.0
 71
     0
 42
11.9497370457770504
  3
iso.shx
  4

  0
STYLE
  2
ANNOTATIVE
 70
     0
 40
0.0
 41
1.0
 50
0.0
 71
     0
 42
0.2
  3
txt
  4

  0
ENDTAB
  0
TABLE
  2
VIEW
 70
     0
  0
ENDTAB
  0
TABLE
  2
UCS
 70
     0
  0
ENDTAB
  0
TABLE
  2
APPID
 70
     8
  0
APPID
  2
ACAD
 70
     0
  0
APPID
  2
ACADANNOTATIVE
 70
     0
  0
APPID
  2
ACADANNOPO
 70
     0
  0
APPID
  2
ACAD_DSTYLE_DIMJAG
 70
     0
  0
APPID
  2
ACAD_DSTYLE_DIMTALN
 70
     0
  0
APPID
  2
ACAD_MLEADERVER
 70
     0
  0
APPID
  2
ACAD_NAV_VCDISPLAY
 70
     0
  0
APPID
  2
ACAD_EXEMPT_FROM_CAD_STANDARDS
 70
     0
  0
ENDTAB
  0
TABLE
  2
DIMSTYLE
 70
     2
  0
DIMSTYLE
  2
STANDARD
 70
     0
  3

  4

  5

  6

  7

 40
1.0
 41
0.18
 42
0.0625
 43
0.38
 44
0.18
 45
0.0
 46
0.0
 47
0.0
 48
0.0
140
0.18
141
0.09
142
0.0
143
25.3999999999999986
144
1.0
145
0.0
146
1.0
147
0.09
 71
     0
 72
     0
 73
     1
 74
     1
 75
     0
 76
     0
 77
     0
 78
     0
170
     0
171
     2
172
     0
173
     0
174
     0
175
     0
176
     0
177
     0
178
     0
  0
DIMSTYLE
  2
ANNOTATIVE
 70
     0
  3

  4

  5

  6

  7

 40
0.0
 41
0.18
 42
0.0625
 43
0.38
 44
0.18
 45
0.0
 46
0.0
 47
0.0
 48
0.0
140
0.18
141
0.09
142
0.0
143
25.3999999999999986
144
1.0
145
0.0
146
1.0
147
0.09
 71
     0
 72
     0
 73
     1
 74
     1
 75
     0
 76
     0
 77
     0
 78
     0
170
     0
171
     2
172
     0
173
     0
174
     0
175
     0
176
     0
177
     0
178
     0
  0
ENDTAB
  0
ENDSEC
  0
SECTION
  2
BLOCKS
  0
BLOCK
  8
0
  2
$MODEL_SPACE
 70
     0
 10
0.0
 20
0.0
 30
0.0
  3
$MODEL_SPACE
  1

  0
ENDBLK
  5
A82
  8
0
  0
BLOCK
 67
     1
  8
0
  2
$PAPER_SPACE
 70
     0
 10
0.0
 20
0.0
 30
0.0
  3
$PAPER_SPACE
  1

  0
ENDBLK
  5
A7E
 67
     1
  8
0
  0
BLOCK
  8
0
  2
TUNI
 70
     0
 10
0.0
 20
0.0
 30
0.0
  3
TUNI
  1

  0
POLYLINE
  5
2A2
  8
0
 66
     1
 10
0.0
 20
0.0
 30
0.0
 70
     1
  0
VERTEX
  5
D87
  8
0
 10
-40.0
 20
-10.0
 30
0.0
  0
VERTEX
  5
D88
  8
0
 10
-10.0
 20
-10.0
 30
0.0
  0
VERTEX
  5
D89
  8
0
 10
-10.0
 20
0.0
 30
0.0
  0
VERTEX
  5
D8A
  8
0
 10
-40.0
 20
0.0
 30
0.0
  0
SEQEND
  5
D8B
  8
0
  0
POLYLINE
  5
2A3
  8
0
 66
     1
 10
0.0
 20
0.0
 30
0.0
 70
     1
  0
VERTEX
  5
D8C
  8
0
 10
0.0
 20
-84.7722557505164644
 30
0.0
 42
0.4411354715973825
  0
VERTEX
  5
D8D
  8
0
 10
60.0
 20
-30.0
 30
0.0
  0
VERTEX
  5
D8E
  8
0
 10
60.0
 20
0.0
 30
0.0
  0
VERTEX
  5
D8F
  8
0
 10
50.0
 20
0.0
 30
0.0
  0
VERTEX
  5
D90
  8
0
 10
50.0
 20
-30.0
 30
0.0
 42
-0.4472135954999578
  0
VERTEX
  5
D91
  8
0
 10
0.0
 20
-74.7213595499956682
 30
0.0
  0
SEQEND
  5
D92
  8
0
  0
POLYLINE
  5
2A4
  8
0
 66
     1
 10
0.0
 20
0.0
 30
0.0
 70
     1
  0
VERTEX
  5
D93
  8
0
 10
40.0
 20
0.0
 30
0.0
  0
VERTEX
  5
D94
  8
0
 10
10.0
 20
0.0
 30
0.0
  0
VERTEX
  5
D95
  8
0
 10
0.0
 20
0.0
 30
0.0
  0
VERTEX
  5
D96
  8
0
 10
0.0
 20
-45.0
 30
0.0
  0
VERTEX
  5
D97
  8
0
 10
10.0
 20
-45.0
 30
0.0
  0
VERTEX
  5
D98
  8
0
 10
10.0
 20
-10.0
 30
0.0
  0
VERTEX
  5
D99
  8
0
 10
40.0
 20
-10.0
 30
0.0
  0
SEQEND
  5
D9A
  8
0
  0
POLYLINE
  5
2A5
  8
0
 66
     1
 10
0.0
 20
0.0
 30
0.0
 70
     1
  0
VERTEX
  5
D9B
  8
0
 10
-60.0
 20
-10.0
 30
0.0
  0
VERTEX
  5
D9C
  8
0
 10
-50.0
 20
-10.0
 30
0.0
  0
VERTEX
  5
D9D
  8
0
 10
-50.0
 20
20.0
 30
0.0
 42
-0.3819660112501045
  0
VERTEX
  5
D9E
  8
0
 10
-10.0
 20
64.721359549995725
 30
0.0
  0
VERTEX
  5
D9F
  8
0
 10
-10.0
 20
74.7722557505164644
 30
0.0
 42
0.3877945824087999
  0
VERTEX
  5
DA0
  8
0
 10
-60.0
 20
20.0
 30
0.0
  0
SEQEND
  5
DA1
  8
0
  0
ENDBLK
  5
2A6
  8
0
  0
ENDSEC
  0
SECTION
  2
ENTITIES
  0
CIRCLE
  5
217
  8
0
 10
227.0
 20
177.0
 30
0.0
 40
1.7
  0
CIRCLE
  5
219
  8
0
 10
20.0
 20
177.0
 30
0.0
 40
1.7
  0
CIRCLE
  5
21B
  8
0
 10
20.0
 20
20.0
 30
0.0
 40
1.7
  0
INSERT
  5
2AC
  8
0
  2
TUNI
 10
308.1770378135846045
 20
99.4194382062109128
 30
0.0
 41
0.25
 42
0.25
 43
0.25
  0
CIRCLE
  5
2D4
  8
0
 10
-264.6590930171836931
 20
177.0
 30
0.0
 40
2.25
  0
CIRCLE
  5
2D5
  8
0
 10
-471.6590930171836931
 20
177.0
 30
0.0
 40
2.25
  0
CIRCLE
  5
2D6
  8
0
 10
-471.6590930171836931
 20
20.0
 30
0.0
 40
2.25
  0
LINE
  5
2D7
  8
0
 10
-383.6590930171836931
 20
139.9999999999998863
 30
0.0
 11
-383.6590930171836931
 21
115.9999999999999005
 31
0.0
  0
LINE
  5
2D8
  8
0
 10
-386.6590930171838068
 20
136.9999999999998863
 30
0.0
 11
-362.6590930171836931
 21
136.9999999999998863
 31
0.0
  0
CIRCLE
  5
2D9
  8
0
 10
-383.6590930171836931
 20
136.9999999999998863
 30
0.0
 40
2.0
  0
POLYLINE
  5
2DE
  8
0
 66
     1
 10
0.0
 20
0.0
 30
0.0
  0
VERTEX
  5
DA2
  8
0
 10
-261.6590930171838068
 20
-0.0000000000000102
 30
0.0
  0
VERTEX
  5
DA3
  8
0
 10
-261.6590930171838068
 20
136.9999999999998863
 30
0.0
  0
VERTEX
  5
DA4
  8
0
 10
-383.6590930171836931
 20
136.9999999999998863
 30
0.0
  0
VERTEX
  5
DA5
  8
0
 10
-383.6590930171836931
 20
-0.0000000000000102
 30
0.0
  0
SEQEND
  5
DA6
  8
0
  0
POLYLINE
  5
2DF
  8
0
 66
     1
 10
0.0
 20
0.0
 30
0.0
  0
VERTEX
  5
DA7
  8
0
 10
-368.6590930171838068
 20
133.9999999999998863
 30
0.0
  0
VERTEX
  5
DA8
  8
0
 10
-362.6590930171836931
 20
136.9999999999998863
 30
0.0
  0
VERTEX
  5
DA9
  8
0
 10
-368.6590930171838068
 20
139.9999999999998863
 30
0.0
  0
SEQEND
  5
DAA
  8
0
  0
POLYLINE
  5
2E0
  8
0
 66
     1
 10
0.0
 20
0.0
 30
0.0
  0
VERTEX
  5
DAB
  8
0
 10
-386.6590930171838068
 20
121.9999999999999005
 30
0.0
  0
VERTEX
  5
DAC
  8
0
 10
-383.6590930171836931
 20
115.9999999999999005
 30
0.0
  0
VERTEX
  5
DAD
  8
0
 10
-380.6590930171838068
 20
121.9999999999999005
 30
0.0
  0
SEQEND
  5
DAE
  8
0
  0
POLYLINE
  5
2E1
  8
0
 66
     1
 10
0.0
 20
0.0
 30
0.0
  0
VERTEX
  5
DAF
  8
0
 10
-380.3061884975439852
 20
139.4997230498975966
 30
0.0
  0
VERTEX
  5
DB0
  8
0
 10
-376.9759569753456958
 20
144.5032127085549973
 30
0.0
  0
SEQEND
  5
DB1
  8
0
  0
POLYLINE
  5
2E5
  8
0
 66
     1
 10
0.0
 20
0.0
 30
0.0
  0
VERTEX
  5
DB2
  8
0
 10
-380.3061884975439852
 20
144.5032127085549973
 30
0.0
  0
VERTEX
  5
DB3
  8
0
 10
-376.9759569753456958
 20
139.4997230498975966
 30
0.0
  0
SEQEND
  5
DB4
  8
0
  0
POLYLINE
  5
2E9
  8
0
 66
     1
 10
0.0
 20
0.0
 30
0.0
  0
VERTEX
  5
DB5
  8
0
 10
-386.1361292552310829
 20
132.0005953434313994
 30
0.0
  0
VERTEX
  5
DB6
  8
0
 10
-388.9086080652763826
 20
132.0005953434313994
 30
0.0
  0
VERTEX
  5
DB7
  8
0
 10
-391.131476538528716
 20
130.3354795823321979
 30
0.0
  0
SEQEND
  5
DB8
  8
0
  0
POLYLINE
  5
2EE
  8
0
 66
     1
 10
0.0
 20
0.0
 30
0.0
  0
VERTEX
  5
DB9
  8
0
 10
-391.131476538528716
 20
133.669782292210499
 30
0.0
  0
VERTEX
  5
DBA
  8
0
 10
-388.9086080652763826
 20
132.0005953434313994
 30
0.0
  0
SEQEND
  5
DBB
  8
0
  0
POLYLINE
  5
4D5
  8
0
 66
     1
 10
0.0
 20
0.0
 30
0.0
  0
VERTEX
  5
DBC
  8
0
 10
261.8511403471312065
 20
58.2041817076813928
 30
0.0
  0
VERTEX
  5
DBD
  8
0
 10
261.8511403471312065
 20
63.6287647038579891
 30
0.0
  0
VERTEX
  5
DBE
  8
0
 10
261.8511403471312065
 20
64.7050708538930053
 30
0.0
  0
SEQEND
  5
DBF
  8
0
  0
POLYLINE
  5
4DA
  8
0
 66
     1
 10
0.0
 20
0.0
 30
0.0
  0
VERTEX
  5
DC0
  8
0
 10
260.0429460150722889
 20
64.7050708538930053
 30
0.0
  0
VERTEX
  5
DC1
  8
0
 10
263.7023869251914903
 20
64.7050708538930053
 30
0.0
  0
SEQEND
  5
DC2
  8
0
  0
POLYLINE
  5
4DE
  8
0
 66
     1
 10
0.0
 20
0.0
 30
0.0
  0
VERTEX
  5
DC3
  8
0
 10
270.2032760714030815
 20
58.2041817076813928
 30
0.0
  0
VERTEX
  5
DC4
  8
0
 10
268.0506637713330065
 20
64.7050708538930053
 30
0.0
  0
VERTEX
  5
DC5
  8
0
 10
265.8549992252615084
 20
58.2041817076813928
 30
0.0
  0
SEQEND
  5
DC6
  8
0
  0
POLYLINE
  5
4E3
  8
0
 66
     1
 10
0.0
 20
0.0
 30
0.0
  0
VERTEX
  5
DC7
  8
0
 10
266.5868874072853032
 20
60.0123760397402535
 30
0.0
  0
VERTEX
  5
DC8
  8
0
 10
269.471387889379173
 20
60.0123760397402535
 30
0.0
  0
SEQEND
  5
DC9
  8
0
  0
POLYLINE
  5
4E7
  8
0
 66
     1
 10
0.0
 20
0.0
 30
0.0
  0
VERTEX
  5
DCA
  8
0
 10
272.3989406174745227
 20
58.2041817076813928
 30
0.0
  0
VERTEX
  5
DCB
  8
0
 10
272.3989406174745227
 20
64.7050708538930053
 30
0.0
  0
VERTEX
  5
DCC
  8
0
 10
274.5515529175447114
 20
61.0886821897752768
 30
0.0
  0
VERTEX
  5
DCD
  8
0
 10
276.7472174636159821
 20
64.7050708538930053
 30
0.0
  0
VERTEX
  5
DCE
  8
0
 10
276.7472174636159821
 20
58.2041817076813928
 30
0.0
  0
SEQEND
  5
DCF
  8
0
  0
POLYLINE
  5
507
  8
0
 66
     1
 10
0.0
 20
0.0
 30
0.0
  0
VERTEX
  5
DD0
  8
0
 10
287.5963834559692032
 20
58.2041817076813928
 30
0.0
  0
VERTEX
  5
DD1
  8
0
 10
284.7118829738752765
 20
58.2041817076813928
 30
0.0
  0
VERTEX
  5
DD2
  8
0
 10
284.7118829738752765
 20
63.6287647038579891
 30
0.0
  0
VERTEX
  5
DD3
  8
0
 10
284.7118829738752765
 20
64.7050708538930053
 30
0.0
  0
VERTEX
  5
DD4
  8
0
 10
287.5963834559692032
 20
64.7050708538930053
 30
0.0
  0
SEQEND
  5
DD5
  8
0
  0
POLYLINE
  5
50E
  8
0
 66
     1
 10
0.0
 20
0.0
 30
0.0
  0
VERTEX
  5
DD6
  8
0
 10
284.7118829738752765
 20
61.8205703717991213
 30
0.0
  0
VERTEX
  5
DD7
  8
0
 10
286.9075475199467746
 20
61.8205703717991213
 30
0.0
  0
SEQEND
  5
DD8
  8
0
  0
POLYLINE
  5
52B
  8
0
 66
     1
 10
0.0
 20
0.0
 30
0.0
  0
VERTEX
  5
DD9
  8
0
 10
291.9446603021107762
 20
61.0886821897752768
 30
0.0
  0
VERTEX
  5
DDA
  8
0
 10
293.4084366661584227
 20
58.2041817076813928
 30
0.0
  0
SEQEND
  5
DDB
  8
0
  0
POLYLINE
  5
52F
  8
0
 66
     1
 10
0.0
 20
0.0
 30
0.0
  0
VERTEX
  5
DDC
  8
0
 10
298.4886016943239042
 20
58.2041817076813928
 30
0.0
  0
VERTEX
  5
DDD
  8
0
 10
295.6041012122298071
 20
58.2041817076813928
 30
0.0
  0
VERTEX
  5
DDE
  8
0
 10
295.6041012122298071
 20
63.6287647038579891
 30
0.0
  0
VERTEX
  5
DDF
  8
0
 10
295.6041012122298071
 20
64.7050708538930053
 30
0.0
  0
VERTEX
  5
DE0
  8
0
 10
298.4886016943239042
 20
64.7050708538930053
 30
0.0
  0
SEQEND
  5
DE1
  8
0
  0
POLYLINE
  5
536
  8
0
 66
     1
 10
0.0
 20
0.0
 30
0.0
  0
VERTEX
  5
DE2
  8
0
 10
295.6041012122298071
 20
61.8205703717991213
 30
0.0
  0
VERTEX
  5
DE3
  8
0
 10
297.756713512299882
 20
61.8205703717991213
 30
0.0
  0
SEQEND
  5
DE4
  8
0
  0
POLYLINE
  5
551
  8
0
 66
     1
 10
0.0
 20
0.0
 30
0.0
  0
VERTEX
  5
DE5
  8
0
 10
312.9972085967960993
 20
58.2041817076813928
 30
0.0
  0
VERTEX
  5
DE6
  8
0
 10
312.9972085967960993
 20
64.7050708538930053
 30
0.0
  0
VERTEX
  5
DE7
  8
0
 10
316.6135972609138776
 20
58.2041817076813928
 30
0.0
  0
VERTEX
  5
DE8
  8
0
 10
316.6135972609138776
 20
64.7050708538930053
 30
0.0
  0
SEQEND
  5
DE9
  8
0
  0
POLYLINE
  5
557
  8
0
 66
     1
 10
0.0
 20
0.0
 30
0.0
  0
VERTEX
  5
DEA
  8
0
 10
318.8092618069853188
 20
58.2041817076813928
 30
0.0
  0
VERTEX
  5
DEB
  8
0
 10
318.8092618069853188
 20
63.6287647038579891
 30
0.0
  0
VERTEX
  5
DEC
  8
0
 10
318.8092618069853188
 20
64.7050708538930053
 30
0.0
  0
SEQEND
  5
DED
  8
0
  0
POLYLINE
  5
55C
  8
0
 66
     1
 10
0.0
 20
0.0
 30
0.0
  0
VERTEX
  5
DEE
  8
0
 10
320.9618741070552801
 20
64.7050708538930053
 30
0.0
  0
VERTEX
  5
DEF
  8
0
 10
323.1575386531268919
 20
58.2041817076813928
 30
0.0
  0
VERTEX
  5
DF0
  8
0
 10
325.31015095319691
 20
64.7050708538930053
 30
0.0
  0
SEQEND
  5
DF1
  8
0
  0
POLYLINE
  5
561
  8
0
 66
     1
 10
0.0
 20
0.0
 30
0.0
  0
VERTEX
  5
DF2
  8
0
 10
330.3903159813622779
 20
58.2041817076813928
 30
0.0
  0
VERTEX
  5
DF3
  8
0
 10
327.5058154992684081
 20
58.2041817076813928
 30
0.0
  0
VERTEX
  5
DF4
  8
0
 10
327.5058154992684081
 20
63.6287647038579891
 30
0.0
  0
VERTEX
  5
DF5
  8
0
 10
327.5058154992684081
 20
64.7050708538930053
 30
0.0
  0
VERTEX
  5
DF6
  8
0
 10
330.3903159813622779
 20
64.7050708538930053
 30
0.0
  0
SEQEND
  5
DF7
  8
0
  0
POLYLINE
  5
568
  8
0
 66
     1
 10
0.0
 20
0.0
 30
0.0
  0
VERTEX
  5
DF8
  8
0
 10
327.5058154992684081
 20
61.8205703717991213
 30
0.0
  0
VERTEX
  5
DF9
  8
0
 10
329.6584277993384831
 20
61.8205703717991213
 30
0.0
  0
SEQEND
  5
DFA
  8
0
  0
POLYLINE
  5
585
  8
0
 66
     1
 10
0.0
 20
0.0
 30
0.0
  0
VERTEX
  5
DFB
  8
0
 10
334.7385928275036804
 20
61.0886821897752768
 30
0.0
  0
VERTEX
  5
DFC
  8
0
 10
336.2023691915514974
 20
58.2041817076813928
 30
0.0
  0
SEQEND
  5
DFD
  8
0
  0
POLYLINE
  5
589
  8
0
 66
     1
 10
0.0
 20
0.0
 30
0.0
  0
VERTEX
  5
DFE
  8
0
 10
340.206228069681913
 20
58.2041817076813928
 30
0.0
  0
VERTEX
  5
DFF
  8
0
 10
339.5604443796607939
 20
58.161129461679991
 30
0.0
  0
VERTEX
  5
E00
  8
0
 10
338.9577129356412115
 20
58.2902861996841892
 30
0.0
  0
VERTEX
  5
E01
  8
0
 10
338.3980337376229954
 20
58.5485996756925928
 30
0.0
  0
SEQEND
  5
E02
  8
0
  0
POLYLINE
  5
58F
  8
0
 66
     1
 10
0.0
 20
0.0
 30
0.0
  0
VERTEX
  5
E03
  8
0
 10
340.8950640057042278
 20
61.0886821897752768
 30
0.0
  0
VERTEX
  5
E04
  8
0
 10
341.2394819737152716
 20
60.8303687137668803
 30
0.0
  0
VERTEX
  5
E05
  8
0
 10
341.4977954497239239
 20
60.4428984997542571
 30
0.0
  0
VERTEX
  5
E06
  8
0
 10
341.6269521877280795
 20
60.0554282857416695
 30
0.0
  0
VERTEX
  5
E07
  8
0
 10
341.6700044337292752
 20
59.5818535797262427
 30
0.0
  0
VERTEX
  5
E08
  8
0
 10
341.5408476957252901
 20
59.1513311197122533
 30
0.0
  0
VERTEX
  5
E09
  8
0
 10
341.3255864657182883
 20
58.8069131517010319
 30
0.0
  0
VERTEX
  5
E0A
  8
0
 10
341.0242207437084971
 20
58.505547429691191
 30
0.0
  0
VERTEX
  5
E0B
  8
0
 10
340.6367505296959735
 20
58.2902861996841892
 30
0.0
  0
VERTEX
  5
E0C
  8
0
 10
340.1631758236803762
 20
58.2041817076813928
 30
0.0
  0
SEQEND
  5
E0D
  8
0
  0
POLYLINE
  5
59B
  8
0
 66
     1
 10
0.0
 20
0.0
 30
0.0
  0
VERTEX
  5
E0E
  8
0
 10
340.9381162517055941
 20
61.0886821897752768
 30
0.0
  0
VERTEX
  5
E0F
  8
0
 10
339.086869673645424
 20
62.1649883398103071
 30
0.0
  0
SEQEND
  5
E10
  8
0
  0
POLYLINE
  5
59F
  8
0
 66
     1
 10
0.0
 20
0.0
 30
0.0
  0
VERTEX
  5
E11
  8
0
 10
339.1299219196467902
 20
62.2080405858117302
 30
0.0
  0
VERTEX
  5
E12
  8
0
 10
338.8285561976369991
 20
62.466354061820148
 30
0.0
  0
VERTEX
  5
E13
  8
0
 10
338.5702427216285741
 20
62.7677197838299605
 30
0.0
  0
VERTEX
  5
E14
  8
0
 10
338.4410859836244185
 20
63.1982422438439571
 30
0.0
  0
VERTEX
  5
E15
  8
0
 10
338.4410859836244185
 20
63.5857124578565802
 30
0.0
  0
VERTEX
  5
E16
  8
0
 10
338.5702427216285741
 20
63.9731826718691821
 30
0.0
  0
VERTEX
  5
E17
  8
0
 10
338.785503951635576
 20
64.3176006398803963
 30
0.0
  0
SEQEND
  5
E18
  8
0
  0
POLYLINE
  5
5A8
  8
0
 66
     1
 10
0.0
 20
0.0
 30
0.0
  0
VERTEX
  5
E19
  8
0
 10
338.742451705634096
 20
64.3606528858818052
 30
0.0
  0
VERTEX
  5
E1A
  8
0
 10
339.3021309036523121
 20
64.5759141158888212
 30
0.0
  0
VERTEX
  5
E1B
  8
0
 10
339.9048623476720081
 20
64.7050708538930053
 30
0.0
  0
VERTEX
  5
E1C
  8
0
 10
340.5075937916917042
 20
64.7050708538930053
 30
0.0
  0
VERTEX
  5
E1D
  8
0
 10
341.1103252357111728
 20
64.5759141158888212
 30
0.0
  0
VERTEX
  5
E1E
  8
0
 10
341.6700044337292752
 20
64.3606528858818052
 30
0.0
  0
SEQEND
  5
E1F
  8
0
  0
POLYLINE
  5
5B0
  8
0
 66
     1
 10
0.0
 20
0.0
 30
0.0
  0
VERTEX
  5
E20
  8
0
 10
343.8226167337996912
 20
58.2041817076813928
 30
0.0
  0
VERTEX
  5
E21
  8
0
 10
343.8226167337996912
 20
63.6287647038579891
 30
0.0
  0
VERTEX
  5
E22
  8
0
 10
343.8226167337996912
 20
64.7050708538930053
 30
0.0
  0
SEQEND
  5
E23
  8
0
  0
POLYLINE
  5
5B5
  8
0
 66
     1
 10
0.0
 20
0.0
 30
0.0
  0
VERTEX
  5
E24
  8
0
 10
347.8264756119298795
 20
58.2041817076813928
 30
0.0
  0
VERTEX
  5
E25
  8
0
 10
347.8264756119298795
 20
63.6287647038579891
 30
0.0
  0
VERTEX
  5
E26
  8
0
 10
347.8264756119298795
 20
64.7050708538930053
 30
0.0
  0
SEQEND
  5
E27
  8
0
  0
POLYLINE
  5
5BA
  8
0
 66
     1
 10
0.0
 20
0.0
 30
0.0
  0
VERTEX
  5
E28
  8
0
 10
345.9752290338695957
 20
64.7050708538930053
 30
0.0
  0
VERTEX
  5
E29
  8
0
 10
349.6346699439887971
 20
64.7050708538930053
 30
0.0
  0
SEQEND
  5
E2A
  8
0
  0
POLYLINE
  5
5BE
  8
0
 66
     1
 10
0.0
 20
0.0
 30
0.0
  0
VERTEX
  5
E2B
  8
0
 10
353.9829467901303133
 20
58.2041817076813928
 30
0.0
  0
VERTEX
  5
E2C
  8
0
 10
353.9829467901303133
 20
61.8205703717991213
 30
0.0
  0
VERTEX
  5
E2D
  8
0
 10
351.7872822440588152
 20
64.7050708538930053
 30
0.0
  0
SEQEND
  5
E2E
  8
0
  0
POLYLINE
  5
5C3
  8
0
 66
     1
 10
0.0
 20
0.0
 30
0.0
  0
VERTEX
  5
E2F
  8
0
 10
356.1355590902003883
 20
64.7050708538930053
 30
0.0
  0
VERTEX
  5
E30
  8
0
 10
353.9829467901303133
 20
61.8205703717991213
 30
0.0
  0
SEQEND
  5
E31
  8
0
  0
POLYLINE
  5
5C7
  8
0
 66
     1
 10
0.0
 20
0.0
 30
0.0
  0
VERTEX
  5
E32
  8
0
 10
286.5200773059341941
 20
47.3119634693268196
 30
0.0
  0
VERTEX
  5
E33
  8
0
 10
286.5200773059341941
 20
52.7365464655034017
 30
0.0
  0
VERTEX
  5
E34
  8
0
 10
286.5200773059341941
 20
53.8128526155384534
 30
0.0
  0
VERTEX
  5
E35
  8
0
 10
289.447630034029487
 20
53.8128526155384534
 30
0.0
  0
SEQEND
  5
E36
  8
0
  0
POLYLINE
  5
5CD
  8
0
 66
     1
 10
0.0
 20
0.0
 30
0.0
  0
VERTEX
  5
E37
  8
0
 10
286.5200773059341941
 20
50.928352133444541
 30
0.0
  0
VERTEX
  5
E38
  8
0
 10
289.447630034029487
 20
50.928352133444541
 30
0.0
  0
SEQEND
  5
E39
  8
0
  0
POLYLINE
  5
5D1
  8
0
 66
     1
 10
0.0
 20
0.0
 30
0.0
  0
VERTEX
  5
E3A
  8
0
 10
295.9485191802410782
 20
47.3119634693268196
 30
0.0
  0
VERTEX
  5
E3B
  8
0
 10
293.7959068801711169
 20
53.8128526155384534
 30
0.0
  0
VERTEX
  5
E3C
  8
0
 10
291.6002423340996188
 20
47.3119634693268196
 30
0.0
  0
SEQEND
  5
E3D
  8
0
  0
POLYLINE
  5
5D6
  8
0
 66
     1
 10
0.0
 20
0.0
 30
0.0
  0
VERTEX
  5
E3E
  8
0
 10
292.3321305161234136
 20
49.1201578013856874
 30
0.0
  0
VERTEX
  5
E3F
  8
0
 10
295.2166309982172834
 20
49.1201578013856874
 30
0.0
  0
SEQEND
  5
E40
  8
0
  0
POLYLINE
  5
5DA
  8
0
 66
     1
 10
0.0
 20
0.0
 30
0.0
  0
VERTEX
  5
E41
  8
0
 10
299.9523780583713233
 20
47.3119634693268196
 30
0.0
  0
VERTEX
  5
E42
  8
0
 10
299.3065943683504884
 20
47.268911223325432
 30
0.0
  0
VERTEX
  5
E43
  8
0
 10
298.7038629243307923
 20
47.3980679613296303
 30
0.0
  0
VERTEX
  5
E44
  8
0
 10
298.1441837263125763
 20
47.656381437338041
 30
0.0
  0
SEQEND
  5
E45
  8
0
  0
POLYLINE
  5
5E0
  8
0
 66
     1
 10
0.0
 20
0.0
 30
0.0
  0
VERTEX
  5
E46
  8
0
 10
300.6412139943939223
 20
50.1964639514207178
 30
0.0
  0
VERTEX
  5
E47
  8
0
 10
300.9856319624050798
 20
49.9381504754123213
 30
0.0
  0
VERTEX
  5
E48
  8
0
 10
301.2439454384136184
 20
49.5506802613997195
 30
0.0
  0
VERTEX
  5
E49
  8
0
 10
301.3731021764177171
 20
49.1632100473870821
 30
0.0
  0
VERTEX
  5
E4A
  8
0
 10
301.4161544224191971
 20
48.6896353413716909
 30
0.0
  0
VERTEX
  5
E4B
  8
0
 10
301.2869976844149278
 20
48.2591128813576375
 30
0.0
  0
VERTEX
  5
E4C
  8
0
 10
301.071736454407926
 20
47.9146949133464375
 30
0.0
  0
VERTEX
  5
E4D
  8
0
 10
300.770370732398078
 20
47.6133291913366321
 30
0.0
  0
VERTEX
  5
E4E
  8
0
 10
300.3829005183853837
 20
47.3980679613296303
 30
0.0
  0
VERTEX
  5
E4F
  8
0
 10
299.9093258123700139
 20
47.3119634693268196
 30
0.0
  0
SEQEND
  5
E50
  8
0
  0
POLYLINE
  5
5EC
  8
0
 66
     1
 10
0.0
 20
0.0
 30
0.0
  0
VERTEX
  5
E51
  8
0
 10
300.6842662403954023
 20
50.1964639514207178
 30
0.0
  0
VERTEX
  5
E52
  8
0
 10
298.8760719083364847
 20
51.2727701014557624
 30
0.0
  0
SEQEND
  5
E53
  8
0
  0
POLYLINE
  5
5F0
  8
0
 66
     1
 10
0.0
 20
0.0
 30
0.0
  0
VERTEX
  5
E54
  8
0
 10
298.8760719083364847
 20
51.3158223474571571
 30
0.0
  0
VERTEX
  5
E55
  8
0
 10
298.574706186326523
 20
51.5741358234655678
 30
0.0
  0
VERTEX
  5
E56
  8
0
 10
298.3163927103182118
 20
51.8755015454753732
 30
0.0
  0
VERTEX
  5
E57
  8
0
 10
298.187235972314113
 20
52.306024005489391
 30
0.0
  0
VERTEX
  5
E58
  8
0
 10
298.187235972314113
 20
52.6934942195020071
 30
0.0
  0
VERTEX
  5
E59
  8
0
 10
298.3163927103182118
 20
53.0809644335146302
 30
0.0
  0
VERTEX
  5
E5A
  8
0
 10
298.5316539403250999
 20
53.4253824015258374
 30
0.0
  0
SEQEND
  5
E5B
  8
0
  0
POLYLINE
  5
5F9
  8
0
 66
     1
 10
0.0
 20
0.0
 30
0.0
  0
VERTEX
  5
E5C
  8
0
 10
298.4886016943239042
 20
53.4684346475272321
 30
0.0
  0
VERTEX
  5
E5D
  8
0
 10
299.0482808923421203
 20
53.683695877534241
 30
0.0
  0
VERTEX
  5
E5E
  8
0
 10
299.651012336361589
 20
53.8128526155384534
 30
0.0
  0
VERTEX
  5
E5F
  8
0
 10
300.2537437803812281
 20
53.8128526155384534
 30
0.0
  0
VERTEX
  5
E60
  8
0
 10
300.8564752244009242
 20
53.683695877534241
 30
0.0
  0
VERTEX
  5
E61
  8
0
 10
301.4161544224191971
 20
53.4684346475272321
 30
0.0
  0
SEQEND
  5
E62
  8
0
  0
POLYLINE
  5
601
  8
0
 66
     1
 10
0.0
 20
0.0
 30
0.0
  0
VERTEX
  5
E63
  8
0
 10
305.3769610545480191
 20
47.3119634693268196
 30
0.0
  0
VERTEX
  5
E64
  8
0
 10
305.3769610545480191
 20
52.7365464655034017
 30
0.0
  0
VERTEX
  5
E65
  8
0
 10
305.3769610545480191
 20
53.8128526155384534
 30
0.0
  0
SEQEND
  5
E66
  8
0
  0
POLYLINE
  5
606
  8
0
 66
     1
 10
0.0
 20
0.0
 30
0.0
  0
VERTEX
  5
E67
  8
0
 10
303.5687667224892152
 20
53.8128526155384534
 30
0.0
  0
VERTEX
  5
E68
  8
0
 10
307.185155386606823
 20
53.8128526155384534
 30
0.0
  0
SEQEND
  5
E69
  8
0
  0
POLYLINE
  5
60A
  8
0
 66
     1
 10
0.0
 20
0.0
 30
0.0
  0
VERTEX
  5
E6A
  8
0
 10
309.3808199326783779
 20
49.4645757693968875
 30
0.0
  0
VERTEX
  5
E6B
  8
0
 10
312.2653204147723045
 20
49.4645757693968875
 30
0.0
  0
SEQEND
  5
E6C
  8
0
  0
POLYLINE
  5
60E
  8
0
 66
     1
 10
0.0
 20
0.0
 30
0.0
  0
VERTEX
  5
E6D
  8
0
 10
317.3454854429376155
 20
47.3119634693268196
 30
0.0
  0
VERTEX
  5
E6E
  8
0
 10
314.4609849608438026
 20
47.3119634693268196
 30
0.0
  0
VERTEX
  5
E6F
  8
0
 10
314.4609849608438026
 20
52.7365464655034017
 30
0.0
  0
VERTEX
  5
E70
  8
0
 10
314.4609849608438026
 20
53.8128526155384534
 30
0.0
  0
SEQEND
  5
E71
  8
0
  0
POLYLINE
  5
614
  8
0
 66
     1
 10
0.0
 20
0.0
 30
0.0
  0
VERTEX
  5
E72
  8
0
 10
323.889426835150573
 20
47.3119634693268196
 30
0.0
  0
VERTEX
  5
E73
  8
0
 10
321.6937622890791886
 20
53.8128526155384534
 30
0.0
  0
VERTEX
  5
E74
  8
0
 10
319.5411499890092273
 20
47.3119634693268196
 30
0.0
  0
SEQEND
  5
E75
  8
0
  0
POLYLINE
  5
619
  8
0
 66
     1
 10
0.0
 20
0.0
 30
0.0
  0
VERTEX
  5
E76
  8
0
 10
320.2299859250314853
 20
49.1201578013856874
 30
0.0
  0
VERTEX
  5
E77
  8
0
 10
323.1575386531268919
 20
49.1201578013856874
 30
0.0
  0
SEQEND
  5
E78
  8
0
  0
POLYLINE
  5
648
  8
0
 66
     1
 10
0.0
 20
0.0
 30
0.0
  0
VERTEX
  5
E79
  8
0
 10
302.4924605724542062
 20
36.4197452309722607
 30
0.0
  0
VERTEX
  5
E7A
  8
0
 10
299.6079600903602795
 20
36.4197452309722607
 30
0.0
  0
VERTEX
  5
E7B
  8
0
 10
302.1480426044428782
 20
40.4236041091025911
 30
0.0
  0
SEQEND
  5
E7C
  8
0
  0
POLYLINE
  5
669
  8
0
 66
     1
 10
0.0
 20
0.0
 30
0.0
  0
VERTEX
  5
E7D
  8
0
 10
307.2282076326084166
 20
42.2317984411614376
 30
0.0
  0
VERTEX
  5
E7E
  8
0
 10
307.4434688626153047
 20
41.2415967831292107
 30
0.0
  0
VERTEX
  5
E7F
  8
0
 10
307.5726256006195172
 20
40.2083428790955892
 30
0.0
  0
VERTEX
  5
E80
  8
0
 10
307.5726256006195172
 20
39.1750889750619535
 30
0.0
  0
VERTEX
  5
E81
  8
0
 10
307.4434688626153047
 20
38.1418350710283107
 30
0.0
  0
VERTEX
  5
E82
  8
0
 10
307.2282076326084166
 20
37.151633412996091
 30
0.0
  0
SEQEND
  5
E83
  8
0
  0
POLYLINE
  5
671
  8
0
 66
     1
 10
0.0
 20
0.0
 30
0.0
  0
VERTEX
  5
E84
  8
0
 10
305.0325430865369185
 20
42.1887461951600571
 30
0.0
  0
VERTEX
  5
E85
  8
0
 10
305.2478043165438066
 20
42.5331641631712785
 30
0.0
  0
VERTEX
  5
E86
  8
0
 10
305.5491700385535978
 20
42.7914776391796821
 30
0.0
  0
VERTEX
  5
E87
  8
0
 10
305.8935880065649258
 20
42.9206343771838874
 30
0.0
  0
VERTEX
  5
E88
  8
0
 10
306.3241104665788725
 20
42.9206343771838874
 30
0.0
  0
VERTEX
  5
E89
  8
0
 10
306.6685284345902005
 20
42.7914776391796821
 30
0.0
  0
VERTEX
  5
E8A
  8
0
 10
306.969894156599878
 20
42.5331641631712785
 30
0.0
  0
VERTEX
  5
E8B
  8
0
 10
307.185155386606823
 20
42.1887461951600571
 30
0.0
  0
SEQEND
  5
E8C
  8
0
  0
POLYLINE
  5
683
  8
0
 66
     1
 10
0.0
 20
0.0
 30
0.0
  0
VERTEX
  5
E8D
  8
0
 10
309.7682901466910153
 20
41.4999102591376214
 30
0.0
  0
VERTEX
  5
E8E
  8
0
 10
311.1890142647371817
 20
42.9636866231852821
 30
0.0
  0
VERTEX
  5
E8F
  8
0
 10
311.1890142647371817
 20
37.4960513810073124
 30
0.0
  0
VERTEX
  5
E90
  8
0
 10
311.1890142647371817
 20
36.4197452309722607
 30
0.0
  0
SEQEND
  5
E91
  8
0
  0
POLYLINE
  5
6A3
  8
0
 66
     1
 10
0.0
 20
0.0
 30
0.0
  0
VERTEX
  5
E92
  8
0
 10
313.3846788108086798
 20
41.4999102591376214
 30
0.0
  0
VERTEX
  5
E93
  8
0
 10
313.3846788108086798
 20
40.7680220771137982
 30
0.0
  0
SEQEND
  5
E94
  8
0
  0
POLYLINE
  5
6A7
  8
0
 66
     1
 10
0.0
 20
0.0
 30
0.0
  0
VERTEX
  5
E95
  8
0
 10
314.8484551748563263
 20
39.3472979590675607
 30
0.0
  0
VERTEX
  5
E96
  8
0
 10
314.4179327148423226
 20
39.43340245107035
 30
0.0
  0
VERTEX
  5
E97
  8
0
 10
314.0304625008296853
 20
39.6056114350759714
 30
0.0
  0
VERTEX
  5
E98
  8
0
 10
313.6860445328185278
 20
39.9500294030871714
 30
0.0
  0
VERTEX
  5
E99
  8
0
 10
313.513835548813006
 20
40.3374996170997733
 30
0.0
  0
VERTEX
  5
E9A
  8
0
 10
313.4277310568101029
 20
40.7680220771137982
 30
0.0
  0
SEQEND
  5
E9B
  8
0
  0
POLYLINE
  5
6AF
  8
0
 66
     1
 10
0.0
 20
0.0
 30
0.0
  0
VERTEX
  5
E9C
  8
0
 10
314.8484551748563263
 20
39.3042457130661589
 30
0.0
  0
VERTEX
  5
E9D
  8
0
 10
315.9247613248913922
 20
39.3042457130661589
 30
0.0
  0
SEQEND
  5
E9E
  8
0
  0
POLYLINE
  5
6B3
  8
0
 66
     1
 10
0.0
 20
0.0
 30
0.0
  0
VERTEX
  5
E9F
  8
0
 10
313.4277310568101029
 20
41.4999102591376214
 30
0.0
  0
VERTEX
  5
EA0
  8
0
 10
313.470783302811526
 20
41.8873804731502304
 30
0.0
  0
VERTEX
  5
EA1
  8
0
 10
313.6429922868172184
 20
42.2748506871628393
 30
0.0
  0
VERTEX
  5
EA2
  8
0
 10
313.9013057628257002
 20
42.5762164091726731
 30
0.0
  0
VERTEX
  5
EA3
  8
0
 10
314.2457237308366871
 20
42.7914776391796821
 30
0.0
  0
VERTEX
  5
EA4
  8
0
 10
314.6331939448493813
 20
42.9206343771838874
 30
0.0
  0
VERTEX
  5
EA5
  8
0
 10
315.0637164048633849
 20
42.9206343771838874
 30
0.0
  0
VERTEX
  5
EA6
  8
0
 10
315.4511866188760223
 20
42.7914776391796821
 30
0.0
  0
VERTEX
  5
EA7
  8
0
 10
315.7956045868871797
 20
42.5762164091726731
 30
0.0
  0
VERTEX
  5
EA8
  8
0
 10
316.0539180628956046
 20
42.2748506871628393
 30
0.0
  0
VERTEX
  5
EA9
  8
0
 10
316.2261270469011833
 20
41.8873804731502304
 30
0.0
  0
VERTEX
  5
EAA
  8
0
 10
316.2691792929027201
 20
41.4999102591376214
 30
0.0
  0
VERTEX
  5
EAB
  8
0
 10
316.2691792929027201
 20
40.0361338950899821
 30
0.0
  0
VERTEX
  5
EAC
  8
0
 10
316.140022554898394
 20
39.2181412210633624
 30
0.0
  0
VERTEX
  5
EAD
  8
0
 10
315.8817090788900259
 20
38.4432007930381303
 30
0.0
  0
VERTEX
  5
EAE
  8
0
 10
315.4942388648773886
 20
37.7113126110143071
 30
0.0
  0
VERTEX
  5
EAF
  8
0
 10
315.0206641588620187
 20
37.0224766749918786
 30
0.0
  0
VERTEX
  5
EB0
  8
0
 10
314.4609849608438026
 20
36.4197452309722607
 30
0.0
  0
SEQEND
  5
EB1
  8
0
  0
POLYLINE
  5
6B4
  8
0
 66
     1
 10
0.0
 20
0.0
 30
0.0
  0
VERTEX
  5
EB2
  8
0
 10
307.185155386606823
 20
37.151633412996091
 30
0.0
  0
VERTEX
  5
EB3
  8
0
 10
306.969894156599878
 20
36.8502676909862714
 30
0.0
  0
VERTEX
  5
EB4
  8
0
 10
306.6685284345902005
 20
36.591954214977882
 30
0.0
  0
VERTEX
  5
EB5
  8
0
 10
306.28105822057762
 20
36.4627974769736625
 30
0.0
  0
VERTEX
  5
EB6
  8
0
 10
305.9366402525661215
 20
36.4627974769736625
 30
0.0
  0
VERTEX
  5
EB7
  8
0
 10
305.5491700385535978
 20
36.591954214977882
 30
0.0
  0
VERTEX
  5
EB8
  8
0
 10
305.2478043165438066
 20
36.8502676909862714
 30
0.0
  0
VERTEX
  5
EB9
  8
0
 10
305.0325430865369185
 20
37.151633412996091
 30
0.0
  0
VERTEX
  5
EBA
  8
0
 10
304.817281856529803
 20
38.1418350710283107
 30
0.0
  0
VERTEX
  5
EBB
  8
0
 10
304.6881251185254769
 20
39.1750889750619535
 30
0.0
  0
VERTEX
  5
EBC
  8
0
 10
304.6881251185254769
 20
40.2083428790955892
 30
0.0
  0
VERTEX
  5
EBD
  8
0
 10
304.817281856529803
 20
41.2415967831292107
 30
0.0
  0
VERTEX
  5
EBE
  8
0
 10
305.0325430865369185
 20
42.2317984411614376
 30
0.0
  0
SEQEND
  5
EBF
  8
0
  0
POLYLINE
  5
6B5
  8
0
 66
     1
 10
0.0
 20
0.0
 30
0.0
  0
VERTEX
  5
EC0
  8
0
 10
299.5649078443586859
 20
41.8443282271488286
 30
0.0
  0
VERTEX
  5
EC1
  8
0
 10
299.7801690743659719
 20
42.2317984411614376
 30
0.0
  0
VERTEX
  5
EC2
  8
0
 10
300.0384825503742832
 20
42.5331641631712785
 30
0.0
  0
VERTEX
  5
EC3
  8
0
 10
300.3829005183853837
 20
42.7914776391796821
 30
0.0
  0
VERTEX
  5
EC4
  8
0
 10
300.8134229783995011
 20
42.9206343771838874
 30
0.0
  0
VERTEX
  5
EC5
  8
0
 10
301.2439454384136184
 20
42.9206343771838874
 30
0.0
  0
VERTEX
  5
EC6
  8
0
 10
301.674467898427622
 20
42.7914776391796821
 30
0.0
  0
VERTEX
  5
EC7
  8
0
 10
302.0188858664387226
 20
42.5331641631712785
 30
0.0
  0
VERTEX
  5
EC8
  8
0
 10
302.2771993424472043
 20
42.2317984411614376
 30
0.0
  0
VERTEX
  5
EC9
  8
0
 10
302.4924605724542062
 20
41.8443282271488286
 30
0.0
  0
VERTEX
  5
ECA
  8
0
 10
302.4924605724542062
 20
41.3707535211334303
 30
0.0
  0
VERTEX
  5
ECB
  8
0
 10
302.3633038344499937
 20
40.8971788151180107
 30
0.0
  0
VERTEX
  5
ECC
  8
0
 10
302.1049903584416256
 20
40.4236041091025911
 30
0.0
  0
SEQEND
  5
ECD
  8
0
  0
POLYLINE
  5
6B6
  8
0
 66
     1
 10
0.0
 20
0.0
 30
0.0
  0
VERTEX
  5
ECE
  8
0
 10
326.0420391352208185
 20
50.928352133444541
 30
0.0
  0
VERTEX
  5
ECF
  8
0
 10
327.8502334672796223
 20
50.928352133444541
 30
0.0
  0
VERTEX
  5
ED0
  8
0
 10
328.3238081732949922
 20
50.8852998874431606
 30
0.0
  0
VERTEX
  5
ED1
  8
0
 10
328.7543306333088822
 20
50.6700386574361517
 30
0.0
  0
VERTEX
  5
ED2
  8
0
 10
329.1418008473215764
 20
50.4117251814277196
 30
0.0
  0
VERTEX
  5
ED3
  8
0
 10
329.4001143233300013
 20
50.0242549674151178
 30
0.0
  0
VERTEX
  5
ED4
  8
0
 10
329.6153755533371168
 20
49.5937325074011071
 30
0.0
  0
VERTEX
  5
ED5
  8
0
 10
329.6584277993384831
 20
49.1201578013856874
 30
0.0
  0
VERTEX
  5
ED6
  8
0
 10
329.6153755533371168
 20
48.6465830953702891
 30
0.0
  0
VERTEX
  5
ED7
  8
0
 10
329.4001143233300013
 20
48.21606063535625
 30
0.0
  0
VERTEX
  5
ED8
  8
0
 10
329.1418008473215764
 20
47.828590421343641
 30
0.0
  0
VERTEX
  5
ED9
  8
0
 10
328.7543306333088822
 20
47.5702769453352374
 30
0.0
  0
VERTEX
  5
EDA
  8
0
 10
328.3238081732949922
 20
47.3550157153282214
 30
0.0
  0
VERTEX
  5
EDB
  8
0
 10
327.8502334672796223
 20
47.3119634693268196
 30
0.0
  0
VERTEX
  5
EDC
  8
0
 10
326.0420391352208185
 20
47.3119634693268196
 30
0.0
  0
VERTEX
  5
EDD
  8
0
 10
326.0420391352208185
 20
52.7365464655034017
 30
0.0
  0
VERTEX
  5
EDE
  8
0
 10
326.0420391352208185
 20
53.8128526155384534
 30
0.0
  0
VERTEX
  5
EDF
  8
0
 10
327.8502334672796223
 20
53.8128526155384534
 30
0.0
  0
VERTEX
  5
EE0
  8
0
 10
328.2377036812923166
 20
53.7698003695370517
 30
0.0
  0
VERTEX
  5
EE1
  8
0
 10
328.6251738953047834
 20
53.5975913855314374
 30
0.0
  0
VERTEX
  5
EE2
  8
0
 10
328.9265396173146883
 20
53.339277909523048
 30
0.0
  0
VERTEX
  5
EE3
  8
0
 10
329.1418008473215764
 20
52.9948599415118267
 30
0.0
  0
VERTEX
  5
EE4
  8
0
 10
329.2709575853260162
 20
52.6073897274991893
 30
0.0
  0
VERTEX
  5
EE5
  8
0
 10
329.2709575853260162
 20
52.1768672674851928
 30
0.0
  0
VERTEX
  5
EE6
  8
0
 10
329.1418008473215764
 20
51.7893970534725696
 30
0.0
  0
VERTEX
  5
EE7
  8
0
 10
328.9265396173146883
 20
51.4449790854613696
 30
0.0
  0
VERTEX
  5
EE8
  8
0
 10
328.6251738953047834
 20
51.1866656094529588
 30
0.0
  0
VERTEX
  5
EE9
  8
0
 10
328.2377036812923166
 20
51.014456625447373
 30
0.0
  0
VERTEX
  5
EEA
  8
0
 10
327.8502334672796223
 20
50.9714043794459286
 30
0.0
  0
SEQEND
  5
EEB
  8
0
  0
POLYLINE
  5
6B7
  8
0
 66
     1
 10
0.0
 20
0.0
 30
0.0
  0
VERTEX
  5
EEC
  8
0
 10
332.5859805274337191
 20
58.2041817076813928
 30
0.0
  0
VERTEX
  5
EED
  8
0
 10
332.5859805274337191
 20
63.6287647038579891
 30
0.0
  0
VERTEX
  5
EEE
  8
0
 10
332.5859805274337191
 20
64.7050708538930053
 30
0.0
  0
VERTEX
  5
EEF
  8
0
 10
334.3941748594925798
 20
64.7050708538930053
 30
0.0
  0
VERTEX
  5
EF0
  8
0
 10
334.8677495655080065
 20
64.6620186078916106
 30
0.0
  0
VERTEX
  5
EF1
  8
0
 10
335.2982720255220102
 20
64.4467573778846088
 30
0.0
  0
VERTEX
  5
EF2
  8
0
 10
335.6857422395345907
 20
64.1884439018762123
 30
0.0
  0
VERTEX
  5
EF3
  8
0
 10
335.9440557155430724
 20
63.800973687863582
 30
0.0
  0
VERTEX
  5
EF4
  8
0
 10
336.1593169455500743
 20
63.3704512278495713
 30
0.0
  0
VERTEX
  5
EF5
  8
0
 10
336.2023691915514974
 20
62.8968765218341304
 30
0.0
  0
VERTEX
  5
EF6
  8
0
 10
336.1593169455500743
 20
62.4233018158187321
 30
0.0
  0
VERTEX
  5
EF7
  8
0
 10
335.9440557155430724
 20
61.9927793558047213
 30
0.0
  0
VERTEX
  5
EF8
  8
0
 10
335.6857422395345907
 20
61.6053091417921124
 30
0.0
  0
VERTEX
  5
EF9
  8
0
 10
335.2982720255220102
 20
61.3469956657837088
 30
0.0
  0
VERTEX
  5
EFA
  8
0
 10
334.8677495655080065
 20
61.131734435776707
 30
0.0
  0
VERTEX
  5
EFB
  8
0
 10
334.3941748594925798
 20
61.0886821897752768
 30
0.0
  0
VERTEX
  5
EFC
  8
0
 10
332.5859805274337191
 20
61.0886821897752768
 30
0.0
  0
SEQEND
  5
EFD
  8
0
  0
POLYLINE
  5
6B8
  8
0
 66
     1
 10
0.0
 20
0.0
 30
0.0
  0
VERTEX
  5
EFE
  8
0
 10
307.185155386606823
 20
64.7050708538930053
 30
0.0
  0
VERTEX
  5
EFF
  8
0
 10
307.185155386606823
 20
60.0123760397402535
 30
0.0
  0
VERTEX
  5
F00
  8
0
 10
307.2282076326084166
 20
59.5388013337248481
 30
0.0
  0
VERTEX
  5
F01
  8
0
 10
307.4434688626153047
 20
59.1082788737108018
 30
0.0
  0
VERTEX
  5
F02
  8
0
 10
307.7017823386236728
 20
58.7208086596982
 30
0.0
  0
VERTEX
  5
F03
  8
0
 10
308.0892525526364238
 20
58.4624951836898035
 30
0.0
  0
VERTEX
  5
F04
  8
0
 10
308.5197750126504275
 20
58.2472339536828017
 30
0.0
  0
VERTEX
  5
F05
  8
0
 10
308.9933497186656837
 20
58.2041817076813928
 30
0.0
  0
VERTEX
  5
F06
  8
0
 10
309.4669244246812241
 20
58.2472339536828017
 30
0.0
  0
VERTEX
  5
F07
  8
0
 10
309.897446884695114
 20
58.4624951836898035
 30
0.0
  0
VERTEX
  5
F08
  8
0
 10
310.2849170987079219
 20
58.7208086596982
 30
0.0
  0
VERTEX
  5
F09
  8
0
 10
310.5432305747161763
 20
59.1082788737108018
 30
0.0
  0
VERTEX
  5
F0A
  8
0
 10
310.7584918047232918
 20
59.5388013337248481
 30
0.0
  0
VERTEX
  5
F0B
  8
0
 10
310.8015440507246012
 20
60.0123760397402535
 30
0.0
  0
VERTEX
  5
F0C
  8
0
 10
310.8015440507246012
 20
64.7050708538930053
 30
0.0
  0
SEQEND
  5
F0D
  8
0
  0
POLYLINE
  5
6B9
  8
0
 66
     1
 10
0.0
 20
0.0
 30
0.0
  0
VERTEX
  5
F0E
  8
0
 10
289.7920480020407012
 20
58.2041817076813928
 30
0.0
  0
VERTEX
  5
F0F
  8
0
 10
289.7920480020407012
 20
63.6287647038579891
 30
0.0
  0
VERTEX
  5
F10
  8
0
 10
289.7920480020407012
 20
64.7050708538930053
 30
0.0
  0
VERTEX
  5
F11
  8
0
 10
291.6002423340996188
 20
64.7050708538930053
 30
0.0
  0
VERTEX
  5
F12
  8
0
 10
292.0738170401151024
 20
64.6620186078916106
 30
0.0
  0
VERTEX
  5
F13
  8
0
 10
292.5043395001289923
 20
64.4467573778846088
 30
0.0
  0
VERTEX
  5
F14
  8
0
 10
292.8918097141415728
 20
64.1884439018762123
 30
0.0
  0
VERTEX
  5
F15
  8
0
 10
293.1501231901501114
 20
63.800973687863582
 30
0.0
  0
VERTEX
  5
F16
  8
0
 10
293.3653844201569996
 20
63.3704512278495713
 30
0.0
  0
VERTEX
  5
F17
  8
0
 10
293.4084366661584227
 20
62.8968765218341304
 30
0.0
  0
VERTEX
  5
F18
  8
0
 10
293.3653844201569996
 20
62.4233018158187321
 30
0.0
  0
VERTEX
  5
F19
  8
0
 10
293.1501231901501114
 20
61.9927793558047213
 30
0.0
  0
VERTEX
  5
F1A
  8
0
 10
292.8918097141415728
 20
61.6053091417921124
 30
0.0
  0
VERTEX
  5
F1B
  8
0
 10
292.5043395001289923
 20
61.3469956657837088
 30
0.0
  0
VERTEX
  5
F1C
  8
0
 10
292.0738170401151024
 20
61.131734435776707
 30
0.0
  0
VERTEX
  5
F1D
  8
0
 10
291.6002423340996188
 20
61.0886821897752768
 30
0.0
  0
VERTEX
  5
F1E
  8
0
 10
289.7920480020407012
 20
61.0886821897752768
 30
0.0
  0
SEQEND
  5
F1F
  8
0
  0
POLYLINE
  5
6BA
  8
0
 66
     1
 10
0.0
 20
0.0
 30
0.0
  0
VERTEX
  5
F20
  8
0
 10
278.8998297636862276
 20
58.2041817076813928
 30
0.0
  0
VERTEX
  5
F21
  8
0
 10
278.8998297636862276
 20
63.6287647038579891
 30
0.0
  0
VERTEX
  5
F22
  8
0
 10
278.8998297636862276
 20
64.7050708538930053
 30
0.0
  0
VERTEX
  5
F23
  8
0
 10
280.7080240957449746
 20
64.7050708538930053
 30
0.0
  0
VERTEX
  5
F24
  8
0
 10
281.1815988017602876
 20
64.6620186078916106
 30
0.0
  0
VERTEX
  5
F25
  8
0
 10
281.612121261774405
 20
64.4467573778846088
 30
0.0
  0
VERTEX
  5
F26
  8
0
 10
281.9995914757868718
 20
64.1884439018762123
 30
0.0
  0
VERTEX
  5
F27
  8
0
 10
282.2579049517955241
 20
63.800973687863582
 30
0.0
  0
VERTEX
  5
F28
  8
0
 10
282.4731661818025259
 20
63.3704512278495713
 30
0.0
  0
VERTEX
  5
F29
  8
0
 10
282.5162184278037785
 20
62.8968765218341304
 30
0.0
  0
VERTEX
  5
F2A
  8
0
 10
282.4731661818025259
 20
62.4233018158187321
 30
0.0
  0
VERTEX
  5
F2B
  8
0
 10
282.2579049517955241
 20
61.9927793558047213
 30
0.0
  0
VERTEX
  5
F2C
  8
0
 10
281.9995914757868718
 20
61.6053091417921124
 30
0.0
  0
VERTEX
  5
F2D
  8
0
 10
281.612121261774405
 20
61.3469956657837088
 30
0.0
  0
VERTEX
  5
F2E
  8
0
 10
281.1815988017602876
 20
61.131734435776707
 30
0.0
  0
VERTEX
  5
F2F
  8
0
 10
280.7080240957449746
 20
61.0886821897752768
 30
0.0
  0
VERTEX
  5
F30
  8
0
 10
278.8998297636862276
 20
61.0886821897752768
 30
0.0
  0
SEQEND
  5
F31
  8
0
  0
POLYLINE
  5
6C8
  8
0
 66
     1
 10
0.0
 20
0.0
 30
0.0
 70
     1
  0
VERTEX
  5
F32
  8
0
 10
-491.6590930171836931
 20
0.0
 30
0.0
  0
VERTEX
  5
F33
  8
0
 10
-153.6590930171836931
 20
-0.0000000000000293
 30
0.0
  0
VERTEX
  5
F34
  8
0
 10
-153.6590930171836931
 20
196.9999999999998863
 30
0.0
  0
VERTEX
  5
F35
  8
0
 10
-491.6590930171836931
 20
196.9999999999998863
 30
0.0
  0
SEQEND
  5
F36
  8
0
  0
POLYLINE
  5
6C9
  8
0
 66
     1
 10
0.0
 20
0.0
 30
0.0
 70
     1
  0
VERTEX
  5
F37
  8
0
 10
247.0
 20
0.0000000000000284
 30
0.0
  0
VERTEX
  5
F38
  8
0
 10
754.0
 20
0.0
 30
0.0
  0
VERTEX
  5
F39
  8
0
 10
754.0
 20
197.0
 30
0.0
  0
VERTEX
  5
F3A
  8
0
 10
247.0
 20
197.0
 30
0.0
  0
SEQEND
  5
F3B
  8
0
  0
POLYLINE
  5
6CA
  8
0
 66
     1
 10
0.0
 20
0.0
 30
0.0
  0
VERTEX
  5
F3C
  8
0
 10
247.0
 20
197.0
 30
0.0
  0
VERTEX
  5
F3D
  8
0
 10
0.0
 20
197.0
 30
0.0
  0
VERTEX
  5
F3E
  8
0
 10
0.0
 20
0.0
 30
0.0
  0
VERTEX
  5
F3F
  8
0
 10
247.0
 20
-0.0000000000000151
 30
0.0
  0
SEQEND
  5
F40
  8
0
  0
POLYLINE
  5
7F5
  8
0
 66
     1
 10
0.0
 20
0.0
 30
0.0
  0
VERTEX
  5
F41
  8
0
 10
-394.6559920357378246
 20
64.0790519522097384
 30
0.0
  0
VERTEX
  5
F42
  8
0
 10
-395.7695985735618933
 20
65.1926584900337787
 30
0.0
  0
VERTEX
  5
F43
  8
0
 10
-391.6399743291311211
 20
65.1926584900337787
 30
0.0
  0
VERTEX
  5
F44
  8
0
 10
-390.8047694257630269
 20
65.1926584900337787
 30
0.0
  0
SEQEND
  5
F45
  8
0
  0
POLYLINE
  5
7FB
  8
0
 66
     1
 10
0.0
 20
0.0
 30
0.0
  0
VERTEX
  5
F46
  8
0
 10
-390.8047694257630269
 20
66.8630682967697823
 30
0.0
  0
VERTEX
  5
F47
  8
0
 10
-390.8047694257630269
 20
67.6982732001378338
 30
0.0
  0
SEQEND
  5
F48
  8
0
  0
POLYLINE
  5
7FF
  8
0
 66
     1
 10
0.0
 20
0.0
 30
0.0
  0
VERTEX
  5
F49
  8
0
 10
-393.5423854979139264
 20
67.6982732001378338
 30
0.0
  0
VERTEX
  5
F4A
  8
0
 10
-393.4959852255043984
 20
68.115875651821824
 30
0.0
  0
VERTEX
  5
F4B
  8
0
 10
-393.263983863457895
 20
68.4870778310965136
 30
0.0
  0
VERTEX
  5
F4C
  8
0
 10
-392.9855822290018068
 20
68.7654794655525023
 30
0.0
  0
VERTEX
  5
F4D
  8
0
 10
-392.6143800497271172
 20
68.9974808275991762
 30
0.0
  0
VERTEX
  5
F4E
  8
0
 10
-392.1967775980428996
 20
69.0438811000085053
 30
0.0
  0
VERTEX
  5
F4F
  8
0
 10
-391.7791751463590799
 20
68.9974808275991762
 30
0.0
  0
VERTEX
  5
F50
  8
0
 10
-391.407972967084504
 20
68.7654794655525023
 30
0.0
  0
VERTEX
  5
F51
  8
0
 10
-391.1295713326284158
 20
68.4870778310965136
 30
0.0
  0
VERTEX
  5
F52
  8
0
 10
-390.8975699705816851
 20
68.115875651821824
 30
0.0
  0
VERTEX
  5
F53
  8
0
 10
-390.8511696981723844
 20
67.6982732001378338
 30
0.0
  0
SEQEND
  5
F54
  8
0
  0
POLYLINE
  5
80C
  8
0
 66
     1
 10
0.0
 20
0.0
 30
0.0
  0
VERTEX
  5
F55
  8
0
 10
-393.5887857703231134
 20
67.6982732001378338
 30
0.0
  0
VERTEX
  5
F56
  8
0
 10
-393.5887857703231134
 20
67.4198715656818166
 30
0.0
  0
SEQEND
  5
F57
  8
0
  0
POLYLINE
  5
810
  8
0
 66
     1
 10
0.0
 20
0.0
 30
0.0
  0
VERTEX
  5
F58
  8
0
 10
-395.723198301152479
 20
67.9766748345938367
 30
0.0
  0
VERTEX
  5
F59
  8
0
 10
-395.6767980287431214
 20
68.3478770138684979
 30
0.0
  0
VERTEX
  5
F5A
  8
0
 10
-395.4911969391059188
 20
68.67267892073383
 30
0.0
  0
VERTEX
  5
F5B
  8
0
 10
-395.2127953046498874
 20
68.9046802827805038
 30
0.0
  0
VERTEX
  5
F5C
  8
0
 10
-394.8415931253750841
 20
69.0438811000085053
 30
0.0
  0
VERTEX
  5
F5D
  8
0
 10
-394.4703909461006219
 20
69.0438811000085053
 30
0.0
  0
VERTEX
  5
F5E
  8
0
 10
-394.1455890392352899
 20
68.9046802827805038
 30
0.0
  0
VERTEX
  5
F5F
  8
0
 10
-393.8207871323696736
 20
68.67267892073383
 30
0.0
  0
VERTEX
  5
F60
  8
0
 10
-393.6351860427324141
 20
68.3478770138684979
 30
0.0
  0
VERTEX
  5
F61
  8
0
 10
-393.5887857703231134
 20
67.9766748345938367
 30
0.0
  0
SEQEND
  5
F62
  8
0
  0
POLYLINE
  5
81C
  8
0
 66
     1
 10
0.0
 20
0.0
 30
0.0
  0
VERTEX
  5
F63
  8
0
 10
-395.7695985735618933
 20
67.9766748345938367
 30
0.0
  0
VERTEX
  5
F64
  8
0
 10
-395.7695985735618933
 20
66.8630682967697823
 30
0.0
  0
SEQEND
  5
F65
  8
0
  0
POLYLINE
  5
820
  8
0
 66
     1
 10
0.0
 20
0.0
 30
0.0
  0
VERTEX
  5
F66
  8
0
 10
-390.8047694257630269
 20
71.5958960825219037
 30
0.0
  0
VERTEX
  5
F67
  8
0
 10
-395.7695985735618933
 20
72.9415039823925895
 30
0.0
  0
VERTEX
  5
F68
  8
0
 10
-395.7695985735618933
 20
70.7606911791538948
 30
0.0
  0
SEQEND
  5
F69
  8
0
  0
POLYLINE
  5
825
  8
0
 66
     1
 10
0.0
 20
0.0
 30
0.0
  0
VERTEX
  5
F6A
  8
0
 10
-328.5356038524362816
 20
148.3883469199701892
 30
0.0
  0
VERTEX
  5
F6B
  8
0
 10
-327.4219973146124971
 20
149.5019534577942011
 30
0.0
  0
VERTEX
  5
F6C
  8
0
 10
-327.4219973146124971
 20
145.3259289409540997
 30
0.0
  0
VERTEX
  5
F6D
  8
0
 10
-327.4219973146124971
 20
144.4907240375860908
 30
0.0
  0
SEQEND
  5
F6E
  8
0
  0
POLYLINE
  5
82B
  8
0
 66
     1
 10
0.0
 20
0.0
 30
0.0
  0
VERTEX
  5
F6F
  8
0
 10
-323.5243744322281145
 20
144.4907240375860908
 30
0.0
  0
VERTEX
  5
F70
  8
0
 10
-325.7515875078761951
 20
144.4907240375860908
 30
0.0
  0
VERTEX
  5
F71
  8
0
 10
-323.8027760666843164
 20
147.5531420166022087
 30
0.0
  0
SEQEND
  5
F72
  8
0
  0
POLYLINE
  5
830
  8
0
 66
     1
 10
0.0
 20
0.0
 30
0.0
  0
VERTEX
  5
F73
  8
0
 10
-323.5243744322281145
 20
148.7131488268354929
 30
0.0
  0
VERTEX
  5
F74
  8
0
 10
-323.5707747046374152
 20
148.1099452855141863
 30
0.0
  0
VERTEX
  5
F75
  8
0
 10
-323.8027760666843164
 20
147.5995422890115094
 30
0.0
  0
SEQEND
  5
F76
  8
0
  0
POLYLINE
  5
835
  8
0
 66
     1
 10
0.0
 20
0.0
 30
0.0
  0
VERTEX
  5
F77
  8
0
 10
-325.7051872354668944
 20
148.6667485544261922
 30
0.0
  0
VERTEX
  5
F78
  8
0
 10
-325.5659864182391061
 20
148.9915504612914958
 30
0.0
  0
VERTEX
  5
F79
  8
0
 10
-325.2875847837829042
 20
149.2235518233381981
 30
0.0
  0
VERTEX
  5
F7A
  8
0
 10
-325.0091831493269865
 20
149.4091529129755997
 30
0.0
  0
VERTEX
  5
F7B
  8
0
 10
-324.6379809700524106
 20
149.4555531853849004
 30
0.0
  0
VERTEX
  5
F7C
  8
0
 10
-324.26677879077738
 20
149.4091529129755997
 30
0.0
  0
VERTEX
  5
F7D
  8
0
 10
-323.9883771563216897
 20
149.2235518233381981
 30
0.0
  0
VERTEX
  5
F7E
  8
0
 10
-323.7099755218657151
 20
148.9915504612914958
 30
0.0
  0
VERTEX
  5
F7F
  8
0
 10
-323.5707747046374152
 20
148.6667485544261922
 30
0.0
  0
SEQEND
  5
F80
  8
0
  0
POLYLINE
  5
840
  8
0
 66
     1
 10
0.0
 20
0.0
 30
0.0
  0
VERTEX
  5
F81
  8
0
 10
-319.6267515498441867
 20
144.4907240375860908
 30
0.0
  0
VERTEX
  5
F82
  8
0
 10
-321.8539646254923241
 20
144.4907240375860908
 30
0.0
  0
VERTEX
  5
F83
  8
0
 10
-319.9051531843002749
 20
147.5531420166022087
 30
0.0
  0
SEQEND
  5
F84
  8
0
  0
POLYLINE
  5
845
  8
0
 66
     1
 10
0.0
 20
0.0
 30
0.0
  0
VERTEX
  5
F85
  8
0
 10
-319.6731518222534874
 20
148.7131488268354929
 30
0.0
  0
VERTEX
  5
F86
  8
0
 10
-319.7195520946629017
 20
148.1099452855141863
 30
0.0
  0
VERTEX
  5
F87
  8
0
 10
-319.9515534567095756
 20
147.5995422890115094
 30
0.0
  0
SEQEND
  5
F88
  8
0
  0
POLYLINE
  5
84A
  8
0
 66
     1
 10
0.0
 20
0.0
 30
0.0
  0
VERTEX
  5
F89
  8
0
 10
-321.8075643530830234
 20
148.6667485544261922
 30
0.0
  0
VERTEX
  5
F8A
  8
0
 10
-321.6683635358548941
 20
148.9915504612914958
 30
0.0
  0
VERTEX
  5
F8B
  8
0
 10
-321.3899619013988058
 20
149.2235518233381981
 30
0.0
  0
VERTEX
  5
F8C
  8
0
 10
-321.1115602669427744
 20
149.4091529129755997
 30
0.0
  0
VERTEX
  5
F8D
  8
0
 10
-320.7403580876681986
 20
149.4555531853849004
 30
0.0
  0
VERTEX
  5
F8E
  8
0
 10
-320.369155908393509
 20
149.4091529129755997
 30
0.0
  0
VERTEX
  5
F8F
  8
0
 10
-320.0907542739374776
 20
149.2235518233381981
 30
0.0
  0
VERTEX
  5
F90
  8
0
 10
-319.812352639481503
 20
148.9915504612914958
 30
0.0
  0
VERTEX
  5
F91
  8
0
 10
-319.6731518222534874
 20
148.6667485544261922
 30
0.0
  0
SEQEND
  5
F92
  8
0
  0
CIRCLE
  5
862
  8
0
 10
604.0
 20
177.0
 30
0.0
 40
2.25
  0
CIRCLE
  5
863
  8
0
 10
397.0
 20
177.0
 30
0.0
 40
2.25
  0
CIRCLE
  5
864
  8
0
 10
397.0
 20
20.0
 30
0.0
 40
2.25
  0
LINE
  5
865
  8
0
 10
485.0
 20
140.0
 30
0.0
 11
485.0
 21
116.0
 31
0.0
  0
LINE
  5
866
  8
0
 10
482.0
 20
137.0
 30
0.0
 11
506.0
 21
137.0
 31
0.0
  0
CIRCLE
  5
867
  8
0
 10
485.0
 20
137.0
 30
0.0
 40
2.0
  0
POLYLINE
  5
868
  8
0
 66
     1
 10
0.0
 20
0.0
 30
0.0
  0
VERTEX
  5
F93
  8
0
 10
607.0
 20
-0.0000000000000102
 30
0.0
  0
VERTEX
  5
F94
  8
0
 10
607.0
 20
137.0
 30
0.0
  0
VERTEX
  5
F95
  8
0
 10
485.0
 20
137.0
 30
0.0
  0
VERTEX
  5
F96
  8
0
 10
485.0
 20
-0.0000000000000102
 30
0.0
  0
SEQEND
  5
F97
  8
0
  0
POLYLINE
  5
869
  8
0
 66
     1
 10
0.0
 20
0.0
 30
0.0
  0
VERTEX
  5
F98
  8
0
 10
500.0
 20
134.0
 30
0.0
  0
VERTEX
  5
F99
  8
0
 10
506.0
 20
137.0
 30
0.0
  0
VERTEX
  5
F9A
  8
0
 10
500.0
 20
140.0
 30
0.0
  0
SEQEND
  5
F9B
  8
0
  0
POLYLINE
  5
86A
  8
0
 66
     1
 10
0.0
 20
0.0
 30
0.0
  0
VERTEX
  5
F9C
  8
0
 10
482.0
 20
122.0
 30
0.0
  0
VERTEX
  5
F9D
  8
0
 10
485.0
 20
116.0
 30
0.0
  0
VERTEX
  5
F9E
  8
0
 10
488.0
 20
122.0
 30
0.0
  0
SEQEND
  5
F9F
  8
0
  0
POLYLINE
  5
86B
  8
0
 66
     1
 10
0.0
 20
0.0
 30
0.0
  0
VERTEX
  5
FA0
  8
0
 10
488.3529045196395941
 20
139.4997230498975966
 30
0.0
  0
VERTEX
  5
FA1
  8
0
 10
491.683136041837713
 20
144.5032127085549973
 30
0.0
  0
SEQEND
  5
FA2
  8
0
  0
POLYLINE
  5
86F
  8
0
 66
     1
 10
0.0
 20
0.0
 30
0.0
  0
VERTEX
  5
FA3
  8
0
 10
488.3529045196395941
 20
144.5032127085549973
 30
0.0
  0
VERTEX
  5
FA4
  8
0
 10
491.683136041837713
 20
139.4997230498975966
 30
0.0
  0
SEQEND
  5
FA5
  8
0
  0
POLYLINE
  5
873
  8
0
 66
     1
 10
0.0
 20
0.0
 30
0.0
  0
VERTEX
  5
FA6
  8
0
 10
482.5229637619524965
 20
132.0005953434313994
 30
0.0
  0
VERTEX
  5
FA7
  8
0
 10
479.7504849519070831
 20
132.0005953434313994
 30
0.0
  0
VERTEX
  5
FA8
  8
0
 10
477.5276164786549202
 20
130.3354795823321979
 30
0.0
  0
SEQEND
  5
FA9
  8
0
  0
POLYLINE
  5
878
  8
0
 66
     1
 10
0.0
 20
0.0
 30
0.0
  0
VERTEX
  5
FAA
  8
0
 10
477.5276164786549202
 20
133.669782292210499
 30
0.0
  0
VERTEX
  5
FAB
  8
0
 10
479.7504849519070831
 20
132.0005953434313994
 30
0.0
  0
SEQEND
  5
FAC
  8
0
  0
POLYLINE
  5
87C
  8
0
 66
     1
 10
0.0
 20
0.0
 30
0.0
  0
VERTEX
  5
FAD
  8
0
 10
473.7488607457456169
 20
64.07905195220971
 30
0.0
  0
VERTEX
  5
FAE
  8
0
 10
472.6352542079217756
 20
65.1926584900337502
 30
0.0
  0
VERTEX
  5
FAF
  8
0
 10
476.8112787247619053
 20
65.1926584900337502
 30
0.0
  0
VERTEX
  5
FB0
  8
0
 10
477.6000833557205851
 20
65.1926584900337502
 30
0.0
  0
SEQEND
  5
FB1
  8
0
  0
POLYLINE
  5
882
  8
0
 66
     1
 10
0.0
 20
0.0
 30
0.0
  0
VERTEX
  5
FB2
  8
0
 10
474.8624672835695719
 20
67.6982732001378054
 30
0.0
  0
VERTEX
  5
FB3
  8
0
 10
474.8624672835695719
 20
67.419871565681774
 30
0.0
  0
SEQEND
  5
FB4
  8
0
  0
POLYLINE
  5
886
  8
0
 66
     1
 10
0.0
 20
0.0
 30
0.0
  0
VERTEX
  5
FB5
  8
0
 10
472.6816544803311899
 20
67.9766748345938083
 30
0.0
  0
VERTEX
  5
FB6
  8
0
 10
472.7280547527403769
 20
68.3478770138684695
 30
0.0
  0
VERTEX
  5
FB7
  8
0
 10
472.9136558423775796
 20
68.6726789207338015
 30
0.0
  0
VERTEX
  5
FB8
  8
0
 10
473.1920574768337246
 20
68.9046802827804754
 30
0.0
  0
VERTEX
  5
FB9
  8
0
 10
473.5632596561083005
 20
69.0438811000084911
 30
0.0
  0
VERTEX
  5
FBA
  8
0
 10
473.9344618353831038
 20
69.0438811000084911
 30
0.0
  0
VERTEX
  5
FBB
  8
0
 10
474.259263742248379
 20
68.9046802827804754
 30
0.0
  0
VERTEX
  5
FBC
  8
0
 10
474.5840656491138816
 20
68.6726789207338015
 30
0.0
  0
VERTEX
  5
FBD
  8
0
 10
474.7696667387510274
 20
68.3478770138684695
 30
0.0
  0
VERTEX
  5
FBE
  8
0
 10
474.8160670111603281
 20
67.9766748345938083
 30
0.0
  0
SEQEND
  5
FBF
  8
0
  0
POLYLINE
  5
892
  8
0
 66
     1
 10
0.0
 20
0.0
 30
0.0
  0
VERTEX
  5
FC0
  8
0
 10
472.6352542079217756
 20
67.9766748345938083
 30
0.0
  0
VERTEX
  5
FC1
  8
0
 10
472.6352542079217756
 20
66.8630682967697538
 30
0.0
  0
SEQEND
  5
FC2
  8
0
  0
POLYLINE
  5
896
  8
0
 66
     1
 10
0.0
 20
0.0
 30
0.0
  0
VERTEX
  5
FC3
  8
0
 10
477.6000833557205851
 20
71.5958960825218753
 30
0.0
  0
VERTEX
  5
FC4
  8
0
 10
472.6352542079217756
 20
72.9415039823925611
 30
0.0
  0
VERTEX
  5
FC5
  8
0
 10
472.6352542079217756
 20
70.7606911791538664
 30
0.0
  0
SEQEND
  5
FC6
  8
0
  0
POLYLINE
  5
89B
  8
0
 66
     1
 10
0.0
 20
0.0
 30
0.0
  0
VERTEX
  5
FC7
  8
0
 10
539.8692489290469894
 20
148.388346919970104
 30
0.0
  0
VERTEX
  5
FC8
  8
0
 10
540.9828554668713423
 20
149.5019534577942011
 30
0.0
  0
VERTEX
  5
FC9
  8
0
 10
540.9828554668713423
 20
145.3259289409540997
 30
0.0
  0
VERTEX
  5
FCA
  8
0
 10
540.9828554668713423
 20
144.4907240375860056
 30
0.0
  0
SEQEND
  5
FCB
  8
0
  0
POLYLINE
  5
8A1
  8
0
 66
     1
 10
0.0
 20
0.0
 30
0.0
  0
VERTEX
  5
FCC
  8
0
 10
544.8804783492552133
 20
144.4907240375860056
 30
0.0
  0
VERTEX
  5
FCD
  8
0
 10
542.6532652736073032
 20
144.4907240375860056
 30
0.0
  0
VERTEX
  5
FCE
  8
0
 10
544.6020767147991819
 20
147.5531420166022087
 30
0.0
  0
SEQEND
  5
FCF
  8
0
  0
POLYLINE
  5
8A6
  8
0
 66
     1
 10
0.0
 20
0.0
 30
0.0
  0
VERTEX
  5
FD0
  8
0
 10
544.8804783492552133
 20
148.7131488268354929
 30
0.0
  0
VERTEX
  5
FD1
  8
0
 10
544.8340780768460263
 20
148.1099452855141863
 30
0.0
  0
VERTEX
  5
FD2
  8
0
 10
544.6020767147991819
 20
147.5995422890115094
 30
0.0
  0
SEQEND
  5
FD3
  8
0
  0
POLYLINE
  5
8AB
  8
0
 66
     1
 10
0.0
 20
0.0
 30
0.0
  0
VERTEX
  5
FD4
  8
0
 10
542.6996655460166039
 20
148.6667485544261922
 30
0.0
  0
VERTEX
  5
FD5
  8
0
 10
542.8388663632443922
 20
148.9915504612914958
 30
0.0
  0
VERTEX
  5
FD6
  8
0
 10
543.1172679977007647
 20
149.2235518233381981
 30
0.0
  0
VERTEX
  5
FD7
  8
0
 10
543.395669632156455
 20
149.4091529129755997
 30
0.0
  0
VERTEX
  5
FD8
  8
0
 10
543.7668718114313151
 20
149.4555531853849004
 30
0.0
  0
VERTEX
  5
FD9
  8
0
 10
544.1380739907059478
 20
149.4091529129755997
 30
0.0
  0
VERTEX
  5
FDA
  8
0
 10
544.4164756251619792
 20
149.2235518233381981
 30
0.0
  0
VERTEX
  5
FDB
  8
0
 10
544.6948772596177832
 20
148.9915504612914958
 30
0.0
  0
VERTEX
  5
FDC
  8
0
 10
544.8340780768460263
 20
148.6667485544261922
 30
0.0
  0
SEQEND
  5
FDD
  8
0
  0
POLYLINE
  5
8B6
  8
0
 66
     1
 10
0.0
 20
0.0
 30
0.0
  0
VERTEX
  5
FDE
  8
0
 10
548.7781012316393117
 20
144.4907240375860056
 30
0.0
  0
VERTEX
  5
FDF
  8
0
 10
546.5508881559911742
 20
144.4907240375860056
 30
0.0
  0
VERTEX
  5
FE0
  8
0
 10
548.4996995971835076
 20
147.5531420166022087
 30
0.0
  0
SEQEND
  5
FE1
  8
0
  0
POLYLINE
  5
8BB
  8
0
 66
     1
 10
0.0
 20
0.0
 30
0.0
  0
VERTEX
  5
FE2
  8
0
 10
548.7781012316393117
 20
148.7131488268354929
 30
0.0
  0
VERTEX
  5
FE3
  8
0
 10
548.731700959230011
 20
148.1099452855141863
 30
0.0
  0
VERTEX
  5
FE4
  8
0
 10
548.4996995971835076
 20
147.5995422890115094
 30
0.0
  0
SEQEND
  5
FE5
  8
0
  0
POLYLINE
  5
8C0
  8
0
 66
     1
 10
0.0
 20
0.0
 30
0.0
  0
VERTEX
  5
FE6
  8
0
 10
546.5972884284004749
 20
148.6667485544261922
 30
0.0
  0
VERTEX
  5
FE7
  8
0
 10
546.736489245628718
 20
148.9915504612914958
 30
0.0
  0
VERTEX
  5
FE8
  8
0
 10
547.0148908800847494
 20
149.2235518233381981
 30
0.0
  0
VERTEX
  5
FE9
  8
0
 10
547.2932925145406671
 20
149.4091529129755997
 30
0.0
  0
VERTEX
  5
FEA
  8
0
 10
547.6644946938152998
 20
149.4555531853849004
 30
0.0
  0
VERTEX
  5
FEB
  8
0
 10
548.0356968730900462
 20
149.4091529129755997
 30
0.0
  0
VERTEX
  5
FEC
  8
0
 10
548.3140985075458502
 20
149.2235518233381981
 30
0.0
  0
VERTEX
  5
FED
  8
0
 10
548.5925001420019953
 20
148.9915504612914958
 30
0.0
  0
VERTEX
  5
FEE
  8
0
 10
548.731700959230011
 20
148.6667485544261922
 30
0.0
  0
SEQEND
  5
FEF
  8
0
  0
POLYLINE
  5
8CB
  8
0
 66
     1
 10
0.0
 20
0.0
 30
0.0
  0
VERTEX
  5
FF0
  8
0
 10
474.9088675559791
 20
67.6982732001378054
 30
0.0
  0
VERTEX
  5
FF1
  8
0
 10
474.9552678283884006
 20
68.1158756518217956
 30
0.0
  0
VERTEX
  5
FF2
  8
0
 10
475.1872691904350745
 20
68.4870778310964852
 30
0.0
  0
VERTEX
  5
FF3
  8
0
 10
475.4656708248911059
 20
68.7654794655524739
 30
0.0
  0
VERTEX
  5
FF4
  8
0
 10
475.8368730041659092
 20
68.9974808275991478
 30
0.0
  0
VERTEX
  5
FF5
  8
0
 10
476.2544754558496152
 20
69.0438811000084911
 30
0.0
  0
VERTEX
  5
FF6
  8
0
 10
476.6720779075336054
 20
68.9974808275991478
 30
0.0
  0
VERTEX
  5
FF7
  8
0
 10
477.0432800868085224
 20
68.7654794655524739
 30
0.0
  0
VERTEX
  5
FF8
  8
0
 10
477.3216817212644969
 20
68.4870778310964852
 30
0.0
  0
VERTEX
  5
FF9
  8
0
 10
477.5536830833112845
 20
68.1158756518217956
 30
0.0
  0
VERTEX
  5
FFA
  8
0
 10
477.6000833557205851
 20
67.6982732001378054
 30
0.0
  0
VERTEX
  5
FFB
  8
0
 10
477.6000833557205851
 20
66.8630682967697538
 30
0.0
  0
SEQEND
  5
FFC
  8
0
  0
ENDSEC
  0
EOF
